{"glyphs":{"0":{"ha":833,"x_min":71,"x_max":763,"o":"m 71 497 q 162 878 71 746 q 421 1013 253 1011 q 674 881 586 1014 q 763 497 763 747 q 674 114 763 247 q 421 -18 586 -19 q 162 117 253 -17 q 71 497 71 250 m 175 497 q 239 188 175 296 q 421 79 303 79 q 597 188 536 79 q 658 497 658 296 q 597 808 658 700 q 421 915 536 915 q 239 808 303 915 q 175 497 175 700 m 356 419 l 356 543 l 478 543 l 478 419 l 356 419 z "},"1":{"ha":833,"x_min":110,"x_max":729,"o":"m 729 0 l 110 0 l 110 97 l 394 97 l 394 857 l 182 633 l 114 694 l 394 986 l 499 986 l 499 97 l 729 97 l 729 0 z "},"2":{"ha":833,"x_min":76,"x_max":749,"o":"m 253 104 l 749 104 l 749 0 l 76 0 l 76 75 q 287 289 196 200 q 441 445 378 378 q 542 568 504 513 q 589 682 579 624 q 580 799 601 747 q 513 879 558 850 q 403 906 467 908 q 266 855 317 904 q 215 724 215 806 l 111 724 q 148 872 111 808 q 251 973 185 936 q 403 1010 317 1010 q 574 963 503 1010 q 679 839 646 917 q 694 664 713 761 q 646 542 683 606 q 555 415 608 479 q 444 292 501 351 q 335 185 386 233 q 253 104 285 136 z "},"3":{"ha":833,"x_min":75,"x_max":742,"o":"m 401 906 q 255 851 313 904 q 197 717 197 799 l 100 717 q 139 869 100 803 q 246 972 178 935 q 401 1010 314 1010 q 561 976 492 1010 q 669 883 631 943 q 707 746 708 824 q 673 619 707 678 q 582 524 639 561 q 698 422 654 488 q 742 276 742 357 q 699 122 742 189 q 582 16 657 54 q 410 -22 507 -22 q 238 20 314 -22 q 118 135 161 63 q 78 294 75 207 l 176 294 q 240 140 176 197 q 410 82 303 82 q 576 135 515 82 q 638 276 638 188 q 608 376 638 332 q 529 447 579 421 q 417 474 479 474 l 318 474 l 318 567 l 408 567 q 507 591 463 567 q 577 656 551 615 q 603 746 603 697 q 547 861 603 817 q 401 906 490 906 z "},"4":{"ha":833,"x_min":44,"x_max":790,"o":"m 611 221 l 611 0 l 507 0 l 507 221 l 44 221 l 44 318 l 449 986 l 611 986 l 611 318 l 790 318 l 790 221 l 611 221 m 507 896 l 164 318 l 507 318 l 507 896 z "},"5":{"ha":833,"x_min":121,"x_max":767,"o":"m 440 638 q 610 597 536 638 q 725 487 683 557 q 767 325 767 417 q 726 147 767 225 q 612 26 685 69 q 443 -18 539 -18 q 276 22 349 -18 q 162 133 203 63 q 121 296 121 204 l 211 296 q 276 140 211 200 q 443 79 342 79 q 558 110 508 79 q 635 198 607 142 q 663 326 663 254 q 601 479 663 419 q 443 540 540 539 q 321 504 376 542 q 246 406 265 467 l 132 406 l 132 986 l 713 986 l 713 882 l 229 882 l 229 554 q 326 617 271 594 q 440 638 381 639 z "},"6":{"ha":833,"x_min":119,"x_max":753,"o":"m 436 582 q 597 542 525 582 q 710 434 668 501 q 753 282 753 367 q 710 131 753 199 q 597 22 668 63 q 436 -18 525 -18 q 276 22 347 -18 q 162 131 204 63 q 119 283 119 199 q 130 360 119 324 q 158 429 140 397 l 469 986 l 585 986 l 344 569 q 436 582 389 582 m 224 283 q 252 180 224 226 q 328 106 281 133 q 436 79 376 79 q 544 106 496 79 q 620 180 592 133 q 649 283 649 226 q 620 385 649 340 q 544 458 592 431 q 436 485 496 485 q 328 458 376 485 q 252 385 281 431 q 224 283 224 340 z "},"7":{"ha":833,"x_min":121,"x_max":751,"o":"m 121 986 l 751 986 l 751 882 l 385 0 l 269 0 l 644 882 l 121 882 l 121 986 z "},"8":{"ha":833,"x_min":99,"x_max":772,"o":"m 99 283 q 142 438 99 371 q 263 542 186 506 q 172 630 204 575 q 139 754 139 685 q 177 887 139 829 q 282 977 215 944 q 436 1010 349 1010 q 589 976 522 1010 q 693 885 656 943 q 731 753 731 828 q 698 630 731 685 q 608 542 665 575 q 728 438 685 506 q 772 282 772 371 q 729 130 772 196 q 610 26 686 64 q 436 -11 535 -11 q 260 26 336 -11 q 142 131 185 64 q 99 283 99 197 m 243 754 q 297 632 243 679 q 436 585 351 585 q 573 632 519 585 q 626 754 626 679 q 573 868 626 824 q 436 913 519 913 q 297 868 351 913 q 243 754 243 824 m 436 482 q 268 426 333 482 q 203 283 203 371 q 268 142 203 197 q 436 86 333 86 q 603 142 539 86 q 668 283 668 197 q 603 426 668 371 q 436 482 539 482 z "},"9":{"ha":833,"x_min":119,"x_max":753,"o":"m 436 407 q 276 447 347 407 q 162 556 204 488 q 119 707 119 624 q 162 860 119 792 q 276 969 204 928 q 436 1010 347 1010 q 597 969 525 1010 q 710 859 668 928 q 753 706 753 790 q 714 560 753 626 l 400 0 l 285 0 l 528 419 q 436 407 485 407 m 224 706 q 252 604 224 650 q 328 531 281 558 q 436 504 376 504 q 544 531 496 504 q 620 604 592 558 q 649 706 649 650 q 620 810 649 763 q 544 885 592 857 q 436 913 496 913 q 328 885 376 913 q 252 810 281 857 q 224 706 224 763 z "},"A":{"ha":833,"x_min":26,"x_max":807,"o":"m 703 0 l 618 263 l 215 263 l 131 0 l 26 0 l 350 986 l 483 986 l 807 0 l 703 0 m 417 890 l 246 360 l 588 360 l 417 890 z "},"Á":{"ha":833,"x_min":26,"x_max":807,"o":"m 703 0 l 618 263 l 215 263 l 131 0 l 26 0 l 350 986 l 483 986 l 807 0 l 703 0 m 417 890 l 246 360 l 588 360 l 417 890 m 317 1089 l 286 1174 l 599 1286 l 629 1201 l 317 1089 z "},"Ă":{"ha":833,"x_min":26,"x_max":807,"o":"m 703 0 l 618 263 l 215 263 l 131 0 l 26 0 l 350 986 l 483 986 l 807 0 l 703 0 m 417 890 l 246 360 l 588 360 l 417 890 m 188 1267 l 278 1267 q 300 1219 278 1239 q 355 1190 322 1200 q 417 1181 388 1181 q 478 1190 446 1181 q 532 1219 510 1200 q 554 1267 554 1239 l 644 1267 q 612 1173 644 1213 q 527 1112 579 1133 q 417 1090 475 1090 q 307 1112 360 1090 q 221 1173 254 1133 q 188 1267 188 1213 z "},"Ǎ":{"ha":833,"x_min":26,"x_max":807,"o":"m 703 0 l 618 263 l 215 263 l 131 0 l 26 0 l 350 986 l 483 986 l 807 0 l 703 0 m 417 890 l 246 360 l 588 360 l 417 890 m 417 1090 l 188 1242 l 238 1317 l 417 1199 l 594 1317 l 644 1242 l 417 1090 z "},"Â":{"ha":833,"x_min":26,"x_max":807,"o":"m 703 0 l 618 263 l 215 263 l 131 0 l 26 0 l 350 986 l 483 986 l 807 0 l 703 0 m 417 890 l 246 360 l 588 360 l 417 890 m 238 1090 l 188 1165 l 417 1317 l 644 1165 l 594 1090 l 417 1208 l 238 1090 z "},"Ä":{"ha":833,"x_min":26,"x_max":807,"o":"m 703 0 l 618 263 l 215 263 l 131 0 l 26 0 l 350 986 l 483 986 l 807 0 l 703 0 m 417 890 l 246 360 l 588 360 l 417 890 m 349 1104 l 231 1104 l 231 1222 l 349 1222 l 349 1104 m 603 1104 l 485 1104 l 485 1222 l 603 1222 l 603 1104 z "},"À":{"ha":833,"x_min":26,"x_max":807,"o":"m 703 0 l 618 263 l 215 263 l 131 0 l 26 0 l 350 986 l 483 986 l 807 0 l 703 0 m 417 890 l 246 360 l 588 360 l 417 890 m 235 1286 l 547 1174 l 517 1089 l 204 1201 l 235 1286 z "},"Ā":{"ha":833,"x_min":26,"x_max":807,"o":"m 703 0 l 618 263 l 215 263 l 131 0 l 26 0 l 350 986 l 483 986 l 807 0 l 703 0 m 417 890 l 246 360 l 588 360 l 417 890 m 625 1104 l 208 1104 l 208 1201 l 625 1201 l 625 1104 z "},"Ą":{"ha":833,"x_min":26,"x_max":807,"o":"m 797 -282 l 708 -282 q 617 -255 650 -282 q 583 -178 583 -228 q 592 -132 583 -153 q 619 -89 600 -111 l 703 0 l 618 263 l 215 263 l 131 0 l 26 0 l 350 986 l 483 986 l 807 0 l 697 -117 q 685 -132 690 -124 q 681 -151 681 -140 q 722 -186 681 -186 l 797 -186 l 797 -282 m 417 890 l 246 360 l 588 360 l 417 890 z "},"Å":{"ha":833,"x_min":26,"x_max":807,"o":"m 703 0 l 618 263 l 215 263 l 131 0 l 26 0 l 350 986 l 483 986 l 807 0 l 703 0 m 417 890 l 246 360 l 588 360 l 417 890 m 265 1242 q 286 1317 265 1283 q 342 1372 307 1351 q 417 1393 376 1393 q 492 1372 458 1393 q 547 1317 526 1351 q 568 1242 568 1283 q 547 1167 568 1201 q 492 1111 526 1132 q 417 1090 458 1090 q 342 1111 376 1090 q 286 1167 307 1132 q 265 1242 265 1201 m 349 1242 q 369 1194 349 1215 q 417 1174 390 1174 q 464 1194 443 1174 q 485 1242 485 1215 q 464 1289 485 1268 q 417 1310 443 1310 q 369 1289 390 1310 q 349 1242 349 1268 z "},"Ã":{"ha":833,"x_min":26,"x_max":807,"o":"m 703 0 l 618 263 l 215 263 l 131 0 l 26 0 l 350 986 l 483 986 l 807 0 l 703 0 m 417 890 l 246 360 l 588 360 l 417 890 m 174 1104 q 213 1238 174 1189 q 317 1286 253 1286 q 386 1269 358 1286 q 433 1232 414 1253 q 471 1196 453 1211 q 511 1181 489 1181 q 558 1206 540 1181 q 576 1278 575 1231 l 660 1278 q 619 1147 660 1196 q 515 1099 579 1099 q 451 1115 476 1099 q 406 1151 425 1131 q 367 1187 386 1171 q 322 1203 349 1203 q 258 1104 261 1203 l 174 1104 z "},"Æ":{"ha":833,"x_min":15,"x_max":818,"o":"m 325 972 l 818 972 l 818 875 l 522 875 l 522 553 l 794 553 l 794 456 l 522 456 l 522 97 l 818 97 l 818 0 l 418 0 l 418 456 l 263 456 l 119 0 l 15 0 l 325 972 m 393 875 l 293 553 l 418 553 l 418 875 l 393 875 z "},"Ǽ":{"ha":833,"x_min":15,"x_max":818,"o":"m 325 972 l 818 972 l 818 875 l 522 875 l 522 553 l 794 553 l 794 456 l 522 456 l 522 97 l 818 97 l 818 0 l 418 0 l 418 456 l 263 456 l 119 0 l 15 0 l 325 972 m 393 875 l 293 553 l 418 553 l 418 875 l 393 875 m 371 1089 l 340 1174 l 653 1286 l 683 1201 l 371 1089 z "},"B":{"ha":833,"x_min":108,"x_max":776,"o":"m 590 517 q 726 434 676 501 q 776 268 776 367 q 690 72 776 144 q 456 0 604 0 l 108 0 l 108 986 l 426 986 q 585 954 517 986 q 692 865 653 922 q 731 733 731 808 q 691 592 731 653 q 590 517 651 531 m 213 886 l 213 564 l 446 564 q 574 606 524 564 q 624 717 624 649 q 574 839 624 792 q 446 886 524 886 l 213 886 m 213 465 l 213 97 l 476 97 q 619 147 567 97 q 672 281 672 196 q 615 416 672 367 q 460 465 558 465 l 213 465 z "},"C":{"ha":833,"x_min":68,"x_max":756,"o":"m 431 74 q 647 322 613 74 l 751 322 q 431 -24 708 -25 q 163 113 257 -22 q 68 494 68 247 q 161 878 68 743 q 426 1013 254 1013 q 756 665 710 1013 l 651 665 q 422 915 621 915 q 242 806 306 915 q 179 494 179 697 q 244 183 179 293 q 431 74 310 74 z "},"Ć":{"ha":833,"x_min":68,"x_max":756,"o":"m 431 74 q 647 322 613 74 l 751 322 q 431 -24 708 -25 q 163 113 257 -22 q 68 494 68 247 q 161 878 68 743 q 426 1013 254 1013 q 756 665 710 1013 l 651 665 q 422 915 621 915 q 242 806 306 915 q 179 494 179 697 q 244 183 179 293 q 431 74 310 74 m 331 1089 l 300 1174 l 613 1286 l 643 1201 l 331 1089 z "},"Č":{"ha":833,"x_min":68,"x_max":756,"o":"m 431 74 q 647 322 613 74 l 751 322 q 431 -24 708 -25 q 163 113 257 -22 q 68 494 68 247 q 161 878 68 743 q 426 1013 254 1013 q 756 665 710 1013 l 651 665 q 422 915 621 915 q 242 806 306 915 q 179 494 179 697 q 244 183 179 293 q 431 74 310 74 m 431 1090 l 201 1242 l 251 1317 l 431 1199 l 608 1317 l 658 1242 l 431 1090 z "},"Ç":{"ha":833,"x_min":68,"x_max":756,"o":"m 431 74 q 647 322 613 74 l 751 322 q 431 -24 708 -25 q 163 113 257 -22 q 68 494 68 247 q 161 878 68 743 q 426 1013 254 1013 q 756 665 710 1013 l 651 665 q 422 915 621 915 q 242 806 306 915 q 179 494 179 697 q 244 183 179 293 q 431 74 310 74 m 444 -328 l 307 -328 l 307 -237 l 458 -237 q 508 -190 508 -237 q 458 -147 508 -147 l 364 -147 l 382 43 l 475 43 l 463 -79 l 478 -79 q 566 -108 535 -79 q 597 -190 597 -137 q 557 -291 597 -254 q 444 -328 517 -328 z "},"Ĉ":{"ha":833,"x_min":68,"x_max":756,"o":"m 431 74 q 647 322 613 74 l 751 322 q 431 -24 708 -25 q 163 113 257 -22 q 68 494 68 247 q 161 878 68 743 q 426 1013 254 1013 q 756 665 710 1013 l 651 665 q 422 915 621 915 q 242 806 306 915 q 179 494 179 697 q 244 183 179 293 q 431 74 310 74 m 251 1090 l 201 1165 l 431 1317 l 658 1165 l 608 1090 l 431 1208 l 251 1090 z "},"Ċ":{"ha":833,"x_min":68,"x_max":756,"o":"m 431 74 q 647 322 613 74 l 751 322 q 431 -24 708 -25 q 163 113 257 -22 q 68 494 68 247 q 161 878 68 743 q 426 1013 254 1013 q 756 665 710 1013 l 651 665 q 422 915 621 915 q 242 806 306 915 q 179 494 179 697 q 244 183 179 293 q 431 74 310 74 m 364 1104 l 364 1236 l 496 1236 l 496 1104 l 364 1104 z "},"D":{"ha":833,"x_min":115,"x_max":786,"o":"m 376 0 l 115 0 l 115 986 l 376 986 q 688 868 590 986 q 786 493 786 750 q 688 118 786 236 q 376 0 590 0 m 219 882 l 219 104 l 376 104 q 609 197 536 104 q 682 493 682 290 q 609 789 682 696 q 376 882 536 882 l 219 882 z "},"Ð":{"ha":833,"x_min":13,"x_max":786,"o":"m 115 453 l 13 453 l 13 550 l 115 550 l 115 986 l 376 986 q 688 868 590 986 q 786 493 786 750 q 688 118 786 236 q 376 0 590 0 l 115 0 l 115 453 m 219 453 l 219 97 l 376 97 q 609 192 536 97 q 682 493 682 288 q 609 794 682 700 q 376 889 536 889 l 219 889 l 219 550 l 346 550 l 346 453 l 219 453 z "},"Ď":{"ha":833,"x_min":115,"x_max":786,"o":"m 376 0 l 115 0 l 115 986 l 376 986 q 688 868 590 986 q 786 493 786 750 q 688 118 786 236 q 376 0 590 0 m 219 882 l 219 104 l 376 104 q 609 197 536 104 q 682 493 682 290 q 609 789 682 696 q 376 882 536 882 l 219 882 m 417 1090 l 188 1242 l 238 1317 l 417 1199 l 594 1317 l 644 1242 l 417 1090 z "},"Đ":{"ha":833,"x_min":13,"x_max":786,"o":"m 115 453 l 13 453 l 13 550 l 115 550 l 115 986 l 376 986 q 688 868 590 986 q 786 493 786 750 q 688 118 786 236 q 376 0 590 0 l 115 0 l 115 453 m 219 453 l 219 97 l 376 97 q 609 192 536 97 q 682 493 682 288 q 609 794 682 700 q 376 889 536 889 l 219 889 l 219 550 l 346 550 l 346 453 l 219 453 z "},"E":{"ha":833,"x_min":126,"x_max":736,"o":"m 126 0 l 126 986 l 736 986 l 736 889 l 231 889 l 231 571 l 713 571 l 713 467 l 231 467 l 231 97 l 736 97 l 736 0 l 126 0 z "},"É":{"ha":833,"x_min":126,"x_max":736,"o":"m 126 0 l 126 986 l 736 986 l 736 889 l 231 889 l 231 571 l 713 571 l 713 467 l 231 467 l 231 97 l 736 97 l 736 0 l 126 0 m 344 1089 l 314 1174 l 626 1286 l 657 1201 l 344 1089 z "},"Ĕ":{"ha":833,"x_min":126,"x_max":736,"o":"m 126 0 l 126 986 l 736 986 l 736 889 l 231 889 l 231 571 l 713 571 l 713 467 l 231 467 l 231 97 l 736 97 l 736 0 l 126 0 m 215 1267 l 306 1267 q 328 1219 306 1239 q 383 1190 350 1200 q 444 1181 415 1181 q 506 1190 474 1181 q 560 1219 538 1200 q 582 1267 582 1239 l 672 1267 q 640 1173 672 1213 q 555 1112 607 1133 q 444 1090 503 1090 q 335 1112 388 1090 q 249 1173 282 1133 q 215 1267 215 1213 z "},"Ě":{"ha":833,"x_min":126,"x_max":736,"o":"m 126 0 l 126 986 l 736 986 l 736 889 l 231 889 l 231 571 l 713 571 l 713 467 l 231 467 l 231 97 l 736 97 l 736 0 l 126 0 m 444 1090 l 215 1242 l 265 1317 l 444 1199 l 622 1317 l 672 1242 l 444 1090 z "},"Ê":{"ha":833,"x_min":126,"x_max":736,"o":"m 126 0 l 126 986 l 736 986 l 736 889 l 231 889 l 231 571 l 713 571 l 713 467 l 231 467 l 231 97 l 736 97 l 736 0 l 126 0 m 265 1090 l 215 1165 l 444 1317 l 672 1165 l 622 1090 l 444 1208 l 265 1090 z "},"Ë":{"ha":833,"x_min":126,"x_max":736,"o":"m 126 0 l 126 986 l 736 986 l 736 889 l 231 889 l 231 571 l 713 571 l 713 467 l 231 467 l 231 97 l 736 97 l 736 0 l 126 0 m 376 1104 l 258 1104 l 258 1222 l 376 1222 l 376 1104 m 631 1104 l 513 1104 l 513 1222 l 631 1222 l 631 1104 z "},"Ė":{"ha":833,"x_min":126,"x_max":736,"o":"m 126 0 l 126 986 l 736 986 l 736 889 l 231 889 l 231 571 l 713 571 l 713 467 l 231 467 l 231 97 l 736 97 l 736 0 l 126 0 m 378 1104 l 378 1236 l 510 1236 l 510 1104 l 378 1104 z "},"È":{"ha":833,"x_min":126,"x_max":736,"o":"m 126 0 l 126 986 l 736 986 l 736 889 l 231 889 l 231 571 l 713 571 l 713 467 l 231 467 l 231 97 l 736 97 l 736 0 l 126 0 m 263 1286 l 575 1174 l 544 1089 l 232 1201 l 263 1286 z "},"Ē":{"ha":833,"x_min":126,"x_max":736,"o":"m 126 0 l 126 986 l 736 986 l 736 889 l 231 889 l 231 571 l 713 571 l 713 467 l 231 467 l 231 97 l 736 97 l 736 0 l 126 0 m 653 1104 l 236 1104 l 236 1201 l 653 1201 l 653 1104 z "},"Ę":{"ha":833,"x_min":126,"x_max":736,"o":"m 726 -282 l 638 -282 q 546 -255 579 -282 q 513 -178 513 -228 q 521 -132 513 -153 q 549 -89 529 -111 l 632 0 l 126 0 l 126 986 l 736 986 l 736 889 l 231 889 l 231 571 l 713 571 l 713 467 l 231 467 l 231 97 l 736 97 l 736 0 l 626 -117 q 615 -132 619 -124 q 610 -151 610 -140 q 651 -186 610 -186 l 726 -186 l 726 -282 z "},"F":{"ha":833,"x_min":138,"x_max":736,"o":"m 242 493 l 242 0 l 138 0 l 138 986 l 736 986 l 736 889 l 242 889 l 242 590 l 713 590 l 713 493 l 242 493 z "},"G":{"ha":833,"x_min":21,"x_max":733,"o":"m 642 665 q 565 848 631 781 q 396 915 499 915 q 195 806 265 915 q 125 494 125 697 q 199 183 125 293 q 407 74 272 74 q 578 164 515 74 q 642 410 642 254 l 642 426 l 358 426 l 358 524 l 733 524 l 733 -18 l 636 -18 l 636 11 l 638 96 q 536 8 603 40 q 396 -24 469 -25 q 118 113 215 -22 q 21 494 21 247 q 118 877 21 743 q 396 1013 215 1011 q 632 924 543 1014 q 733 665 721 833 l 642 665 z "},"Ğ":{"ha":833,"x_min":21,"x_max":733,"o":"m 642 665 q 565 848 631 781 q 396 915 499 915 q 195 806 265 915 q 125 494 125 697 q 199 183 125 293 q 407 74 272 74 q 578 164 515 74 q 642 410 642 254 l 642 426 l 358 426 l 358 524 l 733 524 l 733 -18 l 636 -18 l 636 11 l 638 96 q 536 8 603 40 q 396 -24 469 -25 q 118 113 215 -22 q 21 494 21 247 q 118 877 21 743 q 396 1013 215 1011 q 632 924 543 1014 q 733 665 721 833 l 642 665 m 167 1267 l 257 1267 q 279 1219 257 1239 q 334 1190 301 1200 q 396 1181 367 1181 q 457 1190 425 1181 q 511 1219 489 1200 q 533 1267 533 1239 l 624 1267 q 591 1173 624 1213 q 506 1112 558 1133 q 396 1090 454 1090 q 286 1112 339 1090 q 200 1173 233 1133 q 167 1267 167 1213 z "},"Ĝ":{"ha":833,"x_min":21,"x_max":733,"o":"m 642 665 q 565 848 631 781 q 396 915 499 915 q 195 806 265 915 q 125 494 125 697 q 199 183 125 293 q 407 74 272 74 q 578 164 515 74 q 642 410 642 254 l 642 426 l 358 426 l 358 524 l 733 524 l 733 -18 l 636 -18 l 636 11 l 638 96 q 536 8 603 40 q 396 -24 469 -25 q 118 113 215 -22 q 21 494 21 247 q 118 877 21 743 q 396 1013 215 1011 q 632 924 543 1014 q 733 665 721 833 l 642 665 m 217 1090 l 167 1165 l 396 1317 l 624 1165 l 574 1090 l 396 1208 l 217 1090 z "},"Ģ":{"ha":833,"x_min":21,"x_max":733,"o":"m 642 665 q 565 848 631 781 q 396 915 499 915 q 195 806 265 915 q 125 494 125 697 q 199 183 125 293 q 407 74 272 74 q 578 164 515 74 q 642 410 642 254 l 642 426 l 358 426 l 358 524 l 733 524 l 733 -18 l 636 -18 l 636 11 l 638 96 q 536 8 603 40 q 396 -24 469 -25 q 118 113 215 -22 q 21 494 21 247 q 118 877 21 743 q 396 1013 215 1011 q 632 924 543 1014 q 733 665 721 833 l 642 665 m 286 -385 l 286 -315 l 406 -317 l 406 -257 l 303 -257 l 303 -111 l 479 -111 l 479 -386 l 286 -385 z "},"Ġ":{"ha":833,"x_min":21,"x_max":733,"o":"m 642 665 q 565 848 631 781 q 396 915 499 915 q 195 806 265 915 q 125 494 125 697 q 199 183 125 293 q 407 74 272 74 q 578 164 515 74 q 642 410 642 254 l 642 426 l 358 426 l 358 524 l 733 524 l 733 -18 l 636 -18 l 636 11 l 638 96 q 536 8 603 40 q 396 -24 469 -25 q 118 113 215 -22 q 21 494 21 247 q 118 877 21 743 q 396 1013 215 1011 q 632 924 543 1014 q 733 665 721 833 l 642 665 m 329 1104 l 329 1236 l 461 1236 l 461 1104 l 329 1104 z "},"H":{"ha":833,"x_min":99,"x_max":735,"o":"m 629 986 l 733 986 l 735 0 l 631 0 l 631 493 l 203 493 l 203 0 l 99 0 l 99 986 l 203 986 l 203 590 l 629 590 l 629 986 z "},"Ħ":{"ha":833,"x_min":6,"x_max":828,"o":"m 203 493 l 203 0 l 99 0 l 99 799 l 6 799 l 6 896 l 99 896 l 99 986 l 203 986 l 203 896 l 629 896 l 629 986 l 733 986 l 733 896 l 828 896 l 828 799 l 733 799 l 735 0 l 631 0 l 631 493 l 203 493 m 203 590 l 629 590 l 629 799 l 203 799 l 203 590 z "},"Ĥ":{"ha":833,"x_min":99,"x_max":735,"o":"m 629 986 l 733 986 l 735 0 l 631 0 l 631 493 l 203 493 l 203 0 l 99 0 l 99 986 l 203 986 l 203 590 l 629 590 l 629 986 m 238 1090 l 188 1165 l 417 1317 l 644 1165 l 594 1090 l 417 1208 l 238 1090 z "},"I":{"ha":833,"x_min":82,"x_max":751,"o":"m 751 0 l 82 0 l 82 97 l 360 97 l 360 889 l 82 889 l 82 986 l 751 986 l 751 889 l 464 889 l 464 97 l 751 97 l 751 0 z "},"Ĳ":{"ha":833,"x_min":-46,"x_max":829,"o":"m 560 0 l -46 0 l -46 97 l 121 97 l 121 889 l -18 889 l -18 986 l 388 986 l 388 889 l 225 889 l 225 97 l 540 97 q 655 113 615 97 q 710 163 694 129 q 725 253 725 197 l 725 889 l 468 889 l 468 986 l 829 986 l 829 239 q 760 56 829 113 q 560 0 690 0 z "},"Í":{"ha":833,"x_min":82,"x_max":751,"o":"m 751 0 l 82 0 l 82 97 l 360 97 l 360 889 l 82 889 l 82 986 l 751 986 l 751 889 l 464 889 l 464 97 l 751 97 l 751 0 m 317 1089 l 286 1174 l 599 1286 l 629 1201 l 317 1089 z "},"Ĭ":{"ha":833,"x_min":82,"x_max":751,"o":"m 751 0 l 82 0 l 82 97 l 360 97 l 360 889 l 82 889 l 82 986 l 751 986 l 751 889 l 464 889 l 464 97 l 751 97 l 751 0 m 188 1267 l 278 1267 q 300 1219 278 1239 q 355 1190 322 1200 q 417 1181 388 1181 q 478 1190 446 1181 q 532 1219 510 1200 q 554 1267 554 1239 l 644 1267 q 612 1173 644 1213 q 527 1112 579 1133 q 417 1090 475 1090 q 307 1112 360 1090 q 221 1173 254 1133 q 188 1267 188 1213 z "},"Ǐ":{"ha":833,"x_min":82,"x_max":751,"o":"m 751 0 l 82 0 l 82 97 l 360 97 l 360 889 l 82 889 l 82 986 l 751 986 l 751 889 l 464 889 l 464 97 l 751 97 l 751 0 m 417 1090 l 188 1242 l 238 1317 l 417 1199 l 594 1317 l 644 1242 l 417 1090 z "},"Î":{"ha":833,"x_min":82,"x_max":751,"o":"m 751 0 l 82 0 l 82 97 l 360 97 l 360 889 l 82 889 l 82 986 l 751 986 l 751 889 l 464 889 l 464 97 l 751 97 l 751 0 m 238 1090 l 188 1165 l 417 1317 l 644 1165 l 594 1090 l 417 1208 l 238 1090 z "},"Ï":{"ha":833,"x_min":82,"x_max":751,"o":"m 751 0 l 82 0 l 82 97 l 360 97 l 360 889 l 82 889 l 82 986 l 751 986 l 751 889 l 464 889 l 464 97 l 751 97 l 751 0 m 349 1104 l 231 1104 l 231 1222 l 349 1222 l 349 1104 m 603 1104 l 485 1104 l 485 1222 l 603 1222 l 603 1104 z "},"İ":{"ha":833,"x_min":82,"x_max":751,"o":"m 751 0 l 82 0 l 82 97 l 360 97 l 360 889 l 82 889 l 82 986 l 751 986 l 751 889 l 464 889 l 464 97 l 751 97 l 751 0 m 350 1104 l 350 1236 l 482 1236 l 482 1104 l 350 1104 z "},"Ì":{"ha":833,"x_min":82,"x_max":751,"o":"m 751 0 l 82 0 l 82 97 l 360 97 l 360 889 l 82 889 l 82 986 l 751 986 l 751 889 l 464 889 l 464 97 l 751 97 l 751 0 m 235 1286 l 547 1174 l 517 1089 l 204 1201 l 235 1286 z "},"Ī":{"ha":833,"x_min":82,"x_max":751,"o":"m 751 0 l 82 0 l 82 97 l 360 97 l 360 889 l 82 889 l 82 986 l 751 986 l 751 889 l 464 889 l 464 97 l 751 97 l 751 0 m 625 1104 l 208 1104 l 208 1201 l 625 1201 l 625 1104 z "},"Į":{"ha":833,"x_min":82,"x_max":751,"o":"m 751 0 l 82 0 l 82 97 l 360 97 l 360 889 l 82 889 l 82 986 l 751 986 l 751 889 l 464 889 l 464 97 l 751 97 l 751 0 m 482 -282 l 393 -282 q 301 -255 335 -282 q 268 -178 268 -228 q 278 -133 268 -153 q 304 -89 289 -114 l 360 0 l 464 0 l 390 -117 q 379 -133 385 -126 q 374 -151 374 -140 q 415 -186 374 -186 l 482 -186 l 482 -282 z "},"Ĩ":{"ha":833,"x_min":82,"x_max":751,"o":"m 751 0 l 82 0 l 82 97 l 360 97 l 360 889 l 82 889 l 82 986 l 751 986 l 751 889 l 464 889 l 464 97 l 751 97 l 751 0 m 174 1104 q 213 1238 174 1189 q 317 1286 253 1286 q 386 1269 358 1286 q 433 1232 414 1253 q 471 1196 453 1211 q 511 1181 489 1181 q 558 1206 540 1181 q 576 1278 575 1231 l 660 1278 q 619 1147 660 1196 q 515 1099 579 1099 q 451 1115 476 1099 q 406 1151 425 1131 q 367 1187 386 1171 q 322 1203 349 1203 q 258 1104 261 1203 l 174 1104 z "},"J":{"ha":833,"x_min":50,"x_max":656,"o":"m 307 986 l 656 986 l 656 222 q 586 40 656 96 q 386 -17 517 -17 l 50 -17 l 50 81 l 367 81 q 481 97 442 81 q 536 147 521 113 q 551 236 551 181 l 551 889 l 307 889 l 307 986 z "},"Ĵ":{"ha":833,"x_min":50,"x_max":825,"o":"m 307 986 l 656 986 l 656 222 q 586 40 656 96 q 386 -17 517 -17 l 50 -17 l 50 81 l 367 81 q 481 97 442 81 q 536 147 521 113 q 551 236 551 181 l 551 889 l 307 889 l 307 986 m 418 1090 l 368 1165 l 597 1317 l 825 1165 l 775 1090 l 597 1208 l 418 1090 z "},"K":{"ha":833,"x_min":100,"x_max":810,"o":"m 204 1 l 100 1 l 100 985 l 204 985 l 204 515 l 604 986 l 729 986 l 418 613 l 810 0 l 683 0 l 350 531 l 204 354 l 204 1 z "},"Ķ":{"ha":833,"x_min":100,"x_max":810,"o":"m 204 1 l 100 1 l 100 985 l 204 985 l 204 515 l 604 986 l 729 986 l 418 613 l 810 0 l 683 0 l 350 531 l 204 354 l 204 1 m 314 -385 l 314 -315 l 433 -317 l 433 -257 l 331 -257 l 331 -111 l 507 -111 l 507 -386 l 314 -385 z "},"L":{"ha":833,"x_min":153,"x_max":756,"o":"m 756 0 l 154 0 l 153 986 l 257 986 l 257 97 l 756 97 l 756 0 z "},"Ĺ":{"ha":833,"x_min":74,"x_max":756,"o":"m 756 0 l 154 0 l 153 986 l 257 986 l 257 97 l 756 97 l 756 0 m 104 1089 l 74 1174 l 386 1286 l 417 1201 l 104 1089 z "},"Ľ":{"ha":833,"x_min":-25,"x_max":756,"o":"m 756 0 l 154 0 l 153 986 l 257 986 l 257 97 l 756 97 l 756 0 m 204 1090 l -25 1242 l 25 1317 l 204 1199 l 382 1317 l 432 1242 l 204 1090 z "},"Ļ":{"ha":833,"x_min":153,"x_max":756,"o":"m 756 0 l 154 0 l 153 986 l 257 986 l 257 97 l 756 97 l 756 0 m 376 -385 l 376 -315 l 496 -317 l 496 -257 l 393 -257 l 393 -111 l 569 -111 l 569 -386 l 376 -385 z "},"Ł":{"ha":833,"x_min":-60,"x_max":797,"o":"m 113 393 l -8 317 l -60 399 l 111 508 l 111 986 l 215 986 l 215 574 l 394 688 l 447 606 l 215 458 l 215 97 l 797 97 l 797 0 l 113 0 l 113 393 z "},"M":{"ha":833,"x_min":82,"x_max":751,"o":"m 82 0 l 82 986 l 750 986 l 751 0 l 647 0 l 646 889 l 468 889 l 468 0 l 364 0 l 364 889 l 186 889 l 186 0 l 82 0 z "},"N":{"ha":833,"x_min":99,"x_max":735,"o":"m 99 0 l 99 986 l 733 986 l 735 0 l 631 0 l 629 889 l 203 889 l 203 0 l 99 0 z "},"Ń":{"ha":833,"x_min":99,"x_max":735,"o":"m 99 0 l 99 986 l 733 986 l 735 0 l 631 0 l 629 889 l 203 889 l 203 0 l 99 0 m 317 1089 l 286 1174 l 599 1286 l 629 1201 l 317 1089 z "},"Ň":{"ha":833,"x_min":99,"x_max":735,"o":"m 99 0 l 99 986 l 733 986 l 735 0 l 631 0 l 629 889 l 203 889 l 203 0 l 99 0 m 417 1090 l 188 1242 l 238 1317 l 417 1199 l 594 1317 l 644 1242 l 417 1090 z "},"Ņ":{"ha":833,"x_min":99,"x_max":735,"o":"m 99 0 l 99 986 l 733 986 l 735 0 l 631 0 l 629 889 l 203 889 l 203 0 l 99 0 m 307 -385 l 307 -315 l 426 -317 l 426 -257 l 324 -257 l 324 -111 l 500 -111 l 500 -386 l 307 -385 z "},"Ñ":{"ha":833,"x_min":99,"x_max":735,"o":"m 99 0 l 99 986 l 733 986 l 735 0 l 631 0 l 629 889 l 203 889 l 203 0 l 99 0 m 174 1104 q 213 1238 174 1189 q 317 1286 253 1286 q 386 1269 358 1286 q 433 1232 414 1253 q 471 1196 453 1211 q 511 1181 489 1181 q 558 1206 540 1181 q 576 1278 575 1231 l 660 1278 q 619 1147 660 1196 q 515 1099 579 1099 q 451 1115 476 1099 q 406 1151 425 1131 q 367 1187 386 1171 q 322 1203 349 1203 q 258 1104 261 1203 l 174 1104 z "},"Ŋ":{"ha":833,"x_min":99,"x_max":735,"o":"m 99 0 l 99 986 l 733 986 l 735 -157 l 735 -254 l 504 -254 l 504 -157 l 631 -157 l 629 889 l 203 889 l 203 0 l 99 0 z "},"O":{"ha":833,"x_min":43,"x_max":764,"o":"m 43 493 q 137 875 43 742 q 404 1010 231 1008 q 671 877 578 1011 q 764 493 764 743 q 671 109 764 243 q 404 -24 578 -25 q 137 112 231 -22 q 43 493 43 246 m 660 493 q 594 804 660 696 q 404 913 528 913 q 214 804 281 913 q 147 493 147 696 q 214 183 147 292 q 404 74 281 74 q 594 183 528 74 q 660 493 660 292 z "},"Ó":{"ha":833,"x_min":43,"x_max":764,"o":"m 43 493 q 137 875 43 742 q 404 1010 231 1008 q 671 877 578 1011 q 764 493 764 743 q 671 109 764 243 q 404 -24 578 -25 q 137 112 231 -22 q 43 493 43 246 m 660 493 q 594 804 660 696 q 404 913 528 913 q 214 804 281 913 q 147 493 147 696 q 214 183 147 292 q 404 74 281 74 q 594 183 528 74 q 660 493 660 292 m 317 1089 l 286 1174 l 599 1286 l 629 1201 l 317 1089 z "},"Ŏ":{"ha":833,"x_min":43,"x_max":764,"o":"m 43 493 q 137 875 43 742 q 404 1010 231 1008 q 671 877 578 1011 q 764 493 764 743 q 671 109 764 243 q 404 -24 578 -25 q 137 112 231 -22 q 43 493 43 246 m 660 493 q 594 804 660 696 q 404 913 528 913 q 214 804 281 913 q 147 493 147 696 q 214 183 147 292 q 404 74 281 74 q 594 183 528 74 q 660 493 660 292 m 188 1267 l 278 1267 q 300 1219 278 1239 q 355 1190 322 1200 q 417 1181 388 1181 q 478 1190 446 1181 q 532 1219 510 1200 q 554 1267 554 1239 l 644 1267 q 612 1173 644 1213 q 527 1112 579 1133 q 417 1090 475 1090 q 307 1112 360 1090 q 221 1173 254 1133 q 188 1267 188 1213 z "},"Ǒ":{"ha":833,"x_min":43,"x_max":764,"o":"m 43 493 q 137 875 43 742 q 404 1010 231 1008 q 671 877 578 1011 q 764 493 764 743 q 671 109 764 243 q 404 -24 578 -25 q 137 112 231 -22 q 43 493 43 246 m 660 493 q 594 804 660 696 q 404 913 528 913 q 214 804 281 913 q 147 493 147 696 q 214 183 147 292 q 404 74 281 74 q 594 183 528 74 q 660 493 660 292 m 417 1090 l 188 1242 l 238 1317 l 417 1199 l 594 1317 l 644 1242 l 417 1090 z "},"Ô":{"ha":833,"x_min":43,"x_max":764,"o":"m 43 493 q 137 875 43 742 q 404 1010 231 1008 q 671 877 578 1011 q 764 493 764 743 q 671 109 764 243 q 404 -24 578 -25 q 137 112 231 -22 q 43 493 43 246 m 660 493 q 594 804 660 696 q 404 913 528 913 q 214 804 281 913 q 147 493 147 696 q 214 183 147 292 q 404 74 281 74 q 594 183 528 74 q 660 493 660 292 m 238 1090 l 188 1165 l 417 1317 l 644 1165 l 594 1090 l 417 1208 l 238 1090 z "},"Ö":{"ha":833,"x_min":43,"x_max":764,"o":"m 43 493 q 137 875 43 742 q 404 1010 231 1008 q 671 877 578 1011 q 764 493 764 743 q 671 109 764 243 q 404 -24 578 -25 q 137 112 231 -22 q 43 493 43 246 m 660 493 q 594 804 660 696 q 404 913 528 913 q 214 804 281 913 q 147 493 147 696 q 214 183 147 292 q 404 74 281 74 q 594 183 528 74 q 660 493 660 292 m 349 1104 l 231 1104 l 231 1222 l 349 1222 l 349 1104 m 603 1104 l 485 1104 l 485 1222 l 603 1222 l 603 1104 z "},"Ò":{"ha":833,"x_min":43,"x_max":764,"o":"m 43 493 q 137 875 43 742 q 404 1010 231 1008 q 671 877 578 1011 q 764 493 764 743 q 671 109 764 243 q 404 -24 578 -25 q 137 112 231 -22 q 43 493 43 246 m 660 493 q 594 804 660 696 q 404 913 528 913 q 214 804 281 913 q 147 493 147 696 q 214 183 147 292 q 404 74 281 74 q 594 183 528 74 q 660 493 660 292 m 235 1286 l 547 1174 l 517 1089 l 204 1201 l 235 1286 z "},"Ő":{"ha":833,"x_min":43,"x_max":764,"o":"m 43 493 q 137 875 43 742 q 404 1010 231 1008 q 671 877 578 1011 q 764 493 764 743 q 671 109 764 243 q 404 -24 578 -25 q 137 112 231 -22 q 43 493 43 246 m 660 493 q 594 804 660 696 q 404 913 528 913 q 214 804 281 913 q 147 493 147 696 q 214 183 147 292 q 404 74 281 74 q 594 183 528 74 q 660 493 660 292 m 301 1090 l 233 1142 l 371 1331 l 446 1272 l 301 1090 m 531 1090 l 461 1142 l 599 1331 l 675 1272 l 531 1090 z "},"Ō":{"ha":833,"x_min":43,"x_max":764,"o":"m 43 493 q 137 875 43 742 q 404 1010 231 1008 q 671 877 578 1011 q 764 493 764 743 q 671 109 764 243 q 404 -24 578 -25 q 137 112 231 -22 q 43 493 43 246 m 660 493 q 594 804 660 696 q 404 913 528 913 q 214 804 281 913 q 147 493 147 696 q 214 183 147 292 q 404 74 281 74 q 594 183 528 74 q 660 493 660 292 m 625 1104 l 208 1104 l 208 1201 l 625 1201 l 625 1104 z "},"Ø":{"ha":833,"x_min":71,"x_max":764,"o":"m 603 1001 l 706 1001 l 660 901 q 764 479 764 771 q 418 -18 764 -19 q 333 -9 372 -18 q 260 17 293 0 l 249 -7 l 146 -7 l 183 75 q 71 479 71 199 q 418 1010 71 1010 q 588 967 518 1010 l 603 1001 m 175 479 q 232 185 175 283 l 544 872 q 418 913 492 913 q 175 479 175 913 m 301 110 q 418 79 350 79 q 660 479 660 79 q 608 788 660 681 l 301 110 z "},"Ǿ":{"ha":833,"x_min":71,"x_max":764,"o":"m 603 1001 l 706 1001 l 660 901 q 764 479 764 771 q 418 -18 764 -19 q 333 -9 372 -18 q 260 17 293 0 l 249 -7 l 146 -7 l 183 75 q 71 479 71 199 q 418 1010 71 1010 q 588 967 518 1010 l 603 1001 m 175 479 q 232 185 175 283 l 544 872 q 418 913 492 913 q 175 479 175 913 m 301 110 q 418 79 350 79 q 660 479 660 79 q 608 788 660 681 l 301 110 m 317 1089 l 286 1174 l 599 1286 l 629 1201 l 317 1089 z "},"Õ":{"ha":833,"x_min":43,"x_max":764,"o":"m 43 493 q 137 875 43 742 q 404 1010 231 1008 q 671 877 578 1011 q 764 493 764 743 q 671 109 764 243 q 404 -24 578 -25 q 137 112 231 -22 q 43 493 43 246 m 660 493 q 594 804 660 696 q 404 913 528 913 q 214 804 281 913 q 147 493 147 696 q 214 183 147 292 q 404 74 281 74 q 594 183 528 74 q 660 493 660 292 m 174 1104 q 213 1238 174 1189 q 317 1286 253 1286 q 386 1269 358 1286 q 433 1232 414 1253 q 471 1196 453 1211 q 511 1181 489 1181 q 558 1206 540 1181 q 576 1278 575 1231 l 660 1278 q 619 1147 660 1196 q 515 1099 579 1099 q 451 1115 476 1099 q 406 1151 425 1131 q 367 1187 386 1171 q 322 1203 349 1203 q 258 1104 261 1203 l 174 1104 z "},"Œ":{"ha":833,"x_min":29,"x_max":797,"o":"m 29 479 q 368 1010 29 1001 l 797 1010 l 797 913 l 472 913 l 472 535 l 797 535 l 797 438 l 472 438 l 472 79 l 797 79 l 797 -18 l 368 -18 q 29 479 29 -12 m 133 479 q 368 79 133 88 l 368 913 q 133 479 133 904 z "},"P":{"ha":833,"x_min":119,"x_max":781,"o":"m 224 8 l 119 8 l 119 986 l 506 986 q 709 917 638 986 q 781 714 781 849 q 709 517 781 586 q 506 447 638 447 l 224 447 l 224 8 m 224 889 l 224 544 l 506 544 q 633 588 590 543 q 676 714 676 632 q 632 845 676 801 q 506 889 588 889 l 224 889 z "},"Þ":{"ha":833,"x_min":119,"x_max":781,"o":"m 224 8 l 119 8 l 119 986 l 224 986 l 224 824 l 506 824 q 709 755 638 824 q 781 551 781 686 q 709 354 781 424 q 506 285 638 285 l 224 285 l 224 8 m 224 726 l 224 382 l 506 382 q 635 425 590 381 q 676 551 679 469 q 632 683 676 639 q 506 726 588 726 l 224 726 z "},"Q":{"ha":833,"x_min":57,"x_max":778,"o":"m 57 494 q 151 877 57 743 q 418 1013 244 1011 q 685 879 592 1014 q 778 494 778 744 q 700 134 778 267 q 476 -19 622 1 l 476 -157 l 683 -157 l 683 -254 l 372 -254 l 372 -21 q 139 131 221 -1 q 57 494 57 264 m 674 494 q 608 806 674 697 q 418 915 542 915 q 228 806 294 915 q 161 494 161 697 q 228 183 161 293 q 418 74 294 74 q 608 183 542 74 q 674 494 674 293 z "},"R":{"ha":833,"x_min":107,"x_max":781,"o":"m 781 0 l 647 0 l 400 447 l 211 447 l 211 0 l 107 0 l 107 986 l 479 986 q 683 916 611 986 q 754 714 754 846 q 697 532 754 600 q 532 450 639 464 l 781 0 m 211 889 l 211 544 l 479 544 q 608 588 564 544 q 650 714 653 632 q 606 844 650 799 q 479 889 561 889 l 211 889 z "},"Ŕ":{"ha":833,"x_min":107,"x_max":781,"o":"m 781 0 l 647 0 l 400 447 l 211 447 l 211 0 l 107 0 l 107 986 l 479 986 q 683 916 611 986 q 754 714 754 846 q 697 532 754 600 q 532 450 639 464 l 781 0 m 211 889 l 211 544 l 479 544 q 608 588 564 544 q 650 714 653 632 q 606 844 650 799 q 479 889 561 889 l 211 889 m 303 1089 l 272 1174 l 585 1286 l 615 1201 l 303 1089 z "},"Ř":{"ha":833,"x_min":107,"x_max":781,"o":"m 781 0 l 647 0 l 400 447 l 211 447 l 211 0 l 107 0 l 107 986 l 479 986 q 683 916 611 986 q 754 714 754 846 q 697 532 754 600 q 532 450 639 464 l 781 0 m 211 889 l 211 544 l 479 544 q 608 588 564 544 q 650 714 653 632 q 606 844 650 799 q 479 889 561 889 l 211 889 m 403 1090 l 174 1242 l 224 1317 l 403 1199 l 581 1317 l 631 1242 l 403 1090 z "},"Ŗ":{"ha":833,"x_min":107,"x_max":781,"o":"m 781 0 l 647 0 l 400 447 l 211 447 l 211 0 l 107 0 l 107 986 l 479 986 q 683 916 611 986 q 754 714 754 846 q 697 532 754 600 q 532 450 639 464 l 781 0 m 211 889 l 211 544 l 479 544 q 608 588 564 544 q 650 714 653 632 q 606 844 650 799 q 479 889 561 889 l 211 889 m 307 -385 l 307 -315 l 426 -317 l 426 -257 l 324 -257 l 324 -111 l 500 -111 l 500 -386 l 307 -385 z "},"S":{"ha":833,"x_min":65,"x_max":756,"o":"m 413 -12 q 228 31 306 -12 q 108 153 150 74 q 65 339 65 232 l 169 339 q 201 210 169 267 q 286 120 232 153 q 411 85 340 88 q 538 108 482 83 q 624 178 593 133 q 650 281 654 224 q 467 458 646 394 l 319 511 q 153 603 207 551 q 94 728 100 656 q 128 874 89 810 q 242 976 168 939 q 408 1010 315 1013 q 642 924 553 1006 q 739 708 732 843 l 635 708 q 565 853 629 796 q 407 913 501 911 q 297 893 344 915 q 222 830 249 871 q 199 738 196 789 q 240 669 201 699 q 361 607 279 639 l 513 550 q 751 296 743 463 q 711 140 756 210 q 589 28 667 69 q 413 -12 511 -12 z "},"Ś":{"ha":833,"x_min":65,"x_max":756,"o":"m 413 -12 q 228 31 306 -12 q 108 153 150 74 q 65 339 65 232 l 169 339 q 201 210 169 267 q 286 120 232 153 q 411 85 340 88 q 538 108 482 83 q 624 178 593 133 q 650 281 654 224 q 467 458 646 394 l 319 511 q 153 603 207 551 q 94 728 100 656 q 128 874 89 810 q 242 976 168 939 q 408 1010 315 1013 q 642 924 553 1006 q 739 708 732 843 l 635 708 q 565 853 629 796 q 407 913 501 911 q 297 893 344 915 q 222 830 249 871 q 199 738 196 789 q 240 669 201 699 q 361 607 279 639 l 513 550 q 751 296 743 463 q 711 140 756 210 q 589 28 667 69 q 413 -12 511 -12 m 313 1089 l 282 1174 l 594 1286 l 625 1201 l 313 1089 z "},"Š":{"ha":833,"x_min":65,"x_max":756,"o":"m 413 -12 q 228 31 306 -12 q 108 153 150 74 q 65 339 65 232 l 169 339 q 201 210 169 267 q 286 120 232 153 q 411 85 340 88 q 538 108 482 83 q 624 178 593 133 q 650 281 654 224 q 467 458 646 394 l 319 511 q 153 603 207 551 q 94 728 100 656 q 128 874 89 810 q 242 976 168 939 q 408 1010 315 1013 q 642 924 553 1006 q 739 708 732 843 l 635 708 q 565 853 629 796 q 407 913 501 911 q 297 893 344 915 q 222 830 249 871 q 199 738 196 789 q 240 669 201 699 q 361 607 279 639 l 513 550 q 751 296 743 463 q 711 140 756 210 q 589 28 667 69 q 413 -12 511 -12 m 413 1090 l 183 1242 l 233 1317 l 413 1199 l 590 1317 l 640 1242 l 413 1090 z "},"Ş":{"ha":833,"x_min":65,"x_max":756,"o":"m 413 -12 q 228 31 306 -12 q 108 153 150 74 q 65 339 65 232 l 169 339 q 201 210 169 267 q 286 120 232 153 q 411 85 340 88 q 538 108 482 83 q 624 178 593 133 q 650 281 654 224 q 467 458 646 394 l 319 511 q 153 603 207 551 q 94 728 100 656 q 128 874 89 810 q 242 976 168 939 q 408 1010 315 1013 q 642 924 553 1006 q 739 708 732 843 l 635 708 q 565 853 629 796 q 407 913 501 911 q 297 893 344 915 q 222 830 249 871 q 199 738 196 789 q 240 669 201 699 q 361 607 279 639 l 513 550 q 751 296 743 463 q 711 140 756 210 q 589 28 667 69 q 413 -12 511 -12 m 426 -328 l 289 -328 l 289 -237 l 440 -237 q 490 -190 490 -237 q 440 -147 490 -147 l 346 -147 l 364 43 l 457 43 l 444 -79 l 460 -79 q 548 -108 517 -79 q 579 -190 579 -137 q 539 -291 579 -254 q 426 -328 499 -328 z "},"Ŝ":{"ha":833,"x_min":65,"x_max":756,"o":"m 413 -12 q 228 31 306 -12 q 108 153 150 74 q 65 339 65 232 l 169 339 q 201 210 169 267 q 286 120 232 153 q 411 85 340 88 q 538 108 482 83 q 624 178 593 133 q 650 281 654 224 q 467 458 646 394 l 319 511 q 153 603 207 551 q 94 728 100 656 q 128 874 89 810 q 242 976 168 939 q 408 1010 315 1013 q 642 924 553 1006 q 739 708 732 843 l 635 708 q 565 853 629 796 q 407 913 501 911 q 297 893 344 915 q 222 830 249 871 q 199 738 196 789 q 240 669 201 699 q 361 607 279 639 l 513 550 q 751 296 743 463 q 711 140 756 210 q 589 28 667 69 q 413 -12 511 -12 m 233 1090 l 183 1165 l 413 1317 l 640 1165 l 590 1090 l 413 1208 l 233 1090 z "},"Ș":{"ha":833,"x_min":65,"x_max":756,"o":"m 413 -12 q 228 31 306 -12 q 108 153 150 74 q 65 339 65 232 l 169 339 q 201 210 169 267 q 286 120 232 153 q 411 85 340 88 q 538 108 482 83 q 624 178 593 133 q 650 281 654 224 q 467 458 646 394 l 319 511 q 153 603 207 551 q 94 728 100 656 q 128 874 89 810 q 242 976 168 939 q 408 1010 315 1013 q 642 924 553 1006 q 739 708 732 843 l 635 708 q 565 853 629 796 q 407 913 501 911 q 297 893 344 915 q 222 830 249 871 q 199 738 196 789 q 240 669 201 699 q 361 607 279 639 l 513 550 q 751 296 743 463 q 711 140 756 210 q 589 28 667 69 q 413 -12 511 -12 m 303 -385 l 303 -315 l 422 -317 l 422 -257 l 319 -257 l 319 -111 l 496 -111 l 496 -386 l 303 -385 z "},"ẞ":{"ha":833,"x_min":136,"x_max":797,"o":"m 136 986 l 771 986 l 586 574 q 740 467 682 547 q 797 268 797 388 q 711 72 797 144 q 476 0 625 0 l 385 0 l 385 97 l 497 97 q 640 147 588 97 q 693 281 693 196 q 633 436 693 379 q 467 493 572 493 l 467 578 l 606 886 l 240 886 l 240 0 l 136 0 l 136 986 z "},"T":{"ha":833,"x_min":36,"x_max":796,"o":"m 468 0 l 356 0 l 356 889 l 36 889 l 36 986 l 796 986 l 796 889 l 468 889 l 468 0 z "},"Ŧ":{"ha":833,"x_min":36,"x_max":796,"o":"m 363 428 l 144 428 l 144 525 l 363 525 l 363 889 l 36 889 l 36 986 l 796 986 l 796 889 l 467 889 l 467 525 l 689 525 l 689 428 l 467 428 l 467 0 l 363 0 l 363 428 z "},"Ť":{"ha":833,"x_min":36,"x_max":796,"o":"m 468 0 l 356 0 l 356 889 l 36 889 l 36 986 l 796 986 l 796 889 l 468 889 l 468 0 m 417 1090 l 188 1242 l 238 1317 l 417 1199 l 594 1317 l 644 1242 l 417 1090 z "},"Ţ":{"ha":833,"x_min":36,"x_max":796,"o":"m 468 0 l 356 0 l 356 889 l 36 889 l 36 986 l 796 986 l 796 889 l 468 889 l 468 0 m 431 -328 l 293 -328 l 293 -237 l 444 -237 q 494 -190 494 -237 q 444 -147 494 -147 l 350 -147 l 368 43 l 461 43 l 449 -79 l 464 -79 q 552 -108 521 -79 q 583 -190 583 -137 q 543 -291 583 -254 q 431 -328 503 -328 z "},"U":{"ha":833,"x_min":67,"x_max":696,"o":"m 67 239 l 68 694 l 68 986 l 172 986 l 171 254 q 221 140 171 182 q 356 99 271 99 l 590 97 l 592 986 l 696 986 l 694 0 l 336 0 q 197 31 257 0 q 101 115 136 61 q 67 239 67 169 z "},"Ú":{"ha":833,"x_min":67,"x_max":696,"o":"m 67 239 l 68 694 l 68 986 l 172 986 l 171 254 q 221 140 171 182 q 356 99 271 99 l 590 97 l 592 986 l 696 986 l 694 0 l 336 0 q 197 31 257 0 q 101 115 136 61 q 67 239 67 169 m 289 1089 l 258 1174 l 571 1286 l 601 1201 l 289 1089 z "},"Ŭ":{"ha":833,"x_min":67,"x_max":696,"o":"m 67 239 l 68 694 l 68 986 l 172 986 l 171 254 q 221 140 171 182 q 356 99 271 99 l 590 97 l 592 986 l 696 986 l 694 0 l 336 0 q 197 31 257 0 q 101 115 136 61 q 67 239 67 169 m 160 1267 l 250 1267 q 272 1219 250 1239 q 327 1190 294 1200 q 389 1181 360 1181 q 450 1190 418 1181 q 504 1219 482 1200 q 526 1267 526 1239 l 617 1267 q 584 1173 617 1213 q 499 1112 551 1133 q 389 1090 447 1090 q 279 1112 332 1090 q 193 1173 226 1133 q 160 1267 160 1213 z "},"Ǔ":{"ha":833,"x_min":67,"x_max":696,"o":"m 67 239 l 68 694 l 68 986 l 172 986 l 171 254 q 221 140 171 182 q 356 99 271 99 l 590 97 l 592 986 l 696 986 l 694 0 l 336 0 q 197 31 257 0 q 101 115 136 61 q 67 239 67 169 m 389 1090 l 160 1242 l 210 1317 l 389 1199 l 567 1317 l 617 1242 l 389 1090 z "},"Û":{"ha":833,"x_min":67,"x_max":696,"o":"m 67 239 l 68 694 l 68 986 l 172 986 l 171 254 q 221 140 171 182 q 356 99 271 99 l 590 97 l 592 986 l 696 986 l 694 0 l 336 0 q 197 31 257 0 q 101 115 136 61 q 67 239 67 169 m 210 1090 l 160 1165 l 389 1317 l 617 1165 l 567 1090 l 389 1208 l 210 1090 z "},"Ü":{"ha":833,"x_min":67,"x_max":696,"o":"m 67 239 l 68 694 l 68 986 l 172 986 l 171 254 q 221 140 171 182 q 356 99 271 99 l 590 97 l 592 986 l 696 986 l 694 0 l 336 0 q 197 31 257 0 q 101 115 136 61 q 67 239 67 169 m 321 1104 l 203 1104 l 203 1222 l 321 1222 l 321 1104 m 575 1104 l 457 1104 l 457 1222 l 575 1222 l 575 1104 z "},"Ù":{"ha":833,"x_min":67,"x_max":696,"o":"m 67 239 l 68 694 l 68 986 l 172 986 l 171 254 q 221 140 171 182 q 356 99 271 99 l 590 97 l 592 986 l 696 986 l 694 0 l 336 0 q 197 31 257 0 q 101 115 136 61 q 67 239 67 169 m 207 1286 l 519 1174 l 489 1089 l 176 1201 l 207 1286 z "},"Ű":{"ha":833,"x_min":67,"x_max":696,"o":"m 67 239 l 68 694 l 68 986 l 172 986 l 171 254 q 221 140 171 182 q 356 99 271 99 l 590 97 l 592 986 l 696 986 l 694 0 l 336 0 q 197 31 257 0 q 101 115 136 61 q 67 239 67 169 m 274 1090 l 206 1142 l 343 1331 l 418 1272 l 274 1090 m 503 1090 l 433 1142 l 571 1331 l 647 1272 l 503 1090 z "},"Ū":{"ha":833,"x_min":67,"x_max":696,"o":"m 67 239 l 68 694 l 68 986 l 172 986 l 171 254 q 221 140 171 182 q 356 99 271 99 l 590 97 l 592 986 l 696 986 l 694 0 l 336 0 q 197 31 257 0 q 101 115 136 61 q 67 239 67 169 m 597 1104 l 181 1104 l 181 1201 l 597 1201 l 597 1104 z "},"Ų":{"ha":833,"x_min":67,"x_max":696,"o":"m 67 239 l 68 694 l 68 986 l 172 986 l 171 254 q 221 140 171 182 q 356 99 271 99 l 590 97 l 592 986 l 696 986 l 694 0 l 336 0 q 197 31 257 0 q 101 115 136 61 q 67 239 67 169 m 482 -282 l 393 -282 q 301 -255 335 -282 q 268 -178 268 -228 q 278 -133 268 -153 q 304 -89 289 -114 l 360 0 l 464 0 l 390 -117 q 379 -133 385 -126 q 374 -151 374 -140 q 415 -186 374 -186 l 482 -186 l 482 -282 z "},"Ů":{"ha":833,"x_min":67,"x_max":696,"o":"m 67 239 l 68 694 l 68 986 l 172 986 l 171 254 q 221 140 171 182 q 356 99 271 99 l 590 97 l 592 986 l 696 986 l 694 0 l 336 0 q 197 31 257 0 q 101 115 136 61 q 67 239 67 169 m 238 1242 q 258 1317 238 1283 q 314 1372 279 1351 q 389 1393 349 1393 q 465 1372 431 1393 q 519 1317 499 1351 q 540 1242 540 1283 q 519 1167 540 1201 q 465 1111 499 1132 q 389 1090 431 1090 q 314 1111 349 1090 q 258 1167 279 1132 q 238 1242 238 1201 m 321 1242 q 342 1194 321 1215 q 389 1174 363 1174 q 436 1194 415 1174 q 457 1242 457 1215 q 436 1289 457 1268 q 389 1310 415 1310 q 342 1289 363 1310 q 321 1242 321 1268 z "},"Ũ":{"ha":833,"x_min":67,"x_max":696,"o":"m 67 239 l 68 694 l 68 986 l 172 986 l 171 254 q 221 140 171 182 q 356 99 271 99 l 590 97 l 592 986 l 696 986 l 694 0 l 336 0 q 197 31 257 0 q 101 115 136 61 q 67 239 67 169 m 146 1104 q 185 1238 146 1189 q 289 1286 225 1286 q 358 1269 331 1286 q 406 1232 386 1253 q 443 1196 425 1211 q 483 1181 461 1181 q 530 1206 513 1181 q 549 1278 547 1231 l 632 1278 q 592 1147 632 1196 q 488 1099 551 1099 q 423 1115 449 1099 q 378 1151 397 1131 q 340 1187 358 1171 q 294 1203 321 1203 q 231 1104 233 1203 l 146 1104 z "},"V":{"ha":833,"x_min":21,"x_max":813,"o":"m 465 0 l 368 0 l 368 1 l 363 0 l 21 986 l 142 986 l 417 160 l 692 986 l 813 986 l 471 0 l 465 1 l 465 0 z "},"W":{"ha":833,"x_min":42,"x_max":792,"o":"m 42 986 l 160 986 l 243 271 l 347 860 l 486 860 l 590 271 l 674 986 l 792 986 l 639 0 l 542 0 l 417 661 l 292 0 l 194 0 l 42 986 z "},"Ẃ":{"ha":833,"x_min":42,"x_max":792,"o":"m 42 986 l 160 986 l 243 271 l 347 860 l 486 860 l 590 271 l 674 986 l 792 986 l 639 0 l 542 0 l 417 661 l 292 0 l 194 0 l 42 986 m 317 1089 l 286 1174 l 599 1286 l 629 1201 l 317 1089 z "},"Ŵ":{"ha":833,"x_min":42,"x_max":792,"o":"m 42 986 l 160 986 l 243 271 l 347 860 l 486 860 l 590 271 l 674 986 l 792 986 l 639 0 l 542 0 l 417 661 l 292 0 l 194 0 l 42 986 m 238 1090 l 188 1165 l 417 1317 l 644 1165 l 594 1090 l 417 1208 l 238 1090 z "},"Ẅ":{"ha":833,"x_min":42,"x_max":792,"o":"m 42 986 l 160 986 l 243 271 l 347 860 l 486 860 l 590 271 l 674 986 l 792 986 l 639 0 l 542 0 l 417 661 l 292 0 l 194 0 l 42 986 m 349 1104 l 231 1104 l 231 1222 l 349 1222 l 349 1104 m 603 1104 l 485 1104 l 485 1222 l 603 1222 l 603 1104 z "},"Ẁ":{"ha":833,"x_min":42,"x_max":792,"o":"m 42 986 l 160 986 l 243 271 l 347 860 l 486 860 l 590 271 l 674 986 l 792 986 l 639 0 l 542 0 l 417 661 l 292 0 l 194 0 l 42 986 m 235 1286 l 547 1174 l 517 1089 l 204 1201 l 235 1286 z "},"X":{"ha":833,"x_min":32,"x_max":808,"o":"m 650 986 l 783 986 l 492 514 l 808 1 l 675 1 l 417 433 l 165 1 l 32 1 l 339 514 l 51 986 l 183 986 l 417 593 l 650 986 z "},"Y":{"ha":833,"x_min":44,"x_max":789,"o":"m 474 0 l 361 0 l 361 454 l 44 986 l 169 986 l 417 551 l 664 986 l 789 986 l 474 457 l 474 0 z "},"Ý":{"ha":833,"x_min":44,"x_max":789,"o":"m 474 0 l 361 0 l 361 454 l 44 986 l 169 986 l 417 551 l 664 986 l 789 986 l 474 457 l 474 0 m 317 1089 l 286 1174 l 599 1286 l 629 1201 l 317 1089 z "},"Ŷ":{"ha":833,"x_min":44,"x_max":789,"o":"m 474 0 l 361 0 l 361 454 l 44 986 l 169 986 l 417 551 l 664 986 l 789 986 l 474 457 l 474 0 m 238 1090 l 188 1165 l 417 1317 l 644 1165 l 594 1090 l 417 1208 l 238 1090 z "},"Ÿ":{"ha":833,"x_min":44,"x_max":789,"o":"m 474 0 l 361 0 l 361 454 l 44 986 l 169 986 l 417 551 l 664 986 l 789 986 l 474 457 l 474 0 m 349 1104 l 231 1104 l 231 1222 l 349 1222 l 349 1104 m 603 1104 l 485 1104 l 485 1222 l 603 1222 l 603 1104 z "},"Ỳ":{"ha":833,"x_min":44,"x_max":789,"o":"m 474 0 l 361 0 l 361 454 l 44 986 l 169 986 l 417 551 l 664 986 l 789 986 l 474 457 l 474 0 m 235 1286 l 547 1174 l 517 1089 l 204 1201 l 235 1286 z "},"Z":{"ha":833,"x_min":76,"x_max":757,"o":"m 757 0 l 76 0 l 76 97 l 604 882 l 108 882 l 108 986 l 728 986 l 728 882 l 200 97 l 757 97 l 757 0 z "},"Ź":{"ha":833,"x_min":76,"x_max":757,"o":"m 757 0 l 76 0 l 76 97 l 604 882 l 108 882 l 108 986 l 728 986 l 728 882 l 200 97 l 757 97 l 757 0 m 317 1089 l 286 1174 l 599 1286 l 629 1201 l 317 1089 z "},"Ž":{"ha":833,"x_min":76,"x_max":757,"o":"m 757 0 l 76 0 l 76 97 l 604 882 l 108 882 l 108 986 l 728 986 l 728 882 l 200 97 l 757 97 l 757 0 m 417 1090 l 188 1242 l 238 1317 l 417 1199 l 594 1317 l 644 1242 l 417 1090 z "},"Ż":{"ha":833,"x_min":76,"x_max":757,"o":"m 757 0 l 76 0 l 76 97 l 604 882 l 108 882 l 108 986 l 728 986 l 728 882 l 200 97 l 757 97 l 757 0 m 350 1104 l 350 1236 l 482 1236 l 482 1104 l 350 1104 z "},"a":{"ha":833,"x_min":104,"x_max":692,"o":"m 385 474 q 505 455 450 474 q 581 407 560 436 l 588 397 l 588 597 l 178 597 l 178 694 l 692 694 l 692 0 l 588 0 l 588 65 l 581 58 q 496 3 547 25 q 392 -19 444 -19 q 242 13 307 -19 q 141 101 178 44 q 104 232 104 158 q 140 358 104 303 q 239 443 175 413 q 385 474 303 474 m 208 232 q 260 121 208 164 q 392 78 311 78 q 533 121 478 78 q 588 232 588 164 q 531 336 588 296 q 385 376 475 376 q 258 336 307 376 q 208 232 208 296 z "},"á":{"ha":833,"x_min":104,"x_max":692,"o":"m 385 474 q 505 455 450 474 q 581 407 560 436 l 588 397 l 588 597 l 178 597 l 178 694 l 692 694 l 692 0 l 588 0 l 588 65 l 581 58 q 496 3 547 25 q 392 -19 444 -19 q 242 13 307 -19 q 141 101 178 44 q 104 232 104 158 q 140 358 104 303 q 239 443 175 413 q 385 474 303 474 m 208 232 q 260 121 208 164 q 392 78 311 78 q 533 121 478 78 q 588 232 588 164 q 531 336 588 296 q 385 376 475 376 q 258 336 307 376 q 208 232 208 296 m 335 853 l 304 938 l 617 1050 l 647 965 l 335 853 z "},"ă":{"ha":833,"x_min":104,"x_max":692,"o":"m 385 474 q 505 455 450 474 q 581 407 560 436 l 588 397 l 588 597 l 178 597 l 178 694 l 692 694 l 692 0 l 588 0 l 588 65 l 581 58 q 496 3 547 25 q 392 -19 444 -19 q 242 13 307 -19 q 141 101 178 44 q 104 232 104 158 q 140 358 104 303 q 239 443 175 413 q 385 474 303 474 m 208 232 q 260 121 208 164 q 392 78 311 78 q 533 121 478 78 q 588 232 588 164 q 531 336 588 296 q 385 376 475 376 q 258 336 307 376 q 208 232 208 296 m 206 1031 l 296 1031 q 318 983 296 1003 q 373 954 340 964 q 435 944 406 944 q 496 954 464 944 q 550 983 528 964 q 572 1031 572 1003 l 663 1031 q 630 937 663 976 q 545 876 597 897 q 435 854 493 854 q 325 876 378 854 q 239 937 272 897 q 206 1031 206 976 z "},"ǎ":{"ha":833,"x_min":104,"x_max":692,"o":"m 385 474 q 505 455 450 474 q 581 407 560 436 l 588 397 l 588 597 l 178 597 l 178 694 l 692 694 l 692 0 l 588 0 l 588 65 l 581 58 q 496 3 547 25 q 392 -19 444 -19 q 242 13 307 -19 q 141 101 178 44 q 104 232 104 158 q 140 358 104 303 q 239 443 175 413 q 385 474 303 474 m 208 232 q 260 121 208 164 q 392 78 311 78 q 533 121 478 78 q 588 232 588 164 q 531 336 588 296 q 385 376 475 376 q 258 336 307 376 q 208 232 208 296 m 435 854 l 206 1006 l 256 1081 l 435 963 l 613 1081 l 663 1006 l 435 854 z "},"â":{"ha":833,"x_min":104,"x_max":692,"o":"m 385 474 q 505 455 450 474 q 581 407 560 436 l 588 397 l 588 597 l 178 597 l 178 694 l 692 694 l 692 0 l 588 0 l 588 65 l 581 58 q 496 3 547 25 q 392 -19 444 -19 q 242 13 307 -19 q 141 101 178 44 q 104 232 104 158 q 140 358 104 303 q 239 443 175 413 q 385 474 303 474 m 208 232 q 260 121 208 164 q 392 78 311 78 q 533 121 478 78 q 588 232 588 164 q 531 336 588 296 q 385 376 475 376 q 258 336 307 376 q 208 232 208 296 m 256 854 l 206 929 l 435 1081 l 663 929 l 613 854 l 435 972 l 256 854 z "},"ä":{"ha":833,"x_min":104,"x_max":692,"o":"m 385 474 q 505 455 450 474 q 581 407 560 436 l 588 397 l 588 597 l 178 597 l 178 694 l 692 694 l 692 0 l 588 0 l 588 65 l 581 58 q 496 3 547 25 q 392 -19 444 -19 q 242 13 307 -19 q 141 101 178 44 q 104 232 104 158 q 140 358 104 303 q 239 443 175 413 q 385 474 303 474 m 208 232 q 260 121 208 164 q 392 78 311 78 q 533 121 478 78 q 588 232 588 164 q 531 336 588 296 q 385 376 475 376 q 258 336 307 376 q 208 232 208 296 m 367 868 l 249 868 l 249 986 l 367 986 l 367 868 m 621 868 l 503 868 l 503 986 l 621 986 l 621 868 z "},"à":{"ha":833,"x_min":104,"x_max":692,"o":"m 385 474 q 505 455 450 474 q 581 407 560 436 l 588 397 l 588 597 l 178 597 l 178 694 l 692 694 l 692 0 l 588 0 l 588 65 l 581 58 q 496 3 547 25 q 392 -19 444 -19 q 242 13 307 -19 q 141 101 178 44 q 104 232 104 158 q 140 358 104 303 q 239 443 175 413 q 385 474 303 474 m 208 232 q 260 121 208 164 q 392 78 311 78 q 533 121 478 78 q 588 232 588 164 q 531 336 588 296 q 385 376 475 376 q 258 336 307 376 q 208 232 208 296 m 253 1050 l 565 938 l 535 853 l 222 965 l 253 1050 z "},"ā":{"ha":833,"x_min":104,"x_max":692,"o":"m 385 474 q 505 455 450 474 q 581 407 560 436 l 588 397 l 588 597 l 178 597 l 178 694 l 692 694 l 692 0 l 588 0 l 588 65 l 581 58 q 496 3 547 25 q 392 -19 444 -19 q 242 13 307 -19 q 141 101 178 44 q 104 232 104 158 q 140 358 104 303 q 239 443 175 413 q 385 474 303 474 m 208 232 q 260 121 208 164 q 392 78 311 78 q 533 121 478 78 q 588 232 588 164 q 531 336 588 296 q 385 376 475 376 q 258 336 307 376 q 208 232 208 296 m 643 868 l 226 868 l 226 965 l 643 965 l 643 868 z "},"ą":{"ha":833,"x_min":104,"x_max":692,"o":"m 385 474 q 505 455 450 474 q 581 407 560 436 l 588 397 l 588 597 l 178 597 l 178 694 l 692 694 l 692 0 l 614 -118 q 605 -139 607 -129 q 603 -156 603 -149 q 639 -186 603 -186 l 692 -186 l 692 -282 l 603 -282 q 518 -258 549 -282 q 488 -192 488 -235 q 492 -160 488 -176 q 510 -124 496 -144 l 588 0 l 588 65 l 581 58 q 496 3 547 25 q 392 -19 444 -19 q 242 13 307 -19 q 141 101 178 44 q 104 232 104 158 q 140 358 104 303 q 239 443 175 413 q 385 474 303 474 m 208 232 q 260 121 208 164 q 392 78 311 78 q 533 121 478 78 q 588 232 588 164 q 531 336 588 296 q 385 376 475 376 q 258 336 307 376 q 208 232 208 296 z "},"å":{"ha":833,"x_min":104,"x_max":692,"o":"m 385 474 q 505 455 450 474 q 581 407 560 436 l 588 397 l 588 597 l 178 597 l 178 694 l 692 694 l 692 0 l 588 0 l 588 65 l 581 58 q 496 3 547 25 q 392 -19 444 -19 q 242 13 307 -19 q 141 101 178 44 q 104 232 104 158 q 140 358 104 303 q 239 443 175 413 q 385 474 303 474 m 208 232 q 260 121 208 164 q 392 78 311 78 q 533 121 478 78 q 588 232 588 164 q 531 336 588 296 q 385 376 475 376 q 258 336 307 376 q 208 232 208 296 m 283 1006 q 304 1081 283 1047 q 360 1136 325 1115 q 435 1157 394 1157 q 510 1136 476 1157 q 565 1081 544 1115 q 586 1006 586 1047 q 565 931 586 965 q 510 875 544 896 q 435 854 476 854 q 360 875 394 854 q 304 931 325 896 q 283 1006 283 965 m 367 1006 q 388 958 367 979 q 435 938 408 938 q 482 958 461 938 q 503 1006 503 979 q 482 1053 503 1032 q 435 1074 461 1074 q 388 1053 408 1074 q 367 1006 367 1032 z "},"ã":{"ha":833,"x_min":104,"x_max":692,"o":"m 385 474 q 505 455 450 474 q 581 407 560 436 l 588 397 l 588 597 l 178 597 l 178 694 l 692 694 l 692 0 l 588 0 l 588 65 l 581 58 q 496 3 547 25 q 392 -19 444 -19 q 242 13 307 -19 q 141 101 178 44 q 104 232 104 158 q 140 358 104 303 q 239 443 175 413 q 385 474 303 474 m 208 232 q 260 121 208 164 q 392 78 311 78 q 533 121 478 78 q 588 232 588 164 q 531 336 588 296 q 385 376 475 376 q 258 336 307 376 q 208 232 208 296 m 192 868 q 231 1001 192 953 q 335 1050 271 1050 q 404 1033 376 1050 q 451 996 432 1017 q 489 960 471 975 q 529 944 507 944 q 576 969 558 944 q 594 1042 593 994 l 678 1042 q 638 911 678 960 q 533 863 597 863 q 469 878 494 863 q 424 915 443 894 q 385 951 404 935 q 340 967 367 967 q 276 868 279 967 l 192 868 z "},"æ":{"ha":833,"x_min":4,"x_max":786,"o":"m 201 468 q 266 456 231 468 q 328 424 301 443 l 328 597 l 58 597 l 58 694 l 414 694 l 414 614 q 568 726 463 726 q 786 347 786 726 l 786 336 l 432 336 q 589 79 432 79 q 659 119 635 79 q 693 249 683 160 l 786 249 q 718 44 769 107 q 586 -18 667 -18 q 414 88 468 -18 l 414 0 l 328 0 l 328 28 q 265 -6 301 7 q 201 -19 229 -19 q 99 13 144 -19 q 29 101 54 44 q 4 232 4 158 q 29 354 4 301 q 99 438 54 407 q 201 468 144 468 m 576 629 q 485 577 515 629 q 446 433 454 525 l 685 433 q 656 577 685 525 q 576 629 628 629 m 94 232 q 125 113 94 156 q 208 71 156 71 q 301 113 269 71 q 328 232 332 156 q 292 340 324 301 q 208 378 261 378 q 125 340 156 378 q 94 232 94 301 z "},"ǽ":{"ha":833,"x_min":4,"x_max":786,"o":"m 201 468 q 266 456 231 468 q 328 424 301 443 l 328 597 l 58 597 l 58 694 l 414 694 l 414 614 q 568 726 463 726 q 786 347 786 726 l 786 336 l 432 336 q 589 79 432 79 q 659 119 635 79 q 693 249 683 160 l 786 249 q 718 44 769 107 q 586 -18 667 -18 q 414 88 468 -18 l 414 0 l 328 0 l 328 28 q 265 -6 301 7 q 201 -19 229 -19 q 99 13 144 -19 q 29 101 54 44 q 4 232 4 158 q 29 354 4 301 q 99 438 54 407 q 201 468 144 468 m 576 629 q 485 577 515 629 q 446 433 454 525 l 685 433 q 656 577 685 525 q 576 629 628 629 m 94 232 q 125 113 94 156 q 208 71 156 71 q 301 113 269 71 q 328 232 332 156 q 292 340 324 301 q 208 378 261 378 q 125 340 156 378 q 94 232 94 301 m 317 853 l 286 938 l 599 1050 l 629 965 l 317 853 z "},"b":{"ha":833,"x_min":35,"x_max":767,"o":"m 217 85 l 217 0 l 113 0 l 113 913 l 35 913 l 35 1010 l 217 1010 l 217 617 q 446 726 299 726 q 617 680 544 726 q 728 547 689 633 q 767 343 767 461 q 681 79 767 176 q 446 -18 594 -18 q 315 9 374 -18 q 217 85 257 36 m 217 343 q 278 149 217 221 q 443 76 339 76 q 603 149 544 76 q 663 343 663 221 q 603 554 663 476 q 443 632 544 632 q 278 554 339 632 q 217 343 217 476 z "},"c":{"ha":833,"x_min":93,"x_max":731,"o":"m 426 79 q 556 125 501 79 q 629 249 611 171 l 731 249 q 625 54 707 126 q 426 -18 543 -18 q 250 27 325 -18 q 134 156 175 72 q 93 354 93 240 q 133 553 93 469 q 245 681 172 636 q 418 726 318 726 q 626 651 542 726 q 731 446 711 575 l 629 446 q 558 580 615 531 q 418 629 500 629 q 255 556 314 629 q 197 354 196 482 q 262 153 200 228 q 426 79 324 79 z "},"ć":{"ha":833,"x_min":93,"x_max":731,"o":"m 426 79 q 556 125 501 79 q 629 249 611 171 l 731 249 q 625 54 707 126 q 426 -18 543 -18 q 250 27 325 -18 q 134 156 175 72 q 93 354 93 240 q 133 553 93 469 q 245 681 172 636 q 418 726 318 726 q 626 651 542 726 q 731 446 711 575 l 629 446 q 558 580 615 531 q 418 629 500 629 q 255 556 314 629 q 197 354 196 482 q 262 153 200 228 q 426 79 324 79 m 318 853 l 288 938 l 600 1050 l 631 965 l 318 853 z "},"č":{"ha":833,"x_min":93,"x_max":731,"o":"m 426 79 q 556 125 501 79 q 629 249 611 171 l 731 249 q 625 54 707 126 q 426 -18 543 -18 q 250 27 325 -18 q 134 156 175 72 q 93 354 93 240 q 133 553 93 469 q 245 681 172 636 q 418 726 318 726 q 626 651 542 726 q 731 446 711 575 l 629 446 q 558 580 615 531 q 418 629 500 629 q 255 556 314 629 q 197 354 196 482 q 262 153 200 228 q 426 79 324 79 m 418 854 l 189 1006 l 239 1081 l 418 963 l 596 1081 l 646 1006 l 418 854 z "},"ç":{"ha":833,"x_min":93,"x_max":731,"o":"m 426 79 q 556 125 501 79 q 629 249 611 171 l 731 249 q 625 54 707 126 q 426 -18 543 -18 q 250 27 325 -18 q 134 156 175 72 q 93 354 93 240 q 133 553 93 469 q 245 681 172 636 q 418 726 318 726 q 626 651 542 726 q 731 446 711 575 l 629 446 q 558 580 615 531 q 418 629 500 629 q 255 556 314 629 q 197 354 196 482 q 262 153 200 228 q 426 79 324 79 m 432 -328 l 294 -328 l 294 -237 l 446 -237 q 496 -190 496 -237 q 446 -147 496 -147 l 351 -147 l 369 43 l 463 43 l 450 -79 l 465 -79 q 553 -108 522 -79 q 585 -190 585 -137 q 544 -291 585 -254 q 432 -328 504 -328 z "},"ĉ":{"ha":833,"x_min":93,"x_max":731,"o":"m 426 79 q 556 125 501 79 q 629 249 611 171 l 731 249 q 625 54 707 126 q 426 -18 543 -18 q 250 27 325 -18 q 134 156 175 72 q 93 354 93 240 q 133 553 93 469 q 245 681 172 636 q 418 726 318 726 q 626 651 542 726 q 731 446 711 575 l 629 446 q 558 580 615 531 q 418 629 500 629 q 255 556 314 629 q 197 354 196 482 q 262 153 200 228 q 426 79 324 79 m 239 854 l 189 929 l 418 1081 l 646 929 l 596 854 l 418 972 l 239 854 z "},"ċ":{"ha":833,"x_min":93,"x_max":731,"o":"m 426 79 q 556 125 501 79 q 629 249 611 171 l 731 249 q 625 54 707 126 q 426 -18 543 -18 q 250 27 325 -18 q 134 156 175 72 q 93 354 93 240 q 133 553 93 469 q 245 681 172 636 q 418 726 318 726 q 626 651 542 726 q 731 446 711 575 l 629 446 q 558 580 615 531 q 418 629 500 629 q 255 556 314 629 q 197 354 196 482 q 262 153 200 228 q 426 79 324 79 m 351 868 l 351 1000 l 483 1000 l 483 868 l 351 868 z "},"d":{"ha":833,"x_min":64,"x_max":718,"o":"m 718 0 l 614 0 l 614 85 q 517 9 575 36 q 385 -18 458 -18 q 151 79 238 -18 q 64 343 64 176 q 103 547 64 461 q 214 680 142 633 q 385 726 286 726 q 614 617 532 726 l 614 913 l 536 913 l 536 1010 l 718 1010 l 718 0 m 168 343 q 227 149 168 221 q 388 76 286 76 q 553 149 492 76 q 614 343 614 221 q 553 554 614 476 q 388 632 492 632 q 227 554 286 632 q 168 343 168 476 z "},"ð":{"ha":833,"x_min":68,"x_max":714,"o":"m 390 -18 q 155 74 242 -18 q 68 321 68 165 q 155 576 68 482 q 390 671 242 671 q 597 589 517 671 q 554 699 582 650 q 492 785 526 747 l 244 708 l 221 792 l 414 850 q 340 890 378 875 q 268 913 303 906 l 310 1010 q 431 958 374 988 q 533 886 488 928 l 688 933 l 713 851 l 597 817 q 683 633 653 742 q 714 368 714 524 q 632 80 714 178 q 390 -18 550 -18 m 390 79 q 551 147 492 79 q 610 328 610 214 q 551 508 610 442 q 390 574 492 574 q 231 506 290 574 q 172 321 172 438 q 231 144 172 210 q 390 79 290 79 z "},"ď":{"ha":833,"x_min":64,"x_max":885,"o":"m 885 721 l 797 721 l 797 857 l 729 857 l 729 1010 l 885 1010 l 885 721 m 649 0 l 544 0 l 544 85 q 461 9 511 36 q 350 -18 411 -18 q 141 79 218 -18 q 64 343 64 176 q 141 624 64 521 q 350 726 218 726 q 544 617 475 726 l 544 913 l 467 913 l 467 1010 l 649 1010 l 649 0 m 168 343 q 218 149 168 221 q 353 76 268 76 q 493 149 442 76 q 544 343 544 221 q 493 554 544 476 q 353 632 442 632 q 218 554 268 632 q 168 343 168 476 z "},"đ":{"ha":833,"x_min":68,"x_max":772,"o":"m 714 781 l 714 0 l 610 0 l 610 81 q 390 -18 528 -18 q 219 26 292 -18 q 107 153 146 71 q 68 349 68 236 q 107 550 68 465 q 219 681 146 635 q 390 726 292 726 q 610 629 528 726 l 610 781 l 403 781 l 403 853 l 610 853 l 610 913 l 532 913 l 532 1010 l 714 1010 l 714 853 l 772 853 l 772 781 l 714 781 m 172 349 q 231 152 172 225 q 390 79 290 79 q 551 154 492 79 q 610 356 610 229 q 551 556 610 482 q 390 629 492 629 q 231 553 290 629 q 172 349 172 478 z "},"e":{"ha":833,"x_min":83,"x_max":715,"o":"m 83 354 q 123 553 83 469 q 235 681 163 636 q 407 726 308 726 q 571 681 501 726 q 678 549 640 635 q 715 347 715 464 l 715 336 l 186 336 q 256 149 193 218 q 417 79 318 79 q 558 124 506 79 q 618 249 610 168 l 715 249 q 624 51 701 121 q 417 -18 547 -18 q 240 27 315 -18 q 124 156 165 72 q 83 354 83 240 m 407 629 q 262 579 318 632 q 199 433 206 526 l 607 433 q 547 574 601 521 q 407 629 493 626 z "},"é":{"ha":833,"x_min":83,"x_max":715,"o":"m 83 354 q 123 553 83 469 q 235 681 163 636 q 407 726 308 726 q 571 681 501 726 q 678 549 640 635 q 715 347 715 464 l 715 336 l 186 336 q 256 149 193 218 q 417 79 318 79 q 558 124 506 79 q 618 249 610 168 l 715 249 q 624 51 701 121 q 417 -18 547 -18 q 240 27 315 -18 q 124 156 165 72 q 83 354 83 240 m 407 629 q 262 579 318 632 q 199 433 206 526 l 607 433 q 547 574 601 521 q 407 629 493 626 m 310 853 l 279 938 l 592 1050 l 622 965 l 310 853 z "},"ĕ":{"ha":833,"x_min":83,"x_max":715,"o":"m 83 354 q 123 553 83 469 q 235 681 163 636 q 407 726 308 726 q 571 681 501 726 q 678 549 640 635 q 715 347 715 464 l 715 336 l 186 336 q 256 149 193 218 q 417 79 318 79 q 558 124 506 79 q 618 249 610 168 l 715 249 q 624 51 701 121 q 417 -18 547 -18 q 240 27 315 -18 q 124 156 165 72 q 83 354 83 240 m 407 629 q 262 579 318 632 q 199 433 206 526 l 607 433 q 547 574 601 521 q 407 629 493 626 m 181 1031 l 271 1031 q 293 983 271 1003 q 348 954 315 964 q 410 944 381 944 q 471 954 439 944 q 525 983 503 964 q 547 1031 547 1003 l 638 1031 q 605 937 638 976 q 520 876 572 897 q 410 854 468 854 q 300 876 353 854 q 214 937 247 897 q 181 1031 181 976 z "},"ě":{"ha":833,"x_min":83,"x_max":715,"o":"m 83 354 q 123 553 83 469 q 235 681 163 636 q 407 726 308 726 q 571 681 501 726 q 678 549 640 635 q 715 347 715 464 l 715 336 l 186 336 q 256 149 193 218 q 417 79 318 79 q 558 124 506 79 q 618 249 610 168 l 715 249 q 624 51 701 121 q 417 -18 547 -18 q 240 27 315 -18 q 124 156 165 72 q 83 354 83 240 m 407 629 q 262 579 318 632 q 199 433 206 526 l 607 433 q 547 574 601 521 q 407 629 493 626 m 410 854 l 181 1006 l 231 1081 l 410 963 l 588 1081 l 638 1006 l 410 854 z "},"ê":{"ha":833,"x_min":83,"x_max":715,"o":"m 83 354 q 123 553 83 469 q 235 681 163 636 q 407 726 308 726 q 571 681 501 726 q 678 549 640 635 q 715 347 715 464 l 715 336 l 186 336 q 256 149 193 218 q 417 79 318 79 q 558 124 506 79 q 618 249 610 168 l 715 249 q 624 51 701 121 q 417 -18 547 -18 q 240 27 315 -18 q 124 156 165 72 q 83 354 83 240 m 407 629 q 262 579 318 632 q 199 433 206 526 l 607 433 q 547 574 601 521 q 407 629 493 626 m 231 854 l 181 929 l 410 1081 l 638 929 l 588 854 l 410 972 l 231 854 z "},"ë":{"ha":833,"x_min":83,"x_max":715,"o":"m 83 354 q 123 553 83 469 q 235 681 163 636 q 407 726 308 726 q 571 681 501 726 q 678 549 640 635 q 715 347 715 464 l 715 336 l 186 336 q 256 149 193 218 q 417 79 318 79 q 558 124 506 79 q 618 249 610 168 l 715 249 q 624 51 701 121 q 417 -18 547 -18 q 240 27 315 -18 q 124 156 165 72 q 83 354 83 240 m 407 629 q 262 579 318 632 q 199 433 206 526 l 607 433 q 547 574 601 521 q 407 629 493 626 m 342 868 l 224 868 l 224 986 l 342 986 l 342 868 m 596 868 l 478 868 l 478 986 l 596 986 l 596 868 z "},"ė":{"ha":833,"x_min":83,"x_max":715,"o":"m 83 354 q 123 553 83 469 q 235 681 163 636 q 407 726 308 726 q 571 681 501 726 q 678 549 640 635 q 715 347 715 464 l 715 336 l 186 336 q 256 149 193 218 q 417 79 318 79 q 558 124 506 79 q 618 249 610 168 l 715 249 q 624 51 701 121 q 417 -18 547 -18 q 240 27 315 -18 q 124 156 165 72 q 83 354 83 240 m 407 629 q 262 579 318 632 q 199 433 206 526 l 607 433 q 547 574 601 521 q 407 629 493 626 m 343 868 l 343 1000 l 475 1000 l 475 868 l 343 868 z "},"è":{"ha":833,"x_min":83,"x_max":715,"o":"m 83 354 q 123 553 83 469 q 235 681 163 636 q 407 726 308 726 q 571 681 501 726 q 678 549 640 635 q 715 347 715 464 l 715 336 l 186 336 q 256 149 193 218 q 417 79 318 79 q 558 124 506 79 q 618 249 610 168 l 715 249 q 624 51 701 121 q 417 -18 547 -18 q 240 27 315 -18 q 124 156 165 72 q 83 354 83 240 m 407 629 q 262 579 318 632 q 199 433 206 526 l 607 433 q 547 574 601 521 q 407 629 493 626 m 228 1050 l 540 938 l 510 853 l 197 965 l 228 1050 z "},"ē":{"ha":833,"x_min":83,"x_max":715,"o":"m 83 354 q 123 553 83 469 q 235 681 163 636 q 407 726 308 726 q 571 681 501 726 q 678 549 640 635 q 715 347 715 464 l 715 336 l 186 336 q 256 149 193 218 q 417 79 318 79 q 558 124 506 79 q 618 249 610 168 l 715 249 q 624 51 701 121 q 417 -18 547 -18 q 240 27 315 -18 q 124 156 165 72 q 83 354 83 240 m 407 629 q 262 579 318 632 q 199 433 206 526 l 607 433 q 547 574 601 521 q 407 629 493 626 m 618 868 l 201 868 l 201 965 l 618 965 l 618 868 z "},"ę":{"ha":833,"x_min":83,"x_max":715,"o":"m 83 354 q 123 553 83 469 q 235 681 163 636 q 407 726 308 726 q 571 681 501 726 q 678 549 640 635 q 715 347 715 464 l 715 336 l 186 336 q 256 149 193 218 q 417 79 318 79 q 558 124 506 79 q 618 249 610 168 l 715 249 q 624 51 701 121 q 417 -18 547 -18 q 240 27 315 -18 q 124 156 165 72 q 83 354 83 240 m 407 629 q 262 579 318 632 q 199 433 206 526 l 607 433 q 547 574 601 521 q 407 629 493 626 m 497 -282 l 408 -282 q 317 -255 350 -282 q 283 -178 283 -228 q 294 -133 283 -153 q 319 -89 304 -114 l 375 0 l 479 0 l 406 -117 q 394 -133 400 -126 q 389 -151 389 -140 q 431 -186 389 -186 l 497 -186 l 497 -282 z "},"f":{"ha":833,"x_min":86,"x_max":736,"o":"m 736 1010 l 736 913 l 594 913 q 457 877 497 913 q 417 758 417 842 l 417 694 l 713 694 l 713 597 l 417 597 l 417 0 l 313 0 l 313 597 l 86 597 l 86 694 l 313 694 l 313 772 q 376 953 313 896 q 575 1010 439 1010 l 736 1010 z "},"g":{"ha":833,"x_min":68,"x_max":711,"o":"m 383 726 q 511 701 454 726 q 607 626 568 675 l 607 693 l 711 693 l 711 -17 q 642 -199 711 -143 q 442 -256 572 -256 l 108 -256 l 108 -158 l 422 -158 q 537 -142 497 -158 q 592 -92 576 -126 q 607 -3 607 -58 l 607 76 q 390 -18 528 -18 q 155 80 242 -18 q 68 346 68 178 q 107 548 68 463 q 217 680 146 633 q 383 726 288 726 m 172 346 q 231 151 172 224 q 390 79 290 79 q 549 153 490 79 q 607 353 607 226 q 547 555 607 481 q 383 629 486 629 q 229 553 286 629 q 172 346 172 476 z "},"ğ":{"ha":833,"x_min":68,"x_max":711,"o":"m 383 726 q 511 701 454 726 q 607 626 568 675 l 607 693 l 711 693 l 711 -17 q 642 -199 711 -143 q 442 -256 572 -256 l 108 -256 l 108 -158 l 422 -158 q 537 -142 497 -158 q 592 -92 576 -126 q 607 -3 607 -58 l 607 76 q 390 -18 528 -18 q 155 80 242 -18 q 68 346 68 178 q 107 548 68 463 q 217 680 146 633 q 383 726 288 726 m 172 346 q 231 151 172 224 q 390 79 290 79 q 549 153 490 79 q 607 353 607 226 q 547 555 607 481 q 383 629 486 629 q 229 553 286 629 q 172 346 172 476 m 153 1031 l 243 1031 q 265 983 243 1003 q 320 954 288 964 q 382 944 353 944 q 443 954 411 944 q 497 983 475 964 q 519 1031 519 1003 l 610 1031 q 577 937 610 976 q 492 876 544 897 q 382 854 440 854 q 272 876 325 854 q 186 937 219 897 q 153 1031 153 976 z "},"ĝ":{"ha":833,"x_min":68,"x_max":711,"o":"m 383 726 q 511 701 454 726 q 607 626 568 675 l 607 693 l 711 693 l 711 -17 q 642 -199 711 -143 q 442 -256 572 -256 l 108 -256 l 108 -158 l 422 -158 q 537 -142 497 -158 q 592 -92 576 -126 q 607 -3 607 -58 l 607 76 q 390 -18 528 -18 q 155 80 242 -18 q 68 346 68 178 q 107 548 68 463 q 217 680 146 633 q 383 726 288 726 m 172 346 q 231 151 172 224 q 390 79 290 79 q 549 153 490 79 q 607 353 607 226 q 547 555 607 481 q 383 629 486 629 q 229 553 286 629 q 172 346 172 476 m 203 854 l 153 929 l 382 1081 l 610 929 l 560 854 l 382 972 l 203 854 z "},"ģ":{"ha":833,"x_min":68,"x_max":711,"o":"m 383 726 q 511 701 454 726 q 607 626 568 675 l 607 693 l 711 693 l 711 -17 q 642 -199 711 -143 q 442 -256 572 -256 l 108 -256 l 108 -158 l 422 -158 q 537 -142 497 -158 q 592 -92 576 -126 q 607 -3 607 -58 l 607 76 q 390 -18 528 -18 q 155 80 242 -18 q 68 346 68 178 q 107 548 68 463 q 217 680 146 633 q 383 726 288 726 m 172 346 q 231 151 172 224 q 390 79 290 79 q 549 153 490 79 q 607 353 607 226 q 547 555 607 481 q 383 629 486 629 q 229 553 286 629 q 172 346 172 476 m 493 1142 l 493 1079 l 374 1081 l 374 1028 l 476 1028 l 476 868 l 300 868 l 300 1143 l 493 1142 z "},"ġ":{"ha":833,"x_min":68,"x_max":711,"o":"m 383 726 q 511 701 454 726 q 607 626 568 675 l 607 693 l 711 693 l 711 -17 q 642 -199 711 -143 q 442 -256 572 -256 l 108 -256 l 108 -158 l 422 -158 q 537 -142 497 -158 q 592 -92 576 -126 q 607 -3 607 -58 l 607 76 q 390 -18 528 -18 q 155 80 242 -18 q 68 346 68 178 q 107 548 68 463 q 217 680 146 633 q 383 726 288 726 m 172 346 q 231 151 172 224 q 390 79 290 79 q 549 153 490 79 q 607 353 607 226 q 547 555 607 481 q 383 629 486 629 q 229 553 286 629 q 172 346 172 476 m 315 868 l 315 1000 l 447 1000 l 447 868 l 315 868 z "},"h":{"ha":833,"x_min":65,"x_max":724,"o":"m 247 694 l 722 694 l 724 0 l 619 0 l 618 597 l 247 597 l 247 0 l 143 0 l 143 913 l 65 913 l 65 1010 l 247 1010 l 247 694 z "},"ħ":{"ha":833,"x_min":60,"x_max":724,"o":"m 247 694 l 722 694 l 724 0 l 619 0 l 618 597 l 247 597 l 247 0 l 143 0 l 143 775 l 60 775 l 60 840 l 143 840 l 143 913 l 65 913 l 65 1010 l 247 1010 l 247 840 l 429 840 l 429 775 l 247 775 l 247 694 z "},"ĥ":{"ha":833,"x_min":-37,"x_max":724,"o":"m 247 694 l 722 694 l 724 0 l 619 0 l 618 597 l 247 597 l 247 0 l 143 0 l 143 913 l 65 913 l 65 1010 l 247 1010 l 247 694 m 13 1086 l -37 1161 l 192 1313 l 419 1161 l 369 1086 l 192 1204 l 13 1086 z "},"i":{"ha":833,"x_min":79,"x_max":806,"o":"m 328 842 l 328 1010 l 496 1010 l 496 842 l 328 842 m 496 97 l 806 97 l 806 0 l 79 0 l 79 97 l 392 97 l 392 629 l 147 629 l 147 726 l 496 726 l 496 97 z "},"ı":{"ha":833,"x_min":79,"x_max":806,"o":"m 496 97 l 806 97 l 806 0 l 79 0 l 79 97 l 392 97 l 392 629 l 147 629 l 147 726 l 496 726 l 496 97 z "},"í":{"ha":833,"x_min":79,"x_max":806,"o":"m 496 97 l 806 97 l 806 0 l 79 0 l 79 97 l 392 97 l 392 629 l 147 629 l 147 726 l 496 726 l 496 97 m 317 853 l 286 938 l 599 1050 l 629 965 l 317 853 z "},"ĭ":{"ha":833,"x_min":79,"x_max":806,"o":"m 496 97 l 806 97 l 806 0 l 79 0 l 79 97 l 392 97 l 392 629 l 147 629 l 147 726 l 496 726 l 496 97 m 188 1031 l 278 1031 q 300 983 278 1003 q 355 954 322 964 q 417 944 388 944 q 478 954 446 944 q 532 983 510 964 q 554 1031 554 1003 l 644 1031 q 612 937 644 976 q 527 876 579 897 q 417 854 475 854 q 307 876 360 854 q 221 937 254 897 q 188 1031 188 976 z "},"ǐ":{"ha":833,"x_min":79,"x_max":806,"o":"m 496 97 l 806 97 l 806 0 l 79 0 l 79 97 l 392 97 l 392 629 l 147 629 l 147 726 l 496 726 l 496 97 m 417 854 l 188 1006 l 238 1081 l 417 963 l 594 1081 l 644 1006 l 417 854 z "},"î":{"ha":833,"x_min":79,"x_max":806,"o":"m 496 97 l 806 97 l 806 0 l 79 0 l 79 97 l 392 97 l 392 629 l 147 629 l 147 726 l 496 726 l 496 97 m 238 854 l 188 929 l 417 1081 l 644 929 l 594 854 l 417 972 l 238 854 z "},"ï":{"ha":833,"x_min":79,"x_max":806,"o":"m 496 97 l 806 97 l 806 0 l 79 0 l 79 97 l 392 97 l 392 629 l 147 629 l 147 726 l 496 726 l 496 97 m 349 868 l 231 868 l 231 986 l 349 986 l 349 868 m 603 868 l 485 868 l 485 986 l 603 986 l 603 868 z "},"ì":{"ha":833,"x_min":79,"x_max":806,"o":"m 496 97 l 806 97 l 806 0 l 79 0 l 79 97 l 392 97 l 392 629 l 147 629 l 147 726 l 496 726 l 496 97 m 235 1050 l 547 938 l 517 853 l 204 965 l 235 1050 z "},"ĳ":{"ha":833,"x_min":74,"x_max":760,"o":"m 590 842 l 590 1010 l 758 1010 l 758 842 l 590 842 m 225 842 l 225 1010 l 393 1010 l 393 842 l 225 842 m 393 97 l 503 97 l 503 0 l 74 0 l 74 97 l 289 97 l 289 629 l 100 629 l 100 726 l 760 726 l 760 -15 q 690 -198 760 -142 q 490 -254 621 -254 l 336 -254 l 336 -157 l 471 -157 q 585 -141 546 -157 q 640 -91 625 -125 q 656 -1 656 -57 l 656 629 l 393 629 l 393 97 z "},"ī":{"ha":833,"x_min":79,"x_max":806,"o":"m 496 97 l 806 97 l 806 0 l 79 0 l 79 97 l 392 97 l 392 629 l 147 629 l 147 726 l 496 726 l 496 97 m 625 868 l 208 868 l 208 965 l 625 965 l 625 868 z "},"į":{"ha":833,"x_min":79,"x_max":806,"o":"m 328 842 l 328 1010 l 496 1010 l 496 842 l 328 842 m 496 97 l 806 97 l 806 0 l 79 0 l 79 97 l 392 97 l 392 629 l 147 629 l 147 726 l 496 726 l 496 97 m 510 -282 l 421 -282 q 329 -255 363 -282 q 296 -178 296 -228 q 306 -133 296 -153 q 332 -89 317 -114 l 388 0 l 492 0 l 418 -117 q 407 -133 413 -126 q 401 -151 401 -140 q 443 -186 401 -186 l 510 -186 l 510 -282 z "},"ĩ":{"ha":833,"x_min":79,"x_max":806,"o":"m 496 97 l 806 97 l 806 0 l 79 0 l 79 97 l 392 97 l 392 629 l 147 629 l 147 726 l 496 726 l 496 97 m 174 868 q 213 1001 174 953 q 317 1050 253 1050 q 386 1033 358 1050 q 433 996 414 1017 q 471 960 453 975 q 511 944 489 944 q 558 969 540 944 q 576 1042 575 994 l 660 1042 q 619 911 660 960 q 515 863 579 863 q 451 878 476 863 q 406 915 425 894 q 367 951 386 935 q 322 967 349 967 q 258 868 261 967 l 174 868 z "},"j":{"ha":833,"x_min":181,"x_max":604,"o":"m 436 842 l 436 1010 l 604 1010 l 604 842 l 436 842 m 181 -254 l 181 -157 l 315 -157 q 430 -141 390 -157 q 485 -91 469 -125 q 500 -1 500 -57 l 500 597 l 269 597 l 269 694 l 604 694 l 604 -15 q 535 -198 604 -142 q 335 -254 465 -254 l 181 -254 z "},"ȷ":{"ha":833,"x_min":181,"x_max":604,"o":"m 181 -254 l 181 -157 l 315 -157 q 430 -141 390 -157 q 485 -91 469 -125 q 500 -1 500 -57 l 500 597 l 269 597 l 269 694 l 604 694 l 604 -15 q 535 -198 604 -142 q 335 -254 465 -254 l 181 -254 z "},"ĵ":{"ha":833,"x_min":181,"x_max":742,"o":"m 181 -254 l 181 -157 l 315 -157 q 430 -141 390 -157 q 485 -91 469 -125 q 500 -1 500 -57 l 500 597 l 269 597 l 269 694 l 604 694 l 604 -15 q 535 -198 604 -142 q 335 -254 465 -254 l 181 -254 m 335 854 l 285 929 l 514 1081 l 742 929 l 692 854 l 514 972 l 335 854 z "},"k":{"ha":833,"x_min":174,"x_max":794,"o":"m 278 157 l 278 0 l 174 0 l 174 1010 l 278 1010 l 278 299 l 647 694 l 772 694 l 485 382 l 794 0 l 663 0 l 413 304 l 278 157 z "},"ķ":{"ha":833,"x_min":174,"x_max":794,"o":"m 278 157 l 278 0 l 174 0 l 174 1010 l 278 1010 l 278 299 l 647 694 l 772 694 l 485 382 l 794 0 l 663 0 l 413 304 l 278 157 m 349 -385 l 349 -315 l 468 -317 l 468 -257 l 365 -257 l 365 -111 l 542 -111 l 542 -386 l 349 -385 z "},"ĸ":{"ha":833,"x_min":174,"x_max":794,"o":"m 278 157 l 278 0 l 174 0 l 174 694 l 278 694 l 278 299 l 647 694 l 772 694 l 485 382 l 794 0 l 663 0 l 413 304 l 278 157 z "},"l":{"ha":833,"x_min":79,"x_max":778,"o":"m 778 0 l 79 0 l 79 97 l 364 97 l 364 913 l 147 913 l 147 1010 l 468 1010 l 468 97 l 778 97 l 778 0 z "},"ĺ":{"ha":833,"x_min":79,"x_max":778,"o":"m 778 0 l 79 0 l 79 97 l 364 97 l 364 913 l 147 913 l 147 1010 l 468 1010 l 468 97 l 778 97 l 778 0 m 317 1085 l 286 1169 l 599 1282 l 629 1197 l 317 1085 z "},"ľ":{"ha":833,"x_min":79,"x_max":778,"o":"m 778 0 l 79 0 l 79 97 l 364 97 l 364 913 l 147 913 l 147 1010 l 468 1010 l 468 97 l 778 97 l 778 0 m 417 1086 l 188 1238 l 238 1313 l 417 1194 l 594 1313 l 644 1238 l 417 1086 z "},"ļ":{"ha":833,"x_min":79,"x_max":778,"o":"m 778 0 l 79 0 l 79 97 l 364 97 l 364 913 l 147 913 l 147 1010 l 468 1010 l 468 97 l 778 97 l 778 0 m 307 -385 l 307 -315 l 426 -317 l 426 -257 l 324 -257 l 324 -111 l 500 -111 l 500 -386 l 307 -385 z "},"ł":{"ha":833,"x_min":79,"x_max":778,"o":"m 778 97 l 778 0 l 79 0 l 79 97 l 364 97 l 364 454 l 222 364 l 171 446 l 364 568 l 364 913 l 147 913 l 147 1010 l 468 1010 l 468 635 l 625 735 l 678 653 l 468 519 l 468 97 l 778 97 z "},"m":{"ha":833,"x_min":71,"x_max":774,"o":"m 71 0 l 71 694 l 772 694 l 774 0 l 669 0 l 668 597 l 471 597 l 471 0 l 374 0 l 374 597 l 175 597 l 175 0 l 71 0 z "},"n":{"ha":833,"x_min":131,"x_max":719,"o":"m 131 0 l 131 694 l 718 694 l 719 0 l 615 0 l 614 597 l 235 597 l 235 0 l 131 0 z "},"ń":{"ha":833,"x_min":131,"x_max":719,"o":"m 131 0 l 131 694 l 718 694 l 719 0 l 615 0 l 614 597 l 235 597 l 235 0 l 131 0 m 317 853 l 286 938 l 599 1050 l 629 965 l 317 853 z "},"ŉ":{"ha":833,"x_min":131,"x_max":719,"o":"m 307 804 l 131 806 l 131 871 l 246 869 l 246 933 l 161 933 l 161 1056 l 307 1056 l 307 804 m 131 0 l 131 694 l 718 694 l 719 0 l 615 0 l 614 597 l 235 597 l 235 0 l 131 0 z "},"ň":{"ha":833,"x_min":131,"x_max":719,"o":"m 131 0 l 131 694 l 718 694 l 719 0 l 615 0 l 614 597 l 235 597 l 235 0 l 131 0 m 417 854 l 188 1006 l 238 1081 l 417 963 l 594 1081 l 644 1006 l 417 854 z "},"ņ":{"ha":833,"x_min":131,"x_max":719,"o":"m 131 0 l 131 694 l 718 694 l 719 0 l 615 0 l 614 597 l 235 597 l 235 0 l 131 0 m 307 -385 l 307 -315 l 426 -317 l 426 -257 l 324 -257 l 324 -111 l 500 -111 l 500 -386 l 307 -385 z "},"ñ":{"ha":833,"x_min":131,"x_max":719,"o":"m 131 0 l 131 694 l 718 694 l 719 0 l 615 0 l 614 597 l 235 597 l 235 0 l 131 0 m 174 868 q 213 1001 174 953 q 317 1050 253 1050 q 386 1033 358 1050 q 433 996 414 1017 q 471 960 453 975 q 511 944 489 944 q 558 969 540 944 q 576 1042 575 994 l 660 1042 q 619 911 660 960 q 515 863 579 863 q 451 878 476 863 q 406 915 425 894 q 367 951 386 935 q 322 967 349 967 q 258 868 261 967 l 174 868 z "},"ŋ":{"ha":833,"x_min":131,"x_max":718,"o":"m 449 -254 l 378 -254 l 378 -157 l 429 -157 q 544 -141 504 -157 q 599 -91 583 -125 q 614 -1 614 -57 l 614 597 l 235 597 l 235 0 l 131 0 l 131 694 l 718 694 l 718 -15 q 649 -198 718 -142 q 449 -254 579 -254 z "},"o":{"ha":833,"x_min":92,"x_max":750,"o":"m 92 354 q 134 547 92 464 q 251 678 176 631 q 424 726 326 726 q 593 678 519 726 q 708 547 667 631 q 750 354 750 464 q 709 162 750 246 q 596 30 668 78 q 429 -18 524 -18 q 253 30 329 -18 q 135 162 178 78 q 92 354 92 246 m 429 79 q 542 115 493 79 q 618 212 590 150 q 646 354 646 274 q 617 497 646 435 q 539 594 589 558 q 424 629 489 629 q 303 594 356 629 q 223 497 251 558 q 196 354 194 435 q 227 212 197 274 q 310 115 257 150 q 429 79 363 79 z "},"ó":{"ha":833,"x_min":92,"x_max":750,"o":"m 92 354 q 134 547 92 464 q 251 678 176 631 q 424 726 326 726 q 593 678 519 726 q 708 547 667 631 q 750 354 750 464 q 709 162 750 246 q 596 30 668 78 q 429 -18 524 -18 q 253 30 329 -18 q 135 162 178 78 q 92 354 92 246 m 429 79 q 542 115 493 79 q 618 212 590 150 q 646 354 646 274 q 617 497 646 435 q 539 594 589 558 q 424 629 489 629 q 303 594 356 629 q 223 497 251 558 q 196 354 194 435 q 227 212 197 274 q 310 115 257 150 q 429 79 363 79 m 324 853 l 293 938 l 606 1050 l 636 965 l 324 853 z "},"ŏ":{"ha":833,"x_min":92,"x_max":750,"o":"m 92 354 q 134 547 92 464 q 251 678 176 631 q 424 726 326 726 q 593 678 519 726 q 708 547 667 631 q 750 354 750 464 q 709 162 750 246 q 596 30 668 78 q 429 -18 524 -18 q 253 30 329 -18 q 135 162 178 78 q 92 354 92 246 m 429 79 q 542 115 493 79 q 618 212 590 150 q 646 354 646 274 q 617 497 646 435 q 539 594 589 558 q 424 629 489 629 q 303 594 356 629 q 223 497 251 558 q 196 354 194 435 q 227 212 197 274 q 310 115 257 150 q 429 79 363 79 m 194 1031 l 285 1031 q 307 983 285 1003 q 362 954 329 964 q 424 944 394 944 q 485 954 453 944 q 539 983 517 964 q 561 1031 561 1003 l 651 1031 q 619 937 651 976 q 534 876 586 897 q 424 854 482 854 q 314 876 367 854 q 228 937 261 897 q 194 1031 194 976 z "},"ǒ":{"ha":833,"x_min":92,"x_max":750,"o":"m 92 354 q 134 547 92 464 q 251 678 176 631 q 424 726 326 726 q 593 678 519 726 q 708 547 667 631 q 750 354 750 464 q 709 162 750 246 q 596 30 668 78 q 429 -18 524 -18 q 253 30 329 -18 q 135 162 178 78 q 92 354 92 246 m 429 79 q 542 115 493 79 q 618 212 590 150 q 646 354 646 274 q 617 497 646 435 q 539 594 589 558 q 424 629 489 629 q 303 594 356 629 q 223 497 251 558 q 196 354 194 435 q 227 212 197 274 q 310 115 257 150 q 429 79 363 79 m 424 854 l 194 1006 l 244 1081 l 424 963 l 601 1081 l 651 1006 l 424 854 z "},"ô":{"ha":833,"x_min":92,"x_max":750,"o":"m 92 354 q 134 547 92 464 q 251 678 176 631 q 424 726 326 726 q 593 678 519 726 q 708 547 667 631 q 750 354 750 464 q 709 162 750 246 q 596 30 668 78 q 429 -18 524 -18 q 253 30 329 -18 q 135 162 178 78 q 92 354 92 246 m 429 79 q 542 115 493 79 q 618 212 590 150 q 646 354 646 274 q 617 497 646 435 q 539 594 589 558 q 424 629 489 629 q 303 594 356 629 q 223 497 251 558 q 196 354 194 435 q 227 212 197 274 q 310 115 257 150 q 429 79 363 79 m 244 854 l 194 929 l 424 1081 l 651 929 l 601 854 l 424 972 l 244 854 z "},"ö":{"ha":833,"x_min":92,"x_max":750,"o":"m 92 354 q 134 547 92 464 q 251 678 176 631 q 424 726 326 726 q 593 678 519 726 q 708 547 667 631 q 750 354 750 464 q 709 162 750 246 q 596 30 668 78 q 429 -18 524 -18 q 253 30 329 -18 q 135 162 178 78 q 92 354 92 246 m 429 79 q 542 115 493 79 q 618 212 590 150 q 646 354 646 274 q 617 497 646 435 q 539 594 589 558 q 424 629 489 629 q 303 594 356 629 q 223 497 251 558 q 196 354 194 435 q 227 212 197 274 q 310 115 257 150 q 429 79 363 79 m 356 868 l 238 868 l 238 986 l 356 986 l 356 868 m 610 868 l 492 868 l 492 986 l 610 986 l 610 868 z "},"ò":{"ha":833,"x_min":92,"x_max":750,"o":"m 92 354 q 134 547 92 464 q 251 678 176 631 q 424 726 326 726 q 593 678 519 726 q 708 547 667 631 q 750 354 750 464 q 709 162 750 246 q 596 30 668 78 q 429 -18 524 -18 q 253 30 329 -18 q 135 162 178 78 q 92 354 92 246 m 429 79 q 542 115 493 79 q 618 212 590 150 q 646 354 646 274 q 617 497 646 435 q 539 594 589 558 q 424 629 489 629 q 303 594 356 629 q 223 497 251 558 q 196 354 194 435 q 227 212 197 274 q 310 115 257 150 q 429 79 363 79 m 242 1050 l 554 938 l 524 853 l 211 965 l 242 1050 z "},"ő":{"ha":833,"x_min":92,"x_max":750,"o":"m 92 354 q 134 547 92 464 q 251 678 176 631 q 424 726 326 726 q 593 678 519 726 q 708 547 667 631 q 750 354 750 464 q 709 162 750 246 q 596 30 668 78 q 429 -18 524 -18 q 253 30 329 -18 q 135 162 178 78 q 92 354 92 246 m 429 79 q 542 115 493 79 q 618 212 590 150 q 646 354 646 274 q 617 497 646 435 q 539 594 589 558 q 424 629 489 629 q 303 594 356 629 q 223 497 251 558 q 196 354 194 435 q 227 212 197 274 q 310 115 257 150 q 429 79 363 79 m 308 854 l 240 906 l 378 1094 l 453 1036 l 308 854 m 538 854 l 468 906 l 606 1094 l 682 1036 l 538 854 z "},"ō":{"ha":833,"x_min":92,"x_max":750,"o":"m 92 354 q 134 547 92 464 q 251 678 176 631 q 424 726 326 726 q 593 678 519 726 q 708 547 667 631 q 750 354 750 464 q 709 162 750 246 q 596 30 668 78 q 429 -18 524 -18 q 253 30 329 -18 q 135 162 178 78 q 92 354 92 246 m 429 79 q 542 115 493 79 q 618 212 590 150 q 646 354 646 274 q 617 497 646 435 q 539 594 589 558 q 424 629 489 629 q 303 594 356 629 q 223 497 251 558 q 196 354 194 435 q 227 212 197 274 q 310 115 257 150 q 429 79 363 79 m 632 868 l 215 868 l 215 965 l 632 965 l 632 868 z "},"ø":{"ha":833,"x_min":68,"x_max":750,"o":"m 92 354 q 134 547 92 464 q 251 678 176 631 q 424 726 326 726 q 603 672 525 726 l 646 726 l 749 726 l 663 617 q 727 501 704 568 q 750 354 750 433 q 709 162 750 246 q 596 30 668 78 q 429 -18 524 -18 q 315 1 368 -18 q 219 54 261 19 l 171 -7 l 68 -7 l 164 114 q 110 222 129 161 q 92 354 92 283 m 196 354 q 232 201 197 268 l 540 593 q 424 629 489 629 q 303 594 356 629 q 223 497 251 558 q 196 354 194 435 m 429 79 q 542 115 493 79 q 618 212 590 150 q 646 354 646 274 q 597 533 646 460 l 283 136 q 429 79 344 79 z "},"ǿ":{"ha":833,"x_min":68,"x_max":750,"o":"m 92 354 q 134 547 92 464 q 251 678 176 631 q 424 726 326 726 q 603 672 525 726 l 646 726 l 749 726 l 663 617 q 727 501 704 568 q 750 354 750 433 q 709 162 750 246 q 596 30 668 78 q 429 -18 524 -18 q 315 1 368 -18 q 219 54 261 19 l 171 -7 l 68 -7 l 164 114 q 110 222 129 161 q 92 354 92 283 m 196 354 q 232 201 197 268 l 540 593 q 424 629 489 629 q 303 594 356 629 q 223 497 251 558 q 196 354 194 435 m 429 79 q 542 115 493 79 q 618 212 590 150 q 646 354 646 274 q 597 533 646 460 l 283 136 q 429 79 344 79 m 324 853 l 293 938 l 606 1050 l 636 965 l 324 853 z "},"õ":{"ha":833,"x_min":92,"x_max":750,"o":"m 92 354 q 134 547 92 464 q 251 678 176 631 q 424 726 326 726 q 593 678 519 726 q 708 547 667 631 q 750 354 750 464 q 709 162 750 246 q 596 30 668 78 q 429 -18 524 -18 q 253 30 329 -18 q 135 162 178 78 q 92 354 92 246 m 429 79 q 542 115 493 79 q 618 212 590 150 q 646 354 646 274 q 617 497 646 435 q 539 594 589 558 q 424 629 489 629 q 303 594 356 629 q 223 497 251 558 q 196 354 194 435 q 227 212 197 274 q 310 115 257 150 q 429 79 363 79 m 181 868 q 220 1001 181 953 q 324 1050 260 1050 q 393 1033 365 1050 q 440 996 421 1017 q 478 960 460 975 q 518 944 496 944 q 565 969 547 944 q 583 1042 582 994 l 667 1042 q 626 911 667 960 q 522 863 586 863 q 458 878 483 863 q 413 915 432 894 q 374 951 393 935 q 329 967 356 967 q 265 868 268 967 l 181 868 z "},"œ":{"ha":833,"x_min":36,"x_max":721,"o":"m 356 710 l 721 710 l 721 619 l 453 619 l 453 399 l 679 399 l 679 308 l 453 308 l 453 90 l 721 90 l 721 0 l 356 0 q 119 100 201 7 q 36 361 36 193 q 119 615 36 525 q 356 710 201 706 m 126 361 q 186 174 126 243 q 356 97 246 106 l 356 613 q 186 543 246 608 q 126 361 126 478 z "},"p":{"ha":833,"x_min":113,"x_max":767,"o":"m 113 694 l 217 694 l 217 624 q 315 699 257 672 q 446 726 374 726 q 681 629 594 726 q 767 365 767 532 q 728 161 767 247 q 617 28 689 75 q 446 -18 544 -18 q 217 92 299 -18 l 217 -315 l 113 -315 l 113 694 m 663 365 q 603 560 663 489 q 443 632 544 632 q 278 560 339 632 q 217 365 217 489 q 278 154 217 232 q 443 76 339 76 q 603 154 544 76 q 663 365 663 232 z "},"þ":{"ha":833,"x_min":118,"x_max":767,"o":"m 222 78 l 222 -278 l 118 -278 l 118 972 l 222 972 l 222 624 q 446 726 304 726 q 617 680 544 726 q 728 547 689 633 q 767 343 767 461 q 681 79 767 176 q 446 -18 594 -18 q 319 7 375 -18 q 222 78 263 32 m 222 343 q 283 150 222 221 q 446 79 343 79 q 604 150 546 79 q 663 343 663 221 q 604 552 663 475 q 446 629 546 629 q 283 552 343 629 q 222 343 222 475 z "},"q":{"ha":833,"x_min":72,"x_max":726,"o":"m 622 624 l 622 694 l 726 694 l 726 -315 l 622 -315 l 622 92 q 393 -18 540 -18 q 222 28 294 -18 q 111 161 150 75 q 72 365 72 247 q 159 629 72 532 q 393 726 246 726 q 525 699 467 726 q 622 624 583 672 m 176 365 q 235 154 176 232 q 396 76 294 76 q 561 154 500 76 q 622 365 622 232 q 561 560 622 489 q 396 632 500 632 q 235 560 294 632 q 176 365 176 489 z "},"r":{"ha":833,"x_min":214,"x_max":765,"o":"m 214 0 l 214 694 l 765 694 l 765 590 l 318 590 l 318 0 l 214 0 z "},"ŕ":{"ha":833,"x_min":214,"x_max":765,"o":"m 214 0 l 214 694 l 765 694 l 765 590 l 318 590 l 318 0 l 214 0 m 400 853 l 369 938 l 682 1050 l 713 965 l 400 853 z "},"ř":{"ha":833,"x_min":214,"x_max":765,"o":"m 214 0 l 214 694 l 765 694 l 765 590 l 318 590 l 318 0 l 214 0 m 500 854 l 271 1006 l 321 1081 l 500 963 l 678 1081 l 728 1006 l 500 854 z "},"ŗ":{"ha":833,"x_min":161,"x_max":765,"o":"m 214 0 l 214 694 l 765 694 l 765 590 l 318 590 l 318 0 l 214 0 m 161 -385 l 161 -315 l 281 -317 l 281 -257 l 178 -257 l 178 -111 l 354 -111 l 354 -386 l 161 -385 z "},"s":{"ha":833,"x_min":124,"x_max":706,"o":"m 447 -19 q 214 54 301 -19 q 124 253 126 128 l 228 253 q 289 124 231 172 q 444 78 347 76 q 560 108 515 79 q 604 182 606 138 q 568 251 603 222 q 451 308 533 281 l 364 339 q 210 420 257 376 q 161 528 164 464 q 190 631 160 586 q 277 701 221 675 q 408 726 333 726 q 615 662 538 728 q 696 481 693 596 l 592 479 q 533 589 582 549 q 411 629 485 629 q 304 600 344 629 q 265 526 264 571 q 297 472 267 496 q 397 424 326 449 l 486 393 q 651 309 601 354 q 703 197 701 264 q 674 85 706 133 q 583 8 642 36 q 447 -19 525 -19 z "},"ś":{"ha":833,"x_min":124,"x_max":706,"o":"m 447 -19 q 214 54 301 -19 q 124 253 126 128 l 228 253 q 289 124 231 172 q 444 78 347 76 q 560 108 515 79 q 604 182 606 138 q 568 251 603 222 q 451 308 533 281 l 364 339 q 210 420 257 376 q 161 528 164 464 q 190 631 160 586 q 277 701 221 675 q 408 726 333 726 q 615 662 538 728 q 696 481 693 596 l 592 479 q 533 589 582 549 q 411 629 485 629 q 304 600 344 629 q 265 526 264 571 q 297 472 267 496 q 397 424 326 449 l 486 393 q 651 309 601 354 q 703 197 701 264 q 674 85 706 133 q 583 8 642 36 q 447 -19 525 -19 m 317 853 l 286 938 l 599 1050 l 629 965 l 317 853 z "},"š":{"ha":833,"x_min":124,"x_max":706,"o":"m 447 -19 q 214 54 301 -19 q 124 253 126 128 l 228 253 q 289 124 231 172 q 444 78 347 76 q 560 108 515 79 q 604 182 606 138 q 568 251 603 222 q 451 308 533 281 l 364 339 q 210 420 257 376 q 161 528 164 464 q 190 631 160 586 q 277 701 221 675 q 408 726 333 726 q 615 662 538 728 q 696 481 693 596 l 592 479 q 533 589 582 549 q 411 629 485 629 q 304 600 344 629 q 265 526 264 571 q 297 472 267 496 q 397 424 326 449 l 486 393 q 651 309 601 354 q 703 197 701 264 q 674 85 706 133 q 583 8 642 36 q 447 -19 525 -19 m 417 854 l 188 1006 l 238 1081 l 417 963 l 594 1081 l 644 1006 l 417 854 z "},"ş":{"ha":833,"x_min":124,"x_max":706,"o":"m 447 -19 q 214 54 301 -19 q 124 253 126 128 l 228 253 q 289 124 231 172 q 444 78 347 76 q 560 108 515 79 q 604 182 606 138 q 568 251 603 222 q 451 308 533 281 l 364 339 q 210 420 257 376 q 161 528 164 464 q 190 631 160 586 q 277 701 221 675 q 408 726 333 726 q 615 662 538 728 q 696 481 693 596 l 592 479 q 533 589 582 549 q 411 629 485 629 q 304 600 344 629 q 265 526 264 571 q 297 472 267 496 q 397 424 326 449 l 486 393 q 651 309 601 354 q 703 197 701 264 q 674 85 706 133 q 583 8 642 36 q 447 -19 525 -19 m 431 -328 l 293 -328 l 293 -237 l 444 -237 q 494 -190 494 -237 q 444 -147 494 -147 l 350 -147 l 368 43 l 461 43 l 449 -79 l 464 -79 q 552 -108 521 -79 q 583 -190 583 -137 q 543 -291 583 -254 q 431 -328 503 -328 z "},"ŝ":{"ha":833,"x_min":124,"x_max":706,"o":"m 447 -19 q 214 54 301 -19 q 124 253 126 128 l 228 253 q 289 124 231 172 q 444 78 347 76 q 560 108 515 79 q 604 182 606 138 q 568 251 603 222 q 451 308 533 281 l 364 339 q 210 420 257 376 q 161 528 164 464 q 190 631 160 586 q 277 701 221 675 q 408 726 333 726 q 615 662 538 728 q 696 481 693 596 l 592 479 q 533 589 582 549 q 411 629 485 629 q 304 600 344 629 q 265 526 264 571 q 297 472 267 496 q 397 424 326 449 l 486 393 q 651 309 601 354 q 703 197 701 264 q 674 85 706 133 q 583 8 642 36 q 447 -19 525 -19 m 238 854 l 188 929 l 417 1081 l 644 929 l 594 854 l 417 972 l 238 854 z "},"ș":{"ha":833,"x_min":124,"x_max":706,"o":"m 447 -19 q 214 54 301 -19 q 124 253 126 128 l 228 253 q 289 124 231 172 q 444 78 347 76 q 560 108 515 79 q 604 182 606 138 q 568 251 603 222 q 451 308 533 281 l 364 339 q 210 420 257 376 q 161 528 164 464 q 190 631 160 586 q 277 701 221 675 q 408 726 333 726 q 615 662 538 728 q 696 481 693 596 l 592 479 q 533 589 582 549 q 411 629 485 629 q 304 600 344 629 q 265 526 264 571 q 297 472 267 496 q 397 424 326 449 l 486 393 q 651 309 601 354 q 703 197 701 264 q 674 85 706 133 q 583 8 642 36 q 447 -19 525 -19 m 307 -385 l 307 -315 l 426 -317 l 426 -257 l 324 -257 l 324 -111 l 500 -111 l 500 -386 l 307 -385 z "},"ß":{"ha":833,"x_min":136,"x_max":797,"o":"m 447 1015 q 669 947 588 1015 q 751 747 751 879 q 714 614 751 668 q 611 544 676 560 q 747 455 697 529 q 797 268 797 381 q 711 72 797 144 q 476 0 625 0 l 385 0 l 385 97 l 497 97 q 640 147 588 97 q 693 281 693 196 q 636 436 693 379 q 481 493 579 493 l 385 493 l 385 592 l 467 592 q 594 631 544 592 q 644 731 644 669 q 594 868 644 821 q 467 915 544 915 q 401 907 439 915 q 326 870 363 899 q 265 779 289 842 q 240 608 240 717 l 240 0 l 136 0 l 136 660 q 169 842 136 772 q 253 950 203 913 q 356 1001 303 988 q 447 1015 408 1015 z "},"t":{"ha":833,"x_min":64,"x_max":693,"o":"m 579 97 l 693 97 l 693 0 l 560 0 q 360 51 429 0 q 290 239 290 101 l 290 571 l 64 571 l 64 668 l 290 668 l 290 885 l 394 885 l 394 668 l 690 668 l 690 571 l 394 571 l 394 253 q 410 157 394 190 q 465 110 425 124 q 579 97 506 97 z "},"ŧ":{"ha":833,"x_min":64,"x_max":690,"o":"m 579 97 l 686 97 l 686 0 l 560 0 q 360 51 429 0 q 290 239 290 101 l 290 353 l 64 353 l 64 436 l 290 436 l 290 571 l 64 571 l 64 668 l 290 668 l 290 885 l 394 885 l 394 668 l 690 668 l 690 571 l 394 571 l 394 436 l 690 436 l 690 353 l 394 353 l 394 253 q 410 157 394 190 q 465 110 425 124 q 579 97 506 97 z "},"ť":{"ha":833,"x_min":64,"x_max":693,"o":"m 607 832 l 519 832 l 519 968 l 451 968 l 451 1121 l 607 1121 l 607 832 m 579 97 l 693 97 l 693 0 l 560 0 q 360 51 429 0 q 290 239 290 101 l 290 571 l 64 571 l 64 668 l 290 668 l 290 885 l 394 885 l 394 668 l 690 668 l 690 571 l 394 571 l 394 253 q 410 157 394 190 q 465 110 425 124 q 579 97 506 97 z "},"ţ":{"ha":833,"x_min":64,"x_max":693,"o":"m 579 97 l 693 97 l 693 0 l 560 0 q 360 51 429 0 q 290 239 290 101 l 290 571 l 64 571 l 64 668 l 290 668 l 290 885 l 394 885 l 394 668 l 690 668 l 690 571 l 394 571 l 394 253 q 410 157 394 190 q 465 110 425 124 q 579 97 506 97 m 458 -328 l 321 -328 l 321 -237 l 472 -237 q 522 -190 522 -237 q 472 -147 522 -147 l 378 -147 l 396 43 l 489 43 l 476 -79 l 492 -79 q 580 -108 549 -79 q 611 -190 611 -137 q 571 -291 611 -254 q 458 -328 531 -328 z "},"u":{"ha":833,"x_min":129,"x_max":717,"o":"m 613 97 l 613 694 l 717 694 l 717 0 l 399 0 q 199 56 268 0 q 129 239 129 113 l 129 694 l 233 694 l 233 253 q 249 163 233 197 q 303 113 264 129 q 418 97 343 97 l 613 97 z "},"ú":{"ha":833,"x_min":129,"x_max":717,"o":"m 613 97 l 613 694 l 717 694 l 717 0 l 399 0 q 199 56 268 0 q 129 239 129 113 l 129 694 l 233 694 l 233 253 q 249 163 233 197 q 303 113 264 129 q 418 97 343 97 l 613 97 m 317 853 l 286 938 l 599 1050 l 629 965 l 317 853 z "},"ŭ":{"ha":833,"x_min":129,"x_max":717,"o":"m 613 97 l 613 694 l 717 694 l 717 0 l 399 0 q 199 56 268 0 q 129 239 129 113 l 129 694 l 233 694 l 233 253 q 249 163 233 197 q 303 113 264 129 q 418 97 343 97 l 613 97 m 188 1031 l 278 1031 q 300 983 278 1003 q 355 954 322 964 q 417 944 388 944 q 478 954 446 944 q 532 983 510 964 q 554 1031 554 1003 l 644 1031 q 612 937 644 976 q 527 876 579 897 q 417 854 475 854 q 307 876 360 854 q 221 937 254 897 q 188 1031 188 976 z "},"ǔ":{"ha":833,"x_min":129,"x_max":717,"o":"m 613 97 l 613 694 l 717 694 l 717 0 l 399 0 q 199 56 268 0 q 129 239 129 113 l 129 694 l 233 694 l 233 253 q 249 163 233 197 q 303 113 264 129 q 418 97 343 97 l 613 97 m 417 854 l 188 1006 l 238 1081 l 417 963 l 594 1081 l 644 1006 l 417 854 z "},"û":{"ha":833,"x_min":129,"x_max":717,"o":"m 613 97 l 613 694 l 717 694 l 717 0 l 399 0 q 199 56 268 0 q 129 239 129 113 l 129 694 l 233 694 l 233 253 q 249 163 233 197 q 303 113 264 129 q 418 97 343 97 l 613 97 m 238 854 l 188 929 l 417 1081 l 644 929 l 594 854 l 417 972 l 238 854 z "},"ü":{"ha":833,"x_min":129,"x_max":717,"o":"m 613 97 l 613 694 l 717 694 l 717 0 l 399 0 q 199 56 268 0 q 129 239 129 113 l 129 694 l 233 694 l 233 253 q 249 163 233 197 q 303 113 264 129 q 418 97 343 97 l 613 97 m 349 868 l 231 868 l 231 986 l 349 986 l 349 868 m 603 868 l 485 868 l 485 986 l 603 986 l 603 868 z "},"ù":{"ha":833,"x_min":129,"x_max":717,"o":"m 613 97 l 613 694 l 717 694 l 717 0 l 399 0 q 199 56 268 0 q 129 239 129 113 l 129 694 l 233 694 l 233 253 q 249 163 233 197 q 303 113 264 129 q 418 97 343 97 l 613 97 m 235 1050 l 547 938 l 517 853 l 204 965 l 235 1050 z "},"ű":{"ha":833,"x_min":129,"x_max":717,"o":"m 613 97 l 613 694 l 717 694 l 717 0 l 399 0 q 199 56 268 0 q 129 239 129 113 l 129 694 l 233 694 l 233 253 q 249 163 233 197 q 303 113 264 129 q 418 97 343 97 l 613 97 m 301 854 l 233 906 l 371 1094 l 446 1036 l 301 854 m 531 854 l 461 906 l 599 1094 l 675 1036 l 531 854 z "},"ū":{"ha":833,"x_min":129,"x_max":717,"o":"m 613 97 l 613 694 l 717 694 l 717 0 l 399 0 q 199 56 268 0 q 129 239 129 113 l 129 694 l 233 694 l 233 253 q 249 163 233 197 q 303 113 264 129 q 418 97 343 97 l 613 97 m 625 868 l 208 868 l 208 965 l 625 965 l 625 868 z "},"ų":{"ha":833,"x_min":129,"x_max":717,"o":"m 613 97 l 613 694 l 717 694 l 717 0 l 399 0 q 199 56 268 0 q 129 239 129 113 l 129 694 l 233 694 l 233 253 q 249 163 233 197 q 303 113 264 129 q 418 97 343 97 l 613 97 m 517 -282 l 428 -282 q 336 -255 369 -282 q 303 -178 303 -228 q 313 -133 303 -153 q 339 -89 324 -114 l 394 0 l 499 0 l 425 -117 q 414 -133 419 -126 q 408 -151 408 -140 q 450 -186 408 -186 l 517 -186 l 517 -282 z "},"ů":{"ha":833,"x_min":129,"x_max":717,"o":"m 613 97 l 613 694 l 717 694 l 717 0 l 399 0 q 199 56 268 0 q 129 239 129 113 l 129 694 l 233 694 l 233 253 q 249 163 233 197 q 303 113 264 129 q 418 97 343 97 l 613 97 m 265 1006 q 286 1081 265 1047 q 342 1136 307 1115 q 417 1157 376 1157 q 492 1136 458 1157 q 547 1081 526 1115 q 568 1006 568 1047 q 547 931 568 965 q 492 875 526 896 q 417 854 458 854 q 342 875 376 854 q 286 931 307 896 q 265 1006 265 965 m 349 1006 q 369 958 349 979 q 417 938 390 938 q 464 958 443 938 q 485 1006 485 979 q 464 1053 485 1032 q 417 1074 443 1074 q 369 1053 390 1074 q 349 1006 349 1032 z "},"ũ":{"ha":833,"x_min":129,"x_max":717,"o":"m 613 97 l 613 694 l 717 694 l 717 0 l 399 0 q 199 56 268 0 q 129 239 129 113 l 129 694 l 233 694 l 233 253 q 249 163 233 197 q 303 113 264 129 q 418 97 343 97 l 613 97 m 174 868 q 213 1001 174 953 q 317 1050 253 1050 q 386 1033 358 1050 q 433 996 414 1017 q 471 960 453 975 q 511 944 489 944 q 558 969 540 944 q 576 1042 575 994 l 660 1042 q 619 911 660 960 q 515 863 579 863 q 451 878 476 863 q 406 915 425 894 q 367 951 386 935 q 322 967 349 967 q 258 868 261 967 l 174 868 z "},"v":{"ha":833,"x_min":72,"x_max":763,"o":"m 479 0 l 356 0 l 72 694 l 188 694 l 418 131 l 647 694 l 763 694 l 479 0 z "},"w":{"ha":833,"x_min":47,"x_max":788,"o":"m 275 0 l 178 0 l 47 694 l 151 694 l 236 174 l 364 694 l 469 694 l 599 169 l 683 694 l 788 694 l 656 0 l 558 0 l 417 572 l 275 0 z "},"ẃ":{"ha":833,"x_min":47,"x_max":788,"o":"m 275 0 l 178 0 l 47 694 l 151 694 l 236 174 l 364 694 l 469 694 l 599 169 l 683 694 l 788 694 l 656 0 l 558 0 l 417 572 l 275 0 m 317 853 l 286 938 l 599 1050 l 629 965 l 317 853 z "},"ŵ":{"ha":833,"x_min":47,"x_max":788,"o":"m 275 0 l 178 0 l 47 694 l 151 694 l 236 174 l 364 694 l 469 694 l 599 169 l 683 694 l 788 694 l 656 0 l 558 0 l 417 572 l 275 0 m 238 854 l 188 929 l 417 1081 l 644 929 l 594 854 l 417 972 l 238 854 z "},"ẅ":{"ha":833,"x_min":47,"x_max":788,"o":"m 275 0 l 178 0 l 47 694 l 151 694 l 236 174 l 364 694 l 469 694 l 599 169 l 683 694 l 788 694 l 656 0 l 558 0 l 417 572 l 275 0 m 349 868 l 231 868 l 231 986 l 349 986 l 349 868 m 603 868 l 485 868 l 485 986 l 603 986 l 603 868 z "},"ẁ":{"ha":833,"x_min":47,"x_max":788,"o":"m 275 0 l 178 0 l 47 694 l 151 694 l 236 174 l 364 694 l 469 694 l 599 169 l 683 694 l 788 694 l 656 0 l 558 0 l 417 572 l 275 0 m 235 1050 l 547 938 l 517 853 l 204 965 l 235 1050 z "},"x":{"ha":833,"x_min":96,"x_max":747,"o":"m 108 694 l 233 694 l 422 438 l 614 694 l 739 694 l 489 350 l 747 0 l 622 0 l 426 265 l 235 0 l 96 0 l 360 354 l 108 694 z "},"y":{"ha":833,"x_min":100,"x_max":761,"o":"m 404 -253 l 133 -253 l 133 -156 l 324 -156 l 383 0 l 100 694 l 215 694 l 439 147 l 646 694 l 761 694 l 404 -253 z "},"ý":{"ha":833,"x_min":100,"x_max":761,"o":"m 404 -253 l 133 -253 l 133 -156 l 324 -156 l 383 0 l 100 694 l 215 694 l 439 147 l 646 694 l 761 694 l 404 -253 m 331 853 l 300 938 l 613 1050 l 643 965 l 331 853 z "},"ŷ":{"ha":833,"x_min":100,"x_max":761,"o":"m 404 -253 l 133 -253 l 133 -156 l 324 -156 l 383 0 l 100 694 l 215 694 l 439 147 l 646 694 l 761 694 l 404 -253 m 251 854 l 201 929 l 431 1081 l 658 929 l 608 854 l 431 972 l 251 854 z "},"ÿ":{"ha":833,"x_min":100,"x_max":761,"o":"m 404 -253 l 133 -253 l 133 -156 l 324 -156 l 383 0 l 100 694 l 215 694 l 439 147 l 646 694 l 761 694 l 404 -253 m 363 868 l 244 868 l 244 986 l 363 986 l 363 868 m 617 868 l 499 868 l 499 986 l 617 986 l 617 868 z "},"ỳ":{"ha":833,"x_min":100,"x_max":761,"o":"m 404 -253 l 133 -253 l 133 -156 l 324 -156 l 383 0 l 100 694 l 215 694 l 439 147 l 646 694 l 761 694 l 404 -253 m 249 1050 l 561 938 l 531 853 l 218 965 l 249 1050 z "},"z":{"ha":833,"x_min":131,"x_max":725,"o":"m 725 0 l 131 0 l 131 104 l 568 590 l 150 590 l 150 694 l 706 694 l 706 590 l 268 104 l 725 104 l 725 0 z "},"ź":{"ha":833,"x_min":131,"x_max":725,"o":"m 725 0 l 131 0 l 131 104 l 568 590 l 150 590 l 150 694 l 706 694 l 706 590 l 268 104 l 725 104 l 725 0 m 317 853 l 286 938 l 599 1050 l 629 965 l 317 853 z "},"ž":{"ha":833,"x_min":131,"x_max":725,"o":"m 725 0 l 131 0 l 131 104 l 568 590 l 150 590 l 150 694 l 706 694 l 706 590 l 268 104 l 725 104 l 725 0 m 417 854 l 188 1006 l 238 1081 l 417 963 l 594 1081 l 644 1006 l 417 854 z "},"ż":{"ha":833,"x_min":131,"x_max":725,"o":"m 725 0 l 131 0 l 131 104 l 568 590 l 150 590 l 150 694 l 706 694 l 706 590 l 268 104 l 725 104 l 725 0 m 350 868 l 350 1000 l 482 1000 l 482 868 l 350 868 z "},"ﬁ":{"ha":926,"x_min":86,"x_max":899,"o":"m 708 1011 l 708 914 l 504 914 q 390 898 431 914 q 335 848 350 882 q 319 758 319 814 l 319 694 l 644 694 l 644 97 l 899 97 l 899 0 l 215 0 l 215 597 l 86 597 l 86 694 l 215 694 l 215 772 q 285 956 215 900 q 485 1011 354 1011 l 708 1011 m 319 597 l 319 97 l 540 97 l 540 597 l 319 597 z "},"ﬂ":{"ha":982,"x_min":86,"x_max":926,"o":"m 736 1011 l 736 97 l 926 97 l 926 0 l 215 0 l 215 597 l 86 597 l 86 694 l 215 694 l 215 772 q 285 956 215 900 q 485 1011 354 1011 l 736 1011 m 319 597 l 319 97 l 632 97 l 632 914 l 504 914 q 390 898 431 914 q 335 848 350 882 q 319 758 319 814 l 319 694 l 506 694 l 506 597 l 319 597 z "},"ª":{"ha":833,"x_min":151,"x_max":681,"o":"m 382 810 q 475 793 436 810 q 531 756 514 776 l 536 749 l 536 894 l 222 894 l 222 986 l 633 986 l 633 431 l 536 431 l 536 483 l 531 478 q 468 433 504 451 q 388 415 432 415 q 226 472 289 415 q 164 617 164 528 q 224 756 164 701 q 382 810 285 810 m 261 617 q 298 538 261 568 q 394 507 335 507 q 497 538 457 507 q 536 617 536 568 q 495 690 536 661 q 389 718 454 718 q 297 690 333 718 q 261 617 261 661 m 681 256 l 151 256 l 151 347 l 681 347 l 681 256 z "},"º":{"ha":833,"x_min":153,"x_max":682,"o":"m 156 713 q 190 867 156 800 q 283 972 224 935 q 421 1010 343 1010 q 556 972 497 1010 q 649 867 615 935 q 682 713 682 800 q 649 558 682 625 q 559 453 617 492 q 425 415 501 415 q 285 453 346 415 q 190 558 225 492 q 156 713 156 625 m 425 507 q 540 565 496 507 q 585 713 585 622 q 539 860 585 803 q 421 918 493 918 q 299 860 346 918 q 253 713 251 803 q 302 565 254 622 q 425 507 350 507 m 682 254 l 153 254 l 153 346 l 682 346 l 682 254 z "},"ᄀ":{"ha":1250,"x_min":199,"x_max":1036,"o":"m 939 864 l 199 863 l 199 953 l 1036 954 l 1036 474 l 939 474 l 939 864 z "},"ᄁ":{"ha":1250,"x_min":214,"x_max":1047,"o":"m 549 853 l 214 853 l 214 943 l 1047 944 l 1047 446 l 950 446 l 950 854 l 646 854 l 646 446 l 549 446 l 549 853 z "},"ᄂ":{"ha":1250,"x_min":203,"x_max":1054,"o":"m 203 499 l 203 589 l 204 956 l 301 956 l 300 589 l 1054 589 l 1054 499 l 203 499 z "},"ᄃ":{"ha":1250,"x_min":204,"x_max":1046,"o":"m 204 472 l 204 956 l 1013 956 l 1013 865 l 301 865 l 301 563 l 1046 563 l 1046 472 l 204 472 z "},"ᄄ":{"ha":1250,"x_min":208,"x_max":1042,"o":"m 208 475 l 208 944 l 1028 944 l 1028 854 l 700 854 l 700 565 l 1042 565 l 1042 475 l 208 475 m 306 854 l 306 565 l 603 565 l 603 854 l 306 854 z "},"ᄅ":{"ha":1250,"x_min":203,"x_max":1064,"o":"m 939 871 l 203 871 l 203 961 l 1036 961 l 1036 674 l 300 674 l 300 554 l 1064 554 l 1064 464 l 203 464 l 203 764 l 939 764 l 939 871 z "},"ᄆ":{"ha":1250,"x_min":210,"x_max":1032,"o":"m 210 468 l 210 950 l 1032 950 l 1032 468 l 210 468 m 307 860 l 307 558 l 935 558 l 935 860 l 307 860 z "},"ᄇ":{"ha":1250,"x_min":210,"x_max":1032,"o":"m 210 468 l 210 950 l 307 950 l 307 808 l 935 808 l 935 950 l 1032 950 l 1032 468 l 210 468 m 307 718 l 307 558 l 935 558 l 935 718 l 307 718 z "},"ᄈ":{"ha":1250,"x_min":210,"x_max":1029,"o":"m 210 476 l 210 953 l 300 953 l 300 814 l 575 814 l 575 953 l 665 953 l 665 814 l 939 814 l 939 953 l 1029 953 l 1029 476 l 210 476 m 300 731 l 300 560 l 575 560 l 575 731 l 300 731 m 665 731 l 665 560 l 939 560 l 939 731 l 665 731 z "},"ᄉ":{"ha":1250,"x_min":199,"x_max":1068,"o":"m 588 800 l 588 1010 l 685 1010 l 685 794 l 1068 532 l 1006 468 l 632 724 l 261 469 l 199 533 l 588 800 z "},"ᄊ":{"ha":1250,"x_min":124,"x_max":1126,"o":"m 815 743 l 815 986 l 910 986 l 910 725 l 1126 513 l 1060 454 l 851 660 l 626 461 l 413 661 l 190 456 l 124 514 l 360 731 l 360 988 l 454 988 l 454 743 l 626 582 l 815 743 z "},"ᄋ":{"ha":1250,"x_min":210,"x_max":1032,"o":"m 621 465 q 402 497 494 465 q 260 588 310 529 q 210 725 210 646 q 260 864 210 806 q 402 954 310 922 q 621 986 494 986 q 840 954 747 986 q 982 864 932 922 q 1032 725 1032 806 q 982 588 1032 646 q 840 497 932 529 q 621 465 747 465 m 307 725 q 392 601 307 647 q 621 556 476 556 q 850 601 765 556 q 935 725 935 647 q 850 850 935 804 q 621 896 765 896 q 392 850 476 896 q 307 725 307 804 z "},"ᄌ":{"ha":1250,"x_min":149,"x_max":1101,"o":"m 579 868 l 200 868 l 200 958 l 1050 958 l 1050 868 l 676 868 l 676 768 l 1101 490 l 1039 426 l 624 697 l 211 428 l 149 492 l 579 774 l 579 868 z "},"ᄍ":{"ha":1250,"x_min":89,"x_max":1161,"o":"m 336 857 l 132 857 l 132 947 l 1115 947 l 1115 857 l 910 857 l 910 717 l 1161 513 l 1101 447 l 856 649 l 626 447 l 389 651 l 149 449 l 89 514 l 336 719 l 336 857 m 431 857 l 431 731 l 626 568 l 815 729 l 815 857 l 431 857 z "},"ᄎ":{"ha":1250,"x_min":156,"x_max":1094,"o":"m 579 878 l 579 994 l 676 994 l 676 878 l 1050 878 l 1050 788 l 676 788 l 676 690 l 1094 458 l 1039 388 l 624 619 l 211 389 l 156 460 l 579 694 l 579 788 l 200 788 l 200 878 l 579 878 z "},"ᄏ":{"ha":1250,"x_min":199,"x_max":1043,"o":"m 946 864 l 199 863 l 199 953 l 1043 954 l 1043 433 l 946 433 l 946 626 l 199 625 l 199 715 l 946 717 l 946 864 z "},"ᄐ":{"ha":1250,"x_min":203,"x_max":1054,"o":"m 203 468 l 203 967 l 1040 967 l 1040 876 l 300 876 l 300 760 l 1011 760 l 1011 669 l 300 669 l 300 558 l 1054 558 l 1054 468 l 203 468 z "},"ᄑ":{"ha":1250,"x_min":174,"x_max":1076,"o":"m 408 865 l 174 865 l 174 956 l 1076 956 l 1076 865 l 842 865 l 842 565 l 1076 565 l 1076 475 l 174 475 l 174 565 l 408 565 l 408 865 m 506 865 l 506 565 l 744 565 l 744 865 l 506 865 z "},"ᄒ":{"ha":1250,"x_min":215,"x_max":1033,"o":"m 1033 829 l 215 829 l 215 915 l 578 915 l 578 1017 l 671 1017 l 671 915 l 1033 915 l 1033 829 m 628 418 q 272 599 272 418 q 628 782 272 782 q 978 599 978 782 q 628 418 978 418 m 365 600 q 625 504 365 504 q 885 600 885 504 q 626 694 885 694 q 365 600 365 694 z "},"ᅡ":{"ha":1250,"x_min":832,"x_max":1238,"o":"m 1019 343 l 922 343 l 922 969 l 832 969 l 832 1060 l 1019 1060 l 1019 751 l 1238 751 l 1238 661 l 1019 661 l 1019 343 z "},"ᅢ":{"ha":1250,"x_min":664,"x_max":1103,"o":"m 851 356 l 754 356 l 754 985 l 664 985 l 664 1075 l 851 1075 l 851 750 l 1006 750 l 1006 1075 l 1103 1075 l 1103 356 l 1006 356 l 1006 660 l 851 660 l 851 356 z "},"ᅣ":{"ha":1250,"x_min":838,"x_max":1243,"o":"m 1025 357 l 928 357 l 928 971 l 838 971 l 838 1061 l 1025 1061 l 1025 890 l 1243 890 l 1243 800 l 1025 800 l 1025 619 l 1243 619 l 1243 529 l 1025 529 l 1025 357 z "},"ᅤ":{"ha":1250,"x_min":717,"x_max":1104,"o":"m 904 356 l 807 356 l 807 985 l 717 985 l 717 1075 l 904 1075 l 904 894 l 1007 894 l 1007 1075 l 1104 1075 l 1104 356 l 1007 356 l 1007 532 l 904 532 l 904 356 m 904 804 l 904 622 l 1007 622 l 1007 804 l 904 804 z "},"ᅥ":{"ha":1250,"x_min":769,"x_max":1060,"o":"m 1060 351 l 963 351 l 963 675 l 769 675 l 769 765 l 963 765 l 963 983 l 872 983 l 872 1074 l 1060 1074 l 1060 351 z "},"ᅦ":{"ha":1250,"x_min":683,"x_max":1107,"o":"m 933 363 l 836 363 l 836 682 l 683 682 l 683 772 l 836 772 l 836 999 l 746 999 l 746 1089 l 933 1089 l 933 363 m 1107 363 l 1010 363 l 1010 1089 l 1107 1089 l 1107 363 z "},"ᅧ":{"ha":1250,"x_min":769,"x_max":1060,"o":"m 1060 346 l 963 346 l 963 531 l 769 531 l 769 621 l 963 621 l 963 794 l 769 794 l 769 885 l 963 885 l 963 983 l 872 983 l 872 1074 l 1060 1074 l 1060 346 z "},"ᅨ":{"ha":1250,"x_min":685,"x_max":1108,"o":"m 935 356 l 838 356 l 838 550 l 685 550 l 685 640 l 838 640 l 838 789 l 685 789 l 685 879 l 838 879 l 838 985 l 747 985 l 747 1075 l 935 1075 l 935 356 m 1108 356 l 1011 356 l 1011 1075 l 1108 1075 l 1108 356 z "},"ᅩ":{"ha":1250,"x_min":100,"x_max":1176,"o":"m 1176 368 l 100 368 l 100 458 l 590 458 l 590 578 l 688 578 l 688 458 l 1176 458 l 1176 368 z "},"ᅪ":{"ha":1250,"x_min":100,"x_max":1192,"o":"m 1019 254 l 922 254 l 922 347 l 100 347 l 100 438 l 421 438 l 421 546 l 518 546 l 518 438 l 922 438 l 922 965 l 832 965 l 832 1056 l 1019 1056 l 1019 747 l 1192 747 l 1192 657 l 1019 657 l 1019 254 z "},"ᅫ":{"ha":1250,"x_min":113,"x_max":1113,"o":"m 914 314 l 817 314 l 817 354 l 113 354 l 113 444 l 406 444 l 406 551 l 503 551 l 503 444 l 817 444 l 817 963 l 726 963 l 726 1053 l 914 1053 l 914 751 l 1015 751 l 1015 1053 l 1113 1053 l 1113 314 l 1015 314 l 1015 661 l 914 661 l 914 314 z "},"ᅬ":{"ha":1250,"x_min":65,"x_max":1061,"o":"m 964 356 l 65 356 l 65 446 l 417 446 l 417 596 l 514 596 l 514 446 l 964 446 l 964 963 l 874 963 l 874 1053 l 1061 1053 l 1061 292 l 964 292 l 964 356 z "},"ᅭ":{"ha":1250,"x_min":100,"x_max":1176,"o":"m 1176 365 l 100 365 l 100 456 l 424 456 l 424 588 l 521 588 l 521 456 l 753 456 l 753 588 l 850 588 l 850 456 l 1176 456 l 1176 365 z "},"ᅮ":{"ha":1250,"x_min":100,"x_max":1176,"o":"m 590 382 l 100 382 l 100 472 l 1176 472 l 1176 382 l 688 382 l 688 258 l 590 258 l 590 382 z "},"ᅯ":{"ha":1250,"x_min":75,"x_max":1061,"o":"m 1061 292 l 964 292 l 964 696 l 708 696 l 708 786 l 964 786 l 964 963 l 874 963 l 874 1053 l 1061 1053 l 1061 292 m 438 440 l 75 440 l 75 531 l 874 531 l 874 440 l 535 440 l 535 292 l 438 292 l 438 440 z "},"ᅰ":{"ha":1250,"x_min":74,"x_max":1097,"o":"m 1097 289 l 1000 289 l 1000 1039 l 1097 1039 l 1097 289 m 793 774 l 613 774 l 613 864 l 793 864 l 793 946 l 696 946 l 696 1036 l 890 1036 l 889 289 l 792 289 l 793 774 m 375 432 l 74 432 l 74 522 l 703 522 l 703 432 l 472 432 l 472 289 l 375 289 l 375 432 z "},"ᅱ":{"ha":1250,"x_min":65,"x_max":1061,"o":"m 514 299 l 417 299 l 417 418 l 65 418 l 65 508 l 964 508 l 964 963 l 874 963 l 874 1053 l 1061 1053 l 1061 299 l 964 299 l 964 418 l 514 418 l 514 299 z "},"ᅲ":{"ha":1250,"x_min":74,"x_max":1176,"o":"m 364 381 l 74 381 l 74 471 l 1176 471 l 1176 381 l 885 381 l 885 267 l 788 267 l 788 381 l 461 381 l 461 267 l 364 267 l 364 381 z "},"ᅳ":{"ha":1250,"x_min":60,"x_max":1190,"o":"m 1190 374 l 60 374 l 60 464 l 1190 464 l 1190 374 z "},"ᅴ":{"ha":1250,"x_min":65,"x_max":1061,"o":"m 964 389 l 65 389 l 65 479 l 964 479 l 964 963 l 874 963 l 874 1053 l 1061 1053 l 1061 269 l 964 269 l 964 389 z "},"ᅵ":{"ha":1250,"x_min":874,"x_max":1061,"o":"m 1061 360 l 964 360 l 964 968 l 874 968 l 874 1058 l 1061 1058 l 1061 360 z "},"ᆨ":{"ha":1250,"x_min":229,"x_max":1018,"o":"m 1018 -151 l 921 -151 l 921 197 l 229 197 l 229 288 l 1018 288 l 1018 -151 z "},"ᆩ":{"ha":1250,"x_min":201,"x_max":1015,"o":"m 539 221 l 201 221 l 201 308 l 1015 308 l 1015 -160 l 921 -160 l 921 221 l 633 221 l 633 -160 l 539 -160 l 539 221 z "},"ᆪ":{"ha":1250,"x_min":233,"x_max":1193,"o":"m 574 224 l 233 224 l 233 307 l 664 307 l 664 -39 l 847 169 l 847 325 l 942 325 l 942 169 l 1193 -115 l 1126 -174 l 894 90 l 664 -172 l 574 -172 l 574 224 z "},"ᆫ":{"ha":1250,"x_min":265,"x_max":1093,"o":"m 265 -139 l 265 246 l 363 246 l 363 -49 l 1093 -49 l 1093 -139 l 265 -139 z "},"ᆬ":{"ha":1250,"x_min":203,"x_max":1128,"o":"m 203 -132 l 203 290 l 300 290 l 300 -44 l 544 -44 l 768 99 l 768 231 l 582 231 l 582 318 l 1069 318 l 1069 231 l 865 231 l 865 96 l 867 97 l 1128 -71 l 1061 -132 l 817 25 l 572 -132 l 203 -132 z "},"ᆭ":{"ha":1250,"x_min":228,"x_max":1131,"o":"m 1131 207 l 538 207 l 538 297 l 804 297 l 804 394 l 899 394 l 899 297 l 1131 297 l 1131 207 m 228 -146 l 228 300 l 325 300 l 325 -56 l 618 -58 q 608 -6 608 -35 q 640 88 608 46 q 726 153 672 129 q 846 178 779 178 q 967 155 913 179 q 1052 89 1021 131 q 1083 -6 1083 47 q 1052 -97 1083 -56 q 967 -162 1021 -137 q 846 -186 913 -186 q 699 -149 763 -186 l 228 -146 m 699 -6 q 742 -74 699 -46 q 846 -103 785 -103 q 950 -74 907 -103 q 993 -6 993 -46 q 950 65 993 36 q 846 94 907 94 q 742 65 785 94 q 699 -6 699 36 z "},"ᆮ":{"ha":1250,"x_min":246,"x_max":1056,"o":"m 1056 -160 l 246 -160 l 246 296 l 1033 296 l 1033 206 l 343 206 l 343 -69 l 1056 -69 l 1056 -160 z "},"ᆯ":{"ha":1250,"x_min":246,"x_max":1078,"o":"m 1078 -172 l 246 -172 l 246 160 l 922 160 l 922 275 l 246 275 l 246 365 l 1019 365 l 1019 69 l 343 69 l 343 -82 l 1078 -82 l 1078 -172 z "},"ᆰ":{"ha":1250,"x_min":196,"x_max":1018,"o":"m 676 -149 l 197 -149 l 197 133 l 540 133 l 540 254 l 196 254 l 196 342 l 1018 342 l 1018 -149 l 924 -149 l 924 254 l 635 254 l 635 46 l 292 46 l 292 -61 l 676 -61 l 676 -149 z "},"ᆱ":{"ha":1250,"x_min":196,"x_max":1018,"o":"m 1018 -149 l 197 -149 l 197 133 l 453 133 l 453 254 l 196 254 l 196 342 l 547 342 l 547 46 l 292 46 l 292 -61 l 635 -61 l 635 342 l 1018 342 l 1018 -149 m 729 254 l 729 -61 l 924 -61 l 924 254 l 729 254 z "},"ᆲ":{"ha":1250,"x_min":196,"x_max":1018,"o":"m 1018 -175 l 197 -175 l 197 133 l 467 133 l 467 254 l 196 254 l 196 342 l 561 342 l 561 46 l 292 46 l 292 -87 l 635 -87 l 635 342 l 729 342 l 729 181 l 924 181 l 924 342 l 1018 342 l 1018 -175 m 729 93 l 729 -87 l 924 -87 l 924 93 l 729 93 z "},"ᆳ":{"ha":1250,"x_min":233,"x_max":1185,"o":"m 235 -160 l 235 165 l 517 165 l 517 268 l 233 268 l 233 356 l 611 356 l 611 78 l 328 78 l 328 -72 l 592 -72 l 829 178 l 829 365 l 924 365 l 924 174 l 1185 -101 l 1118 -160 l 875 97 l 631 -160 l 235 -160 z "},"ᆴ":{"ha":1250,"x_min":182,"x_max":1056,"o":"m 182 -160 l 182 129 l 483 129 l 483 218 l 182 218 l 182 306 l 578 306 l 578 42 l 276 42 l 276 -72 l 650 -72 l 650 306 l 1036 306 l 1036 218 l 744 218 l 744 118 l 1026 118 l 1026 31 l 744 31 l 744 -72 l 1056 -72 l 1056 -160 l 182 -160 z "},"ᆵ":{"ha":1250,"x_min":226,"x_max":1050,"o":"m 1050 -167 l 228 -167 l 228 158 l 515 158 l 515 258 l 226 258 l 226 342 l 606 342 l 606 75 l 318 75 l 318 -83 l 724 -83 l 724 258 l 642 258 l 642 342 l 1050 342 l 1050 258 l 982 258 l 982 -83 l 1050 -83 l 1050 -167 m 810 258 l 810 -83 l 896 -83 l 896 258 l 810 258 z "},"ᆶ":{"ha":1250,"x_min":203,"x_max":1096,"o":"m 1096 196 l 614 196 l 614 283 l 804 283 l 804 394 l 899 394 l 899 283 l 1096 283 l 1096 196 m 467 246 l 203 246 l 203 333 l 561 333 l 561 49 l 299 49 l 299 -74 l 629 -74 q 621 -21 621 -49 q 683 116 621 65 q 851 167 746 167 q 1028 117 963 168 q 1093 -21 1093 67 q 1028 -148 1093 -101 q 851 -194 963 -194 q 704 -161 761 -194 l 204 -161 l 204 136 l 467 136 l 467 246 m 715 -21 q 752 -83 715 -60 q 851 -107 789 -107 q 959 -83 919 -107 q 999 -21 999 -60 q 959 52 999 25 q 851 79 919 79 q 752 52 789 79 q 715 -21 715 25 z "},"ᆷ":{"ha":1250,"x_min":236,"x_max":1018,"o":"m 1018 -151 l 236 -151 l 236 288 l 1018 288 l 1018 -151 m 333 197 l 333 -61 l 921 -61 l 921 197 l 333 197 z "},"ᆸ":{"ha":1250,"x_min":222,"x_max":1018,"o":"m 1018 -151 l 222 -151 l 222 351 l 319 351 l 319 179 l 921 179 l 921 351 l 1018 351 l 1018 -151 m 319 89 l 319 -61 l 921 -61 l 921 89 l 319 89 z "},"ᆹ":{"ha":1250,"x_min":231,"x_max":1188,"o":"m 689 -149 l 231 -149 l 231 335 l 321 335 l 321 185 l 550 185 l 550 335 l 640 335 l 640 -65 l 654 -65 l 856 181 l 856 342 l 950 342 l 950 196 l 1188 -92 l 1122 -149 l 910 107 l 697 -149 l 689 -142 l 689 -149 m 321 101 l 321 -65 l 550 -65 l 550 101 l 321 101 z "},"ᆺ":{"ha":1250,"x_min":151,"x_max":1129,"o":"m 643 106 l 203 -164 l 151 -89 l 597 183 l 597 319 l 694 319 l 694 181 l 1129 -93 l 1078 -168 l 643 106 z "},"ᆻ":{"ha":1250,"x_min":100,"x_max":1167,"o":"m 167 -179 l 100 -121 l 371 124 l 371 313 l 465 313 l 465 114 l 639 -40 l 824 122 l 824 311 l 918 311 l 918 113 l 1167 -124 l 1100 -182 l 867 40 l 639 -165 l 413 43 l 167 -179 z "},"ᆼ":{"ha":1250,"x_min":240,"x_max":1040,"o":"m 640 -179 q 344 -117 447 -179 q 240 60 240 -54 q 344 237 240 175 q 640 299 447 299 q 937 237 833 299 q 1040 60 1040 175 q 937 -117 1040 -54 q 640 -179 833 -179 m 335 60 q 414 -52 335 -12 q 640 -92 493 -92 q 867 -52 788 -92 q 946 60 946 -12 q 867 172 946 133 q 640 211 788 211 q 414 172 493 211 q 335 60 335 133 z "},"ᆽ":{"ha":1250,"x_min":169,"x_max":1125,"o":"m 600 203 l 225 203 l 225 293 l 1047 293 l 1047 203 l 697 203 l 697 104 l 1125 -89 l 1078 -162 l 647 32 l 217 -162 l 169 -89 l 600 106 l 600 203 z "},"ᆾ":{"ha":1250,"x_min":163,"x_max":1118,"o":"m 593 185 l 217 185 l 217 275 l 593 275 l 593 407 l 690 407 l 690 275 l 1067 275 l 1067 185 l 690 185 l 690 104 l 1118 -89 l 1071 -162 l 640 32 l 210 -162 l 163 -89 l 593 106 l 593 185 z "},"ᆿ":{"ha":1250,"x_min":186,"x_max":1013,"o":"m 915 181 l 222 181 l 222 271 l 1013 271 l 1013 -178 l 915 -178 l 915 -28 l 186 -28 l 186 63 l 915 63 l 915 181 z "},"ᇀ":{"ha":1250,"x_min":247,"x_max":1032,"o":"m 247 -165 l 247 322 l 1032 322 l 1032 232 l 344 232 l 344 125 l 1015 125 l 1015 40 l 344 40 l 344 -75 l 1032 -75 l 1032 -165 l 247 -165 z "},"ᇁ":{"ha":1250,"x_min":232,"x_max":1054,"o":"m 232 197 l 232 288 l 1054 288 l 1054 197 l 883 197 l 883 -74 l 1054 -74 l 1054 -164 l 232 -164 l 232 -74 l 397 -74 l 397 197 l 232 197 m 494 197 l 494 -74 l 786 -74 l 786 197 l 494 197 z "},"ᇂ":{"ha":1250,"x_min":258,"x_max":1079,"o":"m 1079 224 l 258 224 l 258 307 l 632 307 l 632 431 l 722 431 l 722 307 l 1079 307 l 1079 224 m 357 -1 q 438 133 357 86 q 669 181 519 181 q 901 133 819 181 q 982 -1 982 86 q 901 -136 982 -89 q 669 -183 819 -183 q 438 -136 519 -183 q 357 -1 357 -89 m 447 -1 q 505 -74 447 -49 q 669 -100 563 -100 q 834 -74 776 -100 q 892 -1 892 -49 q 834 72 892 47 q 669 97 776 97 q 505 72 563 97 q 447 -1 447 47 z "},"가":{"ha":1250,"x_min":94,"x_max":1210,"o":"m 901 983 l 811 983 l 811 1074 l 999 1074 l 999 553 l 1210 553 l 1210 463 l 999 463 l 999 -172 l 901 -172 l 901 983 m 693 940 q 634 588 700 753 q 441 294 568 424 q 136 78 314 164 l 94 165 q 352 344 244 238 q 522 579 460 450 q 593 850 583 708 l 139 850 l 139 940 l 693 940 z "},"각":{"ha":1250,"x_min":103,"x_max":1196,"o":"m 913 971 l 822 971 l 822 1061 l 1010 1061 l 1010 744 l 1196 744 l 1196 654 l 1010 654 l 1010 339 l 913 339 l 913 971 m 103 446 q 270 506 189 465 q 408 599 351 546 q 523 738 478 664 q 579 885 568 811 l 143 885 l 143 979 l 681 979 l 681 954 q 651 797 681 874 q 575 654 622 721 q 472 535 528 588 q 319 428 407 474 q 135 363 231 383 l 103 446 m 1024 -160 l 926 -160 l 926 189 l 247 189 l 247 279 l 1024 279 l 1024 -160 z "},"간":{"ha":1250,"x_min":94,"x_max":1210,"o":"m 914 982 l 824 982 l 824 1072 l 1011 1072 l 1011 692 l 1210 692 l 1210 601 l 1011 601 l 1011 163 l 914 163 l 914 982 m 94 417 q 212 455 153 429 q 324 515 271 481 q 414 583 376 549 q 522 728 483 649 q 571 883 561 807 l 133 883 l 133 978 l 671 978 l 671 953 q 646 792 671 872 q 577 642 621 713 q 478 519 533 572 q 317 406 413 458 q 126 333 222 354 l 94 417 m 1076 -129 l 265 -129 l 265 268 l 363 268 l 363 -39 l 1076 -39 l 1076 -129 z "},"갇":{"ha":1250,"x_min":93,"x_max":1196,"o":"m 914 997 l 824 997 l 824 1081 l 1011 1081 l 1011 760 l 1196 760 l 1196 669 l 1011 669 l 1011 386 l 914 386 l 914 997 m 93 469 q 260 529 179 489 q 399 622 342 569 q 513 761 468 688 q 569 908 558 835 l 133 908 l 133 1003 l 671 1003 l 671 978 q 642 821 671 897 q 565 678 613 744 q 463 558 518 611 q 309 452 397 497 q 125 386 221 407 l 93 469 m 289 -142 l 289 310 l 1033 310 l 1033 219 l 386 219 l 386 -51 l 1047 -51 l 1047 -142 l 289 -142 z "},"갈":{"ha":1250,"x_min":93,"x_max":1207,"o":"m 849 1081 l 1022 1081 l 1022 796 l 1207 796 l 1207 706 l 1022 706 l 1022 442 l 925 442 l 925 997 l 849 997 l 849 1081 m 93 486 q 260 546 179 506 q 399 639 342 586 q 513 778 468 704 q 569 925 558 851 l 133 925 l 133 1019 l 671 1019 l 671 994 q 642 838 671 914 q 565 694 613 761 q 463 575 518 628 q 309 469 397 514 q 125 403 221 424 l 93 486 m 1050 -147 l 253 -147 l 253 174 l 922 174 l 922 290 l 253 290 l 253 376 l 1019 376 l 1019 83 l 350 83 l 350 -57 l 1050 -57 l 1050 -147 z "},"갉":{"ha":1250,"x_min":93,"x_max":1211,"o":"m 922 1011 l 832 1011 l 832 1094 l 1019 1094 l 1019 811 l 1211 811 l 1211 721 l 1019 721 l 1019 431 l 922 431 l 922 1011 m 93 504 q 260 564 179 524 q 399 657 342 604 q 513 796 468 722 q 569 943 558 869 l 133 943 l 133 1038 l 671 1038 l 671 1013 q 642 856 671 932 q 565 713 613 779 q 463 593 518 646 q 309 487 397 532 q 125 421 221 442 l 93 504 m 188 -151 l 188 169 l 553 169 l 553 294 l 186 294 l 186 378 l 1019 378 l 1019 -151 l 929 -151 l 929 294 l 643 294 l 643 86 l 278 86 l 278 -68 l 733 -68 l 733 -151 l 188 -151 z "},"갊":{"ha":1250,"x_min":93,"x_max":1211,"o":"m 922 1011 l 832 1011 l 832 1094 l 1019 1094 l 1019 811 l 1211 811 l 1211 721 l 1019 721 l 1019 431 l 922 431 l 922 1011 m 93 504 q 260 564 179 524 q 399 657 342 604 q 513 796 468 722 q 569 943 558 869 l 133 943 l 133 1038 l 671 1038 l 671 1013 q 642 856 671 932 q 565 713 613 779 q 463 593 518 646 q 309 487 397 532 q 125 421 221 442 l 93 504 m 188 -151 l 188 169 l 471 169 l 471 282 l 186 282 l 186 365 l 561 365 l 561 86 l 278 86 l 278 -68 l 639 -68 l 639 378 l 1019 378 l 1019 -151 l 188 -151 m 729 294 l 729 -68 l 929 -68 l 929 294 l 729 294 z "},"갋":{"ha":1250,"x_min":93,"x_max":1211,"o":"m 922 1011 l 832 1011 l 832 1094 l 1019 1094 l 1019 811 l 1211 811 l 1211 721 l 1019 721 l 1019 431 l 922 431 l 922 1011 m 93 504 q 260 564 179 524 q 399 657 342 604 q 513 796 468 722 q 569 943 558 869 l 133 943 l 133 1038 l 671 1038 l 671 1013 q 642 856 671 932 q 565 713 613 779 q 463 593 518 646 q 309 487 397 532 q 125 421 221 442 l 93 504 m 188 -151 l 188 169 l 471 169 l 471 282 l 186 282 l 186 365 l 561 365 l 561 86 l 278 86 l 278 -68 l 639 -68 l 639 374 l 729 374 l 729 218 l 929 218 l 929 379 l 1019 379 l 1019 -151 l 188 -151 m 729 135 l 729 -68 l 929 -68 l 929 135 l 729 135 z "},"감":{"ha":1250,"x_min":93,"x_max":1203,"o":"m 915 978 l 825 978 l 825 1068 l 1013 1068 l 1013 757 l 1203 757 l 1203 667 l 1013 667 l 1013 350 l 915 350 l 915 978 m 463 536 q 309 430 397 475 q 125 364 221 385 l 93 447 q 260 507 179 467 q 399 600 342 547 q 513 739 468 665 q 569 886 558 813 l 133 886 l 133 981 l 671 981 l 671 956 q 642 799 671 875 q 565 656 613 722 q 463 536 518 589 m 1011 -151 l 257 -151 l 257 296 l 1011 296 l 1011 -151 m 354 206 l 354 -61 l 914 -61 l 914 206 l 354 206 z "},"갑":{"ha":1250,"x_min":92,"x_max":1211,"o":"m 917 963 l 826 963 l 826 1053 l 1014 1053 l 1014 800 l 1211 800 l 1211 710 l 1210 710 l 1210 681 l 1014 681 l 1014 382 l 917 382 l 917 963 m 461 574 q 308 467 396 513 q 124 401 219 422 l 92 485 q 259 544 178 504 q 397 638 340 585 q 512 776 467 703 q 568 924 557 850 l 132 924 l 132 1018 l 669 1018 l 669 993 q 640 836 669 913 q 564 693 611 760 q 461 574 517 626 m 1014 -154 l 251 -154 l 251 321 l 349 321 l 349 174 l 917 174 l 917 321 l 1014 321 l 1014 -154 m 349 83 l 349 -64 l 917 -64 l 917 83 l 349 83 z "},"값":{"ha":1250,"x_min":93,"x_max":1211,"o":"m 1008 399 l 911 399 l 911 965 l 821 965 l 821 1060 l 1008 1060 l 1008 785 l 1211 785 l 1211 694 l 1008 694 l 1008 399 m 93 475 q 260 535 179 494 q 399 628 342 575 q 513 767 468 693 q 569 914 558 840 l 133 914 l 133 1008 l 671 1008 l 671 983 q 642 826 671 903 q 565 683 613 750 q 463 564 518 617 q 309 458 397 503 q 125 392 221 413 l 93 475 m 689 -149 l 231 -149 l 231 335 l 321 335 l 321 185 l 550 185 l 550 335 l 640 335 l 640 -65 l 654 -65 l 856 181 l 856 342 l 950 342 l 950 196 l 1188 -92 l 1122 -149 l 910 107 l 697 -149 l 689 -142 l 689 -149 m 321 101 l 321 -65 l 550 -65 l 550 101 l 321 101 z "},"갓":{"ha":1250,"x_min":93,"x_max":1213,"o":"m 1043 257 l 946 257 l 946 990 l 856 990 l 856 1074 l 1043 1074 l 1043 732 l 1213 732 l 1213 642 l 1043 642 l 1043 257 m 93 451 q 260 511 179 471 q 399 604 342 551 q 513 743 468 669 q 569 890 558 817 l 133 890 l 133 985 l 671 985 l 671 960 q 642 803 671 879 q 565 660 613 726 q 463 540 518 593 q 309 434 397 479 q 125 368 221 389 l 93 451 m 231 -164 l 179 -89 l 611 201 l 611 340 l 708 340 l 708 200 l 1143 -93 l 1092 -168 l 658 124 l 231 -164 z "},"갔":{"ha":1250,"x_min":65,"x_max":1200,"o":"m 1010 363 l 913 363 l 913 971 l 822 971 l 822 1061 l 1010 1061 l 1010 764 l 1200 764 l 1200 674 l 1010 674 l 1010 363 m 65 425 q 240 489 156 449 q 396 588 325 529 q 513 722 467 646 q 571 892 558 797 l 119 892 l 119 986 l 671 986 l 671 961 q 624 736 671 839 q 497 553 578 633 q 313 420 417 474 q 97 342 210 367 l 65 425 m 164 -178 l 97 -119 l 356 115 l 356 299 l 450 299 l 450 114 l 644 -51 l 842 118 l 842 299 l 939 299 l 939 110 l 1194 -122 l 1128 -181 l 885 40 l 644 -167 l 643 -167 l 403 40 l 164 -178 z "},"강":{"ha":1250,"x_min":111,"x_max":1208,"o":"m 1013 335 l 915 335 l 915 974 l 825 974 l 825 1057 l 1013 1057 l 1013 751 l 1208 751 l 1208 661 l 1013 661 l 1013 335 m 111 436 q 334 531 235 469 q 500 681 433 593 q 589 878 567 768 l 147 878 l 147 968 l 696 968 q 651 751 696 851 q 530 569 607 650 q 351 430 453 488 q 136 342 250 372 l 111 436 m 221 47 q 328 217 221 158 q 632 276 435 276 q 938 218 831 278 q 1044 47 1044 158 q 938 -122 1044 -62 q 632 -182 831 -182 q 328 -122 435 -182 q 221 47 221 -62 m 318 47 q 399 -56 318 -19 q 632 -92 481 -92 q 866 -56 785 -92 q 947 47 947 -19 q 866 150 947 114 q 632 186 785 186 q 399 150 481 186 q 318 47 318 114 z "},"갖":{"ha":1250,"x_min":111,"x_max":1210,"o":"m 1014 396 l 917 396 l 917 978 l 826 978 l 826 1068 l 1014 1068 l 1014 785 l 1210 785 l 1210 694 l 1014 694 l 1014 396 m 111 453 q 334 548 235 486 q 500 697 433 610 q 589 894 567 785 l 147 894 l 147 985 l 696 985 q 651 767 696 868 q 530 585 607 667 q 351 447 453 504 q 136 358 250 389 l 111 453 m 244 -162 l 197 -89 l 601 160 l 601 240 l 258 240 l 258 328 l 1038 328 l 1038 240 l 696 240 l 696 158 l 1097 -89 l 1050 -162 l 647 86 l 244 -162 z "},"갗":{"ha":1250,"x_min":111,"x_max":1217,"o":"m 1014 386 l 917 386 l 917 989 l 826 989 l 826 1079 l 1014 1079 l 1014 785 l 1217 785 l 1217 694 l 1014 694 l 1014 386 m 111 467 q 334 562 235 500 q 500 711 433 624 q 589 908 567 799 l 147 908 l 147 999 l 696 999 q 651 781 696 882 q 530 599 607 681 q 351 460 453 518 q 136 372 250 403 l 111 467 m 233 -162 l 186 -89 l 590 133 l 590 193 l 258 193 l 258 281 l 590 281 l 590 426 l 685 426 l 685 281 l 1038 281 l 1038 193 l 685 193 l 685 132 l 1086 -89 l 1039 -162 l 636 60 l 233 -162 z "},"같":{"ha":1250,"x_min":111,"x_max":1211,"o":"m 815 1081 l 1003 1081 l 1003 797 l 1211 797 l 1211 707 l 1003 707 l 1003 408 l 906 408 l 906 990 l 815 990 l 815 1081 m 111 467 q 334 562 235 500 q 500 711 433 624 q 589 908 567 799 l 147 908 l 147 999 l 696 999 q 651 781 696 882 q 530 599 607 681 q 351 460 453 518 q 136 372 250 403 l 111 467 m 1046 -157 l 244 -157 l 244 346 l 1011 346 l 1011 256 l 342 256 l 342 144 l 989 144 l 989 54 l 342 54 l 342 -67 l 1046 -67 l 1046 -157 z "},"갚":{"ha":1250,"x_min":93,"x_max":1211,"o":"m 924 990 l 833 990 l 833 1074 l 1021 1074 l 1021 789 l 1211 789 l 1211 699 l 1021 699 l 1021 396 l 924 396 l 924 990 m 93 468 q 260 528 179 488 q 399 621 342 568 q 513 760 468 686 q 569 907 558 833 l 133 907 l 133 1001 l 671 1001 l 671 976 q 642 819 671 896 q 565 676 613 743 q 463 557 518 610 q 309 451 397 496 q 125 385 221 406 l 93 468 m 411 240 l 258 240 l 258 328 l 1024 328 l 1024 240 l 869 240 l 869 -61 l 1024 -61 l 1024 -149 l 258 -149 l 258 -61 l 411 -61 l 411 240 m 506 240 l 506 -61 l 775 -61 l 775 240 l 506 240 z "},"갛":{"ha":1250,"x_min":93,"x_max":1213,"o":"m 1022 419 l 925 419 l 925 990 l 835 990 l 835 1074 l 1022 1074 l 1022 800 l 1213 800 l 1213 710 l 1022 710 l 1022 419 m 93 468 q 260 528 179 488 q 399 621 342 568 q 513 760 468 686 q 569 907 558 833 l 133 907 l 133 1001 l 671 1001 l 671 976 q 642 819 671 896 q 565 676 613 743 q 463 557 518 610 q 309 451 397 496 q 125 385 221 406 l 93 468 m 1078 250 l 215 250 l 215 333 l 601 333 l 601 483 l 692 483 l 692 333 l 1078 333 l 1078 250 m 339 -1 q 658 181 339 181 q 978 -1 978 182 q 658 -183 978 -183 q 339 -1 339 -183 m 429 -1 q 658 -100 429 -100 q 888 0 888 -100 q 658 99 888 99 q 429 -1 429 99 z "},"개":{"ha":1250,"x_min":63,"x_max":1106,"o":"m 732 964 l 642 964 l 642 1054 l 829 1054 l 829 579 l 1008 579 l 1008 1075 l 1106 1075 l 1106 -157 l 1008 -157 l 1008 489 l 829 489 l 829 -157 l 732 -157 l 732 964 m 583 814 q 554 615 581 714 q 468 419 528 517 q 311 233 406 318 q 114 83 217 147 l 63 165 q 241 301 157 226 q 385 471 325 375 q 460 640 438 554 q 486 814 483 725 l 108 814 l 108 904 l 583 904 l 583 814 z "},"객":{"ha":1250,"x_min":83,"x_max":1107,"o":"m 740 968 l 650 968 l 650 1058 l 838 1058 l 838 763 l 1006 763 l 1006 1058 l 1103 1058 l 1103 351 l 1006 351 l 1006 672 l 838 672 l 838 351 l 740 351 l 740 968 m 83 414 q 234 494 158 440 q 360 606 310 549 q 445 742 408 665 q 492 888 482 818 l 126 888 l 126 978 l 593 978 l 592 917 q 569 793 590 860 q 515 663 549 726 q 438 549 481 600 q 351 463 401 506 q 245 384 301 419 q 131 328 189 349 l 83 414 m 1010 185 l 276 185 l 276 275 l 1107 275 l 1107 -151 l 1010 -151 l 1010 185 z "},"갠":{"ha":1250,"x_min":93,"x_max":1167,"o":"m 740 968 l 650 968 l 650 1058 l 838 1058 l 838 700 l 1006 700 l 1006 1058 l 1103 1058 l 1103 167 l 1006 167 l 1006 610 l 838 610 l 838 167 l 740 167 l 740 968 m 93 382 q 239 458 164 407 q 368 571 314 508 q 457 711 422 636 q 500 854 492 786 l 126 854 l 126 944 l 604 944 l 603 888 q 581 763 601 831 q 524 629 560 696 q 443 508 489 563 q 356 424 407 467 q 249 349 306 382 q 140 297 193 315 l 93 382 m 313 -139 l 313 236 l 410 236 l 410 -49 l 1167 -49 l 1167 -139 l 313 -139 z "},"갣":{"ha":1250,"x_min":104,"x_max":1138,"o":"m 740 968 l 650 968 l 650 1058 l 838 1058 l 838 763 l 1006 763 l 1006 1058 l 1103 1058 l 1103 378 l 1006 378 l 1006 672 l 838 672 l 838 378 l 740 378 l 740 968 m 104 457 q 383 640 276 517 q 463 766 432 700 q 501 901 494 832 l 126 901 l 126 992 l 594 992 l 593 931 q 573 810 592 874 q 523 689 554 747 q 453 583 492 631 q 313 460 393 513 q 138 376 232 408 l 104 457 m 307 -137 l 307 300 l 1131 300 l 1131 210 l 404 210 l 404 -47 l 1138 -47 l 1138 -137 l 307 -137 z "},"갤":{"ha":1250,"x_min":83,"x_max":1161,"o":"m 740 968 l 650 968 l 650 1058 l 838 1058 l 838 790 l 1006 790 l 1006 1058 l 1103 1058 l 1103 436 l 1006 436 l 1006 700 l 838 700 l 838 436 l 740 436 l 740 968 m 83 475 q 363 658 256 535 q 444 776 411 717 q 485 901 476 835 l 126 901 l 126 992 l 588 992 l 586 940 q 542 762 585 854 q 440 600 499 669 q 300 477 381 529 q 125 393 219 425 l 83 475 m 1010 289 l 304 289 l 304 379 l 1107 379 l 1107 74 l 401 74 l 401 -72 l 1161 -72 l 1161 -162 l 304 -162 l 304 164 l 1010 164 l 1010 289 z "},"갬":{"ha":1250,"x_min":86,"x_max":1107,"o":"m 740 968 l 650 968 l 650 1058 l 838 1058 l 838 763 l 1006 763 l 1006 1058 l 1103 1058 l 1103 346 l 1006 346 l 1006 672 l 838 672 l 838 346 l 740 346 l 740 968 m 86 407 q 247 491 171 436 q 376 607 324 546 q 457 738 426 668 q 494 878 488 808 l 119 878 l 119 968 l 597 968 l 596 907 q 576 785 594 850 q 526 658 557 719 q 456 550 494 597 q 309 415 396 479 q 128 319 222 351 l 86 407 m 299 -136 l 299 279 l 1107 279 l 1107 -136 l 299 -136 m 396 189 l 396 -46 l 1010 -46 l 1010 189 l 396 189 z "},"갭":{"ha":1250,"x_min":97,"x_max":1103,"o":"m 740 968 l 650 968 l 650 1058 l 838 1058 l 838 772 l 1006 772 l 1006 1058 l 1103 1058 l 1103 397 l 1006 397 l 1006 682 l 838 682 l 838 397 l 740 397 l 740 968 m 97 457 q 376 640 269 517 q 456 766 425 700 q 494 901 488 832 l 126 901 l 126 992 l 588 992 l 583 901 q 542 734 579 815 q 446 583 504 653 q 306 460 386 513 q 131 376 225 408 l 97 457 m 311 -151 l 311 347 l 408 347 l 408 194 l 1006 194 l 1006 347 l 1103 347 l 1103 -151 l 311 -151 m 408 104 l 408 -61 l 1006 -61 l 1006 104 l 408 104 z "},"갯":{"ha":1250,"x_min":99,"x_max":1160,"o":"m 740 968 l 650 968 l 650 1058 l 838 1058 l 838 747 l 1000 747 l 1000 1058 l 1097 1058 l 1097 356 l 1000 356 l 1000 657 l 838 657 l 838 356 l 740 356 l 740 968 m 99 435 q 378 618 271 494 q 458 744 426 678 q 496 879 489 810 l 128 879 l 128 969 l 589 969 l 585 879 q 544 712 582 793 q 447 561 507 631 q 307 438 388 490 q 132 354 226 386 l 99 435 m 675 101 l 247 -164 l 196 -89 l 628 179 l 628 307 l 725 307 l 725 176 l 1160 -93 l 1108 -168 l 675 101 z "},"갰":{"ha":1250,"x_min":97,"x_max":1194,"o":"m 838 371 l 740 371 l 740 968 l 650 968 l 650 1058 l 838 1058 l 838 763 l 1000 763 l 1000 1058 l 1097 1058 l 1097 356 l 1000 356 l 1000 672 l 838 672 l 838 371 m 99 435 q 378 618 271 494 q 458 744 426 678 q 496 879 489 810 l 128 879 l 128 969 l 589 969 l 585 879 q 544 712 582 793 q 447 561 507 631 q 307 438 388 490 q 132 354 226 386 l 99 435 m 164 -178 l 97 -119 l 356 115 l 356 299 l 450 299 l 450 114 l 644 -51 l 842 118 l 842 299 l 939 299 l 939 110 l 1194 -122 l 1128 -181 l 885 40 l 644 -167 l 643 -167 l 403 40 l 164 -178 z "},"갱":{"ha":1250,"x_min":79,"x_max":1122,"o":"m 744 968 l 654 968 l 654 1058 l 842 1058 l 842 758 l 1000 758 l 1000 1058 l 1097 1058 l 1097 342 l 1000 342 l 1000 668 l 842 668 l 842 342 l 744 342 l 744 968 m 79 407 q 219 478 165 446 q 312 545 274 511 q 385 619 350 579 q 462 749 433 679 q 497 890 490 818 l 128 890 l 128 981 l 597 981 l 593 890 q 555 717 589 804 q 461 561 521 631 q 377 476 421 514 q 272 402 333 438 q 119 325 211 367 l 79 407 m 722 -149 q 426 -90 529 -149 q 322 79 322 -31 q 426 248 322 189 q 722 307 529 307 q 1019 248 915 307 q 1122 79 1122 189 q 1019 -90 1122 -31 q 722 -149 915 -149 m 417 79 q 496 -25 417 11 q 722 -61 575 -61 q 949 -25 869 -61 q 1028 79 1028 11 q 949 183 1028 147 q 722 219 869 219 q 496 183 575 219 q 417 79 417 147 z "},"갸":{"ha":1250,"x_min":118,"x_max":1219,"o":"m 904 990 l 814 990 l 814 1074 l 1001 1074 l 1001 726 l 1219 726 l 1219 636 l 1001 636 l 1001 367 l 1219 367 l 1219 276 l 1001 276 l 1001 -172 l 904 -172 l 904 990 m 685 888 q 626 554 692 699 q 441 301 561 410 q 160 115 321 193 l 118 203 q 444 444 319 299 q 586 797 569 590 l 149 797 l 149 888 l 685 888 z "},"갹":{"ha":1250,"x_min":99,"x_max":1207,"o":"m 925 997 l 835 997 l 835 1081 l 1022 1081 l 1022 881 l 1207 881 l 1207 790 l 1022 790 l 1022 624 l 1207 624 l 1207 533 l 1022 533 l 1022 369 l 925 369 l 925 997 m 99 460 q 266 519 185 479 q 404 613 347 560 q 519 751 474 678 q 575 899 564 825 l 139 899 l 139 993 l 676 993 l 676 968 q 647 811 676 888 q 571 668 618 735 q 468 549 524 601 q 315 442 403 488 q 131 376 226 397 l 99 460 m 1024 -160 l 926 -160 l 926 222 l 239 222 l 239 313 l 1024 313 l 1024 -160 z "},"갼":{"ha":1250,"x_min":94,"x_max":1210,"o":"m 900 996 l 810 996 l 810 1072 l 997 1072 l 997 819 l 1210 819 l 1210 729 l 997 729 l 997 528 l 1210 528 l 1210 438 l 997 438 l 997 163 l 900 163 l 900 996 m 94 403 q 212 441 153 415 q 324 501 271 467 q 414 569 376 535 q 522 714 483 635 q 571 869 561 793 l 133 869 l 133 964 l 671 964 l 671 939 q 646 778 671 858 q 577 628 621 699 q 478 506 533 558 q 317 392 413 444 q 126 319 222 340 l 94 403 m 1101 -143 l 263 -143 l 263 268 l 360 268 l 360 -53 l 1101 -53 l 1101 -143 z "},"걀":{"ha":1250,"x_min":93,"x_max":1207,"o":"m 817 1081 l 1004 1081 l 1004 919 l 1207 919 l 1207 829 l 1004 829 l 1004 678 l 1207 678 l 1207 588 l 1004 588 l 1004 442 l 907 442 l 907 997 l 817 997 l 817 1081 m 93 469 q 260 529 179 489 q 399 622 342 569 q 513 761 468 688 q 569 908 558 835 l 133 908 l 133 1003 l 671 1003 l 671 978 q 642 821 671 897 q 565 678 613 744 q 463 558 518 611 q 309 452 397 497 q 125 386 221 407 l 93 469 m 1067 -147 l 265 -147 l 265 160 l 926 160 l 926 261 l 265 261 l 265 349 l 1018 349 l 1018 72 l 357 72 l 357 -60 l 1067 -60 l 1067 -147 z "},"걋":{"ha":1250,"x_min":114,"x_max":1213,"o":"m 1010 257 l 913 257 l 913 974 l 822 974 l 822 1064 l 1010 1064 l 1010 857 l 1213 857 l 1213 767 l 1010 767 l 1010 561 l 1206 561 l 1206 471 l 1010 471 l 1010 257 m 114 411 q 472 635 347 493 q 557 749 524 692 q 604 879 590 807 l 167 879 l 167 969 l 706 969 l 704 879 q 648 714 688 789 q 546 569 608 639 q 146 319 400 410 l 114 411 m 217 -164 l 165 -89 l 611 203 l 611 354 l 708 354 l 708 200 l 1157 -93 l 1106 -168 l 658 125 l 217 -164 z "},"걍":{"ha":1250,"x_min":67,"x_max":1194,"o":"m 901 974 l 811 974 l 811 1057 l 999 1057 l 999 846 l 1194 846 l 1194 756 l 999 756 l 999 611 l 1194 611 l 1194 521 l 999 521 l 999 321 l 901 321 l 901 974 m 486 517 q 378 435 443 476 q 242 363 314 394 q 107 317 171 331 l 67 406 q 191 445 125 417 q 317 511 257 474 q 415 583 378 549 q 499 676 468 632 q 548 769 531 721 q 576 881 565 818 l 117 881 l 117 971 l 685 971 l 678 906 q 617 685 664 775 q 486 517 569 596 m 221 47 q 328 217 221 158 q 632 276 435 276 q 938 218 831 278 q 1044 47 1044 158 q 938 -122 1044 -62 q 632 -182 831 -182 q 328 -122 435 -182 q 221 47 221 -62 m 318 47 q 399 -56 318 -19 q 632 -92 481 -92 q 866 -56 785 -92 q 947 47 947 -19 q 866 150 947 114 q 632 186 785 186 q 399 150 481 186 q 318 47 318 114 z "},"걔":{"ha":1250,"x_min":63,"x_max":1114,"o":"m 738 983 l 647 983 l 647 1074 l 835 1074 l 835 747 l 1017 747 l 1017 1074 l 1114 1074 l 1114 -157 l 1017 -157 l 1017 307 l 835 307 l 835 -157 l 738 -157 l 738 983 m 63 179 q 241 315 157 240 q 385 485 325 389 q 460 653 438 568 q 486 828 483 739 l 108 828 l 108 918 l 583 918 l 583 828 q 554 629 581 728 q 468 433 528 531 q 311 247 406 332 q 114 97 217 161 l 63 179 m 835 657 l 835 397 l 1017 397 l 1017 657 l 835 657 z "},"걘":{"ha":1250,"x_min":89,"x_max":1179,"o":"m 858 139 l 761 139 l 761 968 l 667 968 l 667 1058 l 858 1058 l 858 815 l 1015 815 l 1015 1058 l 1113 1058 l 1113 139 l 1015 139 l 1015 463 l 858 463 l 858 139 m 89 381 q 235 449 163 403 q 367 556 308 494 q 428 632 397 588 q 480 732 458 676 q 504 853 501 788 l 140 853 l 140 943 l 601 943 l 599 853 q 552 658 597 750 q 435 490 507 567 q 285 368 369 421 q 115 289 201 315 l 89 381 m 858 729 l 858 549 l 1015 549 l 1015 729 l 858 729 m 1179 -139 l 347 -139 l 347 254 l 444 254 l 444 -49 l 1179 -49 l 1179 -139 z "},"걜":{"ha":1250,"x_min":117,"x_max":1131,"o":"m 775 975 l 681 975 l 681 1058 l 868 1058 l 868 881 l 1010 881 l 1010 1058 l 1103 1058 l 1103 418 l 1010 418 l 1010 579 l 868 579 l 868 418 l 775 418 l 775 975 m 117 451 q 396 635 289 511 q 475 760 444 694 q 514 896 506 826 l 146 896 l 146 986 l 607 986 l 603 896 q 560 729 594 811 q 465 578 525 647 q 325 455 406 507 q 150 371 244 403 l 117 451 m 868 794 l 868 665 l 1010 665 l 1010 794 l 868 794 m 1010 264 l 344 264 l 344 350 l 1103 350 l 1103 63 l 438 63 l 438 -76 l 1131 -76 l 1131 -162 l 344 -162 l 344 149 l 1010 149 l 1010 264 z "},"걥":{"ha":1250,"x_min":117,"x_max":1103,"o":"m 757 968 l 667 968 l 667 1058 l 854 1058 l 854 885 l 1006 885 l 1006 1058 l 1103 1058 l 1103 400 l 1006 400 l 1006 556 l 854 556 l 854 400 l 757 400 l 757 968 m 117 451 q 396 635 289 511 q 475 760 444 694 q 514 896 506 826 l 146 896 l 146 986 l 607 986 l 603 896 q 560 729 594 811 q 465 578 525 647 q 325 455 406 507 q 150 371 244 403 l 117 451 m 854 794 l 854 646 l 1006 646 l 1006 794 l 854 794 m 358 -162 l 358 347 l 451 347 l 451 185 l 1010 185 l 1010 347 l 1103 347 l 1103 -162 l 358 -162 m 451 99 l 451 -76 l 1010 -76 l 1010 99 l 451 99 z "},"거":{"ha":1250,"x_min":110,"x_max":1047,"o":"m 1047 -172 l 950 -172 l 950 568 l 607 568 q 424 328 542 431 q 151 151 306 226 l 110 239 q 436 481 311 335 q 578 833 561 626 l 140 833 l 140 924 l 676 924 q 643 658 681 779 l 950 658 l 950 947 l 860 947 l 860 1038 l 1047 1038 l 1047 -172 z "},"걱":{"ha":1250,"x_min":101,"x_max":1082,"o":"m 101 436 q 241 489 164 450 q 393 587 318 528 q 524 722 468 646 q 600 888 581 799 l 153 888 l 153 978 l 696 978 q 682 852 696 913 q 643 739 668 792 l 985 739 l 985 965 l 894 965 l 894 1056 l 1082 1056 l 1082 336 l 985 336 l 985 649 l 590 649 q 458 508 535 569 q 299 408 382 447 q 139 351 217 369 l 101 436 m 1081 -172 l 983 -172 l 983 183 l 261 183 l 261 274 l 1081 274 l 1081 -172 z "},"건":{"ha":1250,"x_min":104,"x_max":1118,"o":"m 582 599 q 383 406 501 482 q 135 296 265 331 l 104 389 q 330 491 225 421 q 505 660 435 561 q 590 881 575 760 l 114 881 l 114 971 l 699 971 q 680 821 697 892 q 633 689 663 750 l 976 689 l 976 982 l 886 982 l 886 1072 l 1074 1072 l 1074 154 l 976 154 l 976 599 l 582 599 m 1118 -143 l 301 -143 l 301 247 l 399 247 l 399 -53 l 1118 -53 l 1118 -143 z "},"걷":{"ha":1250,"x_min":93,"x_max":1113,"o":"m 93 436 q 231 487 154 449 q 383 584 308 525 q 515 718 458 643 q 594 881 572 793 l 144 881 l 144 978 l 688 978 q 674 852 688 913 q 635 739 660 792 l 979 739 l 979 965 l 889 965 l 889 1056 l 1076 1056 l 1076 351 l 979 351 l 979 649 l 582 649 q 450 508 526 569 q 291 408 374 447 q 131 351 208 369 l 93 436 m 293 -149 l 293 282 l 1079 282 l 1079 192 l 390 192 l 390 -58 l 1113 -58 l 1113 -149 l 293 -149 z "},"걸":{"ha":1250,"x_min":90,"x_max":1128,"o":"m 578 678 q 442 543 519 600 q 282 451 364 486 q 128 400 200 417 l 90 485 q 244 538 167 501 q 391 630 322 575 q 510 754 460 685 q 579 904 560 824 l 147 904 l 147 999 l 683 999 q 669 876 683 933 q 632 768 656 818 l 985 768 l 985 963 l 894 963 l 894 1053 l 1082 1053 l 1082 411 l 985 411 l 985 678 l 578 678 m 988 268 l 296 268 l 296 358 l 1082 358 l 1082 58 l 393 58 l 393 -75 l 1128 -75 l 1128 -165 l 299 -165 l 299 149 l 988 149 l 988 268 z "},"걺":{"ha":1250,"x_min":97,"x_max":1082,"o":"m 97 479 q 251 533 174 496 q 398 624 329 569 q 517 749 467 679 q 586 899 567 818 l 154 899 l 154 993 l 690 993 q 678 873 690 929 q 642 768 665 817 l 985 768 l 985 963 l 894 963 l 894 1053 l 1082 1053 l 1082 411 l 985 411 l 985 678 l 589 678 q 452 540 531 597 q 290 447 374 483 q 135 394 207 411 l 97 479 m 278 -167 l 278 165 l 536 165 l 536 265 l 276 265 l 276 349 l 626 349 l 626 82 l 368 82 l 368 -83 l 717 -83 l 717 349 l 1072 349 l 1072 -167 l 278 -167 m 807 265 l 807 -83 l 982 -83 l 982 265 l 807 265 z "},"검":{"ha":1250,"x_min":93,"x_max":1082,"o":"m 93 436 q 231 487 154 449 q 383 584 308 525 q 515 718 458 643 q 594 881 572 793 l 144 881 l 144 978 l 688 978 q 674 852 688 913 q 635 739 660 792 l 979 739 l 979 965 l 889 965 l 889 1056 l 1076 1056 l 1076 351 l 979 351 l 979 649 l 582 649 q 450 508 526 569 q 291 408 374 447 q 131 351 208 369 l 93 436 m 1082 -168 l 293 -168 l 293 297 l 1082 297 l 1082 -168 m 390 207 l 390 -78 l 985 -78 l 985 207 l 390 207 z "},"겁":{"ha":1250,"x_min":93,"x_max":1082,"o":"m 93 450 q 231 499 154 463 q 383 591 308 535 q 515 720 458 647 q 594 881 572 793 l 144 881 l 144 978 l 688 978 q 673 851 688 911 q 633 739 658 792 l 979 739 l 979 965 l 889 965 l 889 1056 l 1076 1056 l 1076 388 l 979 388 l 979 649 l 579 649 q 447 515 522 572 q 290 421 372 458 q 131 365 208 383 l 93 450 m 1082 -168 l 293 -168 l 293 326 l 390 326 l 390 171 l 985 171 l 985 326 l 1082 326 l 1082 -168 m 390 81 l 390 -78 l 985 -78 l 985 81 l 390 81 z "},"겂":{"ha":1250,"x_min":93,"x_max":1206,"o":"m 93 450 q 245 507 167 471 q 396 596 324 543 q 521 719 468 649 q 594 881 574 790 l 144 881 l 144 978 l 699 978 q 685 851 699 910 q 646 739 671 792 l 979 739 l 979 965 l 889 965 l 889 1056 l 1076 1056 l 1076 388 l 979 388 l 979 649 l 590 649 q 456 517 533 572 q 294 424 378 461 q 131 365 210 386 l 93 450 m 704 -149 l 229 -149 l 229 328 l 326 328 l 326 179 l 579 179 l 579 328 l 676 328 l 676 -53 l 871 119 l 871 342 l 965 342 l 965 132 l 1206 -103 l 1135 -158 l 924 50 l 704 -149 m 326 89 l 326 -65 l 579 -65 l 579 89 l 326 89 z "},"것":{"ha":1250,"x_min":99,"x_max":1158,"o":"m 1068 239 l 971 239 l 971 618 l 606 618 q 398 435 525 504 q 135 333 271 365 l 99 422 q 274 478 186 444 q 437 562 363 511 q 558 688 511 613 q 611 869 606 764 l 144 869 l 144 960 l 713 960 q 697 825 711 888 q 658 708 683 763 l 971 708 l 971 972 l 881 972 l 881 1063 l 1068 1063 l 1068 239 m 235 -175 l 183 -100 l 621 203 l 621 343 l 718 343 l 718 206 l 1158 -100 l 1107 -175 l 671 128 l 235 -175 z "},"겄":{"ha":1250,"x_min":97,"x_max":1194,"o":"m 1065 342 l 975 342 l 975 649 l 594 649 q 463 508 539 568 q 303 408 386 447 q 143 351 221 369 l 106 436 q 244 487 167 449 q 396 584 321 525 q 528 718 471 643 q 607 881 585 793 l 157 881 l 157 978 l 700 978 q 686 852 700 913 q 647 739 672 792 l 975 739 l 975 969 l 878 969 l 878 1060 l 1065 1060 l 1065 342 m 164 -178 l 97 -119 l 356 115 l 356 299 l 450 299 l 450 114 l 644 -51 l 842 118 l 842 299 l 939 299 l 939 110 l 1194 -122 l 1128 -181 l 885 40 l 644 -167 l 643 -167 l 403 40 l 164 -178 z "},"겅":{"ha":1250,"x_min":106,"x_max":1086,"o":"m 1069 335 l 972 335 l 972 633 l 583 633 q 453 501 528 558 q 299 406 379 443 q 143 351 219 368 l 106 436 q 244 487 167 449 q 396 584 321 525 q 528 718 471 643 q 607 881 585 793 l 157 881 l 157 978 l 700 978 q 684 844 700 907 q 640 724 668 781 l 972 724 l 972 974 l 882 974 l 882 1057 l 1069 1057 l 1069 335 m 286 51 q 390 223 286 163 q 686 283 493 283 q 983 223 879 283 q 1086 51 1086 163 q 983 -120 1086 -60 q 686 -181 879 -181 q 390 -120 493 -181 q 286 51 286 -60 m 381 51 q 460 -56 381 -18 q 686 -93 539 -93 q 913 -56 833 -93 q 992 51 992 -18 q 913 158 992 121 q 686 196 833 196 q 460 158 539 196 q 381 51 381 121 z "},"겆":{"ha":1250,"x_min":93,"x_max":1143,"o":"m 1079 350 l 982 350 l 982 647 l 589 647 q 455 517 532 572 q 294 424 378 461 q 131 365 210 386 l 93 450 q 245 507 167 471 q 396 596 324 543 q 521 719 468 649 q 594 881 574 790 l 144 881 l 144 978 l 699 978 q 685 850 699 910 q 644 738 671 790 l 982 738 l 982 975 l 892 975 l 892 1065 l 1079 1065 l 1079 350 m 290 -182 l 243 -108 l 644 85 l 644 193 l 290 193 l 290 283 l 1097 283 l 1097 193 l 744 193 l 744 83 l 1143 -108 l 1096 -182 l 693 26 l 290 -182 z "},"겉":{"ha":1250,"x_min":93,"x_max":1113,"o":"m 93 450 q 245 507 167 471 q 396 596 324 543 q 521 719 468 649 q 594 881 574 790 l 144 881 l 144 978 l 699 978 q 685 855 699 913 q 649 746 672 797 l 975 746 l 975 965 l 885 965 l 885 1056 l 1072 1056 l 1072 397 l 975 397 l 975 656 l 596 656 q 460 520 539 578 q 297 424 382 463 q 131 365 211 386 l 93 450 m 1113 -149 l 306 -149 l 306 342 l 1071 342 l 1071 251 l 403 251 l 403 144 l 1071 144 l 1071 54 l 403 54 l 403 -58 l 1113 -58 l 1113 -149 z "},"겊":{"ha":1250,"x_min":126,"x_max":1092,"o":"m 126 472 q 440 632 310 513 q 596 899 564 747 l 164 899 l 164 993 l 688 993 l 685 899 q 667 825 679 861 q 638 754 654 789 l 971 754 l 971 989 l 881 989 l 881 1072 l 1068 1072 l 1068 365 l 971 365 l 971 664 l 585 664 q 500 568 546 610 q 338 455 428 500 q 146 386 249 410 l 126 472 m 1092 -154 l 260 -154 l 260 -67 l 435 -67 l 435 217 l 260 217 l 260 304 l 1092 304 l 1092 217 l 911 217 l 911 -67 l 1092 -67 l 1092 -154 m 529 217 l 529 -67 l 817 -67 l 817 217 l 529 217 z "},"겋":{"ha":1250,"x_min":114,"x_max":1079,"o":"m 1043 397 l 946 397 l 946 694 l 600 694 q 485 565 554 626 q 326 456 415 503 q 133 385 238 408 l 114 471 q 325 554 226 496 q 492 700 424 613 q 583 897 561 788 l 151 897 l 151 992 l 675 992 l 672 897 q 647 785 671 843 l 946 785 l 946 990 l 856 990 l 856 1074 l 1043 1074 l 1043 397 m 1079 224 l 258 224 l 258 314 l 632 314 l 632 467 l 722 467 l 722 314 l 1079 314 l 1079 224 m 364 -1 q 445 133 364 86 q 676 181 526 181 q 908 133 826 181 q 989 -1 989 86 q 908 -136 989 -89 q 676 -183 826 -183 q 445 -136 526 -183 q 364 -1 364 -89 m 454 -1 q 512 -74 454 -49 q 676 -100 569 -100 q 841 -74 783 -100 q 899 -1 899 -49 q 841 72 899 47 q 676 97 783 97 q 512 72 569 97 q 454 -1 454 47 z "},"게":{"ha":1250,"x_min":69,"x_max":1106,"o":"m 494 825 l 113 825 l 113 915 l 592 915 q 538 565 600 726 l 749 565 l 749 990 l 658 990 l 658 1081 l 846 1081 l 846 -157 l 749 -157 l 749 475 l 496 475 l 483 453 q 385 320 446 389 q 256 193 325 251 q 122 99 188 135 l 69 179 q 194 269 131 215 q 313 383 258 322 q 399 499 367 443 q 494 825 483 644 m 1106 -157 l 1008 -157 l 1008 1081 l 1106 1081 l 1106 -157 z "},"겍":{"ha":1250,"x_min":117,"x_max":1093,"o":"m 117 454 q 396 638 289 514 q 475 763 444 697 q 514 899 506 829 l 146 899 l 146 989 l 607 989 l 603 899 q 587 809 599 853 q 556 722 575 765 l 775 722 l 775 975 l 681 975 l 681 1058 l 868 1058 l 868 363 l 775 363 l 775 636 l 507 636 q 487 608 497 622 q 465 581 476 594 q 325 458 406 510 q 150 374 244 406 l 117 454 m 1093 363 l 1000 363 l 1000 1058 l 1093 1058 l 1093 363 m 992 196 l 315 196 l 315 286 l 1089 286 l 1089 -172 l 992 -172 l 992 196 z "},"겐":{"ha":1250,"x_min":78,"x_max":1139,"o":"m 872 171 l 775 171 l 775 594 l 499 594 q 424 501 467 547 q 274 379 358 432 q 104 300 190 326 l 78 392 q 224 460 151 414 q 356 567 297 506 q 417 643 386 599 q 469 743 447 688 q 493 864 490 799 l 129 864 l 129 954 l 590 954 l 588 864 q 576 770 586 817 q 546 681 565 724 l 775 681 l 775 975 l 681 975 l 681 1058 l 872 1058 l 872 171 m 1108 171 l 1011 171 l 1011 1058 l 1108 1058 l 1108 171 m 1139 -139 l 328 -139 l 328 264 l 425 264 l 425 -49 l 1139 -49 l 1139 -139 z "},"겔":{"ha":1250,"x_min":88,"x_max":1154,"o":"m 454 596 q 359 513 414 554 q 243 438 304 471 q 122 388 182 406 l 88 467 q 197 513 142 482 q 301 581 251 543 q 386 654 351 618 q 467 771 435 710 q 508 899 499 832 l 140 899 l 140 989 l 601 989 l 599 899 q 565 771 590 833 l 775 771 l 775 968 l 681 968 l 681 1058 l 872 1058 l 872 418 l 775 418 l 775 685 l 522 685 q 454 596 493 636 m 1103 418 l 1006 418 l 1006 1058 l 1103 1058 l 1103 418 m 1154 -162 l 315 -162 l 315 149 l 1010 149 l 1010 264 l 315 264 l 315 350 l 1103 350 l 1103 63 l 408 63 l 408 -76 l 1154 -76 l 1154 -162 z "},"겜":{"ha":1250,"x_min":92,"x_max":1103,"o":"m 92 411 q 251 495 172 442 q 382 604 329 549 q 463 734 431 660 q 504 875 494 808 l 136 875 l 136 965 l 597 965 l 594 875 q 578 794 589 836 q 550 710 568 751 l 775 710 l 775 968 l 681 968 l 681 1058 l 868 1058 l 868 364 l 775 364 l 775 624 l 508 624 q 480 583 494 603 q 450 546 465 564 q 306 422 390 482 q 132 336 221 363 l 92 411 m 1103 364 l 1010 364 l 1010 1058 l 1103 1058 l 1103 364 m 317 -162 l 317 286 l 1103 286 l 1103 -162 l 317 -162 m 410 200 l 410 -76 l 1010 -76 l 1010 200 l 410 200 z "},"겝":{"ha":1250,"x_min":92,"x_max":1103,"o":"m 92 411 q 251 495 172 442 q 382 604 329 549 q 463 734 431 660 q 504 875 494 808 l 136 875 l 136 965 l 597 965 l 594 875 q 561 736 586 806 l 775 736 l 775 963 l 685 963 l 685 1053 l 872 1053 l 872 374 l 775 374 l 775 650 l 522 650 q 490 595 508 621 q 450 546 471 569 q 306 422 390 482 q 132 336 221 363 l 92 411 m 1103 374 l 1006 374 l 1006 1053 l 1103 1053 l 1103 374 m 313 -168 l 313 307 l 410 307 l 410 172 l 1006 172 l 1006 307 l 1103 307 l 1103 -168 l 313 -168 m 410 82 l 410 -78 l 1006 -78 l 1006 82 l 410 82 z "},"겟":{"ha":1250,"x_min":94,"x_max":1160,"o":"m 851 300 l 754 300 l 754 614 l 493 614 q 469 579 482 596 q 443 546 457 563 q 303 423 383 475 q 128 339 222 371 l 94 419 q 374 603 267 479 q 453 728 422 663 q 492 864 483 794 l 124 864 l 124 954 l 585 954 l 581 864 q 567 783 576 824 q 540 704 557 743 l 754 704 l 754 968 l 664 968 l 664 1058 l 851 1058 l 851 300 m 1093 300 l 996 300 l 996 1058 l 1093 1058 l 1093 300 m 247 -164 l 196 -89 l 628 176 l 628 290 l 725 290 l 725 174 l 1160 -93 l 1108 -168 l 675 99 l 247 -164 z "},"겠":{"ha":1250,"x_min":92,"x_max":1194,"o":"m 1107 350 l 1010 350 l 1010 1050 l 1107 1050 l 1107 350 m 92 403 q 251 487 172 433 q 382 596 329 540 q 463 726 431 651 q 504 867 494 800 l 136 867 l 136 957 l 597 957 l 594 867 q 578 785 589 828 q 550 701 568 743 l 775 701 l 775 960 l 681 960 l 681 1050 l 872 1050 l 872 350 l 775 350 l 775 615 l 508 615 q 480 575 494 594 q 450 538 465 556 q 306 414 390 474 q 132 328 221 354 l 92 403 m 164 -178 l 97 -119 l 356 115 l 356 299 l 450 299 l 450 114 l 644 -51 l 842 118 l 842 299 l 939 299 l 939 110 l 1194 -122 l 1128 -181 l 885 40 l 644 -167 l 643 -167 l 403 40 l 164 -178 z "},"겡":{"ha":1250,"x_min":92,"x_max":1113,"o":"m 92 407 q 251 491 172 438 q 382 600 329 544 q 463 730 431 656 q 504 871 494 804 l 136 871 l 136 961 l 597 961 l 594 871 q 578 790 589 832 q 550 706 568 747 l 775 706 l 775 964 l 681 964 l 681 1054 l 868 1054 l 868 318 l 775 318 l 775 619 l 508 619 q 480 579 494 599 q 450 542 465 560 q 306 418 390 478 q 132 332 221 358 l 92 407 m 1103 318 l 1010 318 l 1010 1054 l 1103 1054 l 1103 318 m 699 -171 q 285 50 285 -171 q 699 271 285 271 q 1113 50 1113 271 q 699 -171 1113 -171 m 382 50 q 699 -81 382 -81 q 1015 50 1015 -81 q 699 181 1015 181 q 382 50 382 181 z "},"겨":{"ha":1250,"x_min":110,"x_max":1069,"o":"m 638 644 q 454 357 582 478 q 151 151 326 236 l 110 239 q 436 481 311 335 q 576 833 561 626 l 140 833 l 140 924 l 676 924 q 675 826 679 874 q 663 735 671 779 l 972 735 l 972 983 l 882 983 l 882 1074 l 1069 1074 l 1069 -160 l 972 -160 l 972 319 l 621 319 l 621 410 l 972 410 l 972 644 l 638 644 z "},"격":{"ha":1250,"x_min":96,"x_max":1069,"o":"m 96 440 q 223 481 157 456 q 350 542 289 507 q 457 617 411 576 q 560 740 522 674 q 613 888 599 807 l 153 888 l 153 978 l 704 978 l 696 856 l 972 856 l 972 982 l 882 982 l 882 1072 l 1069 1072 l 1069 329 l 972 329 l 972 531 l 650 531 l 650 621 l 972 621 l 972 765 l 671 765 q 609 647 646 697 q 517 544 572 596 q 398 458 465 497 q 257 390 331 419 q 115 343 183 361 l 96 440 m 972 183 l 264 183 l 264 274 l 1069 274 l 1069 -172 l 972 -172 l 972 183 z "},"겪":{"ha":1250,"x_min":122,"x_max":1082,"o":"m 660 765 q 531 577 610 654 q 354 448 451 500 q 149 357 257 396 l 122 450 q 326 543 231 490 q 492 678 421 596 q 601 888 564 760 l 153 888 l 153 978 l 704 978 l 701 883 l 693 856 l 979 856 l 979 982 l 889 982 l 889 1072 l 1076 1072 l 1076 346 l 979 346 l 979 496 l 646 496 l 646 586 l 979 586 l 979 765 l 660 765 m 572 189 l 253 189 l 253 279 l 1082 279 l 1082 -172 l 985 -172 l 985 189 l 669 189 l 669 -172 l 572 -172 l 572 189 z "},"견":{"ha":1250,"x_min":124,"x_max":1136,"o":"m 522 511 q 355 381 450 436 q 151 297 260 326 l 124 390 q 305 464 221 417 q 454 579 389 511 q 558 720 519 644 q 608 878 596 796 l 131 878 l 131 972 l 707 972 l 704 878 q 690 785 701 828 l 976 785 l 976 943 l 886 943 l 886 1033 l 1074 1033 l 1074 154 l 976 154 l 976 425 l 624 425 l 624 515 l 976 515 l 976 694 l 656 694 q 597 599 632 644 q 522 511 563 553 m 1136 -143 l 313 -143 l 313 239 l 410 239 l 410 -53 l 1136 -53 l 1136 -143 z "},"겯":{"ha":1250,"x_min":113,"x_max":1083,"o":"m 646 765 q 451 527 582 619 q 146 383 319 435 l 113 472 q 330 565 232 508 q 494 705 428 622 q 582 900 560 788 l 164 900 l 164 990 l 688 990 l 685 896 l 676 856 l 972 856 l 972 982 l 882 982 l 882 1072 l 1069 1072 l 1069 367 l 972 367 l 972 531 l 635 531 l 635 621 l 972 621 l 972 765 l 646 765 m 1083 -154 l 304 -154 l 304 300 l 1083 300 l 1083 210 l 401 210 l 401 -64 l 1083 -64 l 1083 -154 z "},"결":{"ha":1250,"x_min":81,"x_max":1113,"o":"m 81 486 q 581 911 522 607 l 150 911 l 150 1001 l 701 1001 l 699 907 l 690 875 l 988 875 l 988 989 l 897 989 l 897 1072 l 1085 1072 l 1085 436 l 988 436 l 988 556 l 647 556 l 647 646 l 988 646 l 988 785 l 658 785 q 121 396 532 504 l 81 486 m 988 282 l 293 282 l 293 372 l 1085 372 l 1085 56 l 390 56 l 390 -82 l 1113 -82 l 1113 -172 l 293 -172 l 293 146 l 988 146 l 988 282 z "},"겷":{"ha":1250,"x_min":126,"x_max":1158,"o":"m 126 469 q 440 629 310 510 q 596 896 564 744 l 164 896 l 164 990 l 688 990 l 685 896 l 681 875 l 960 875 l 960 989 l 869 989 l 869 1072 l 1057 1072 l 1057 436 l 960 436 l 960 556 l 631 556 l 631 646 l 960 646 l 960 785 l 653 785 q 500 565 601 660 q 338 452 428 497 q 146 383 249 407 l 126 469 m 571 233 l 258 233 l 258 317 l 828 317 l 828 411 l 918 411 l 918 317 l 1158 317 l 1158 233 l 665 233 l 665 64 l 354 64 l 354 -65 l 675 -65 l 675 -153 l 260 -153 l 260 151 l 571 151 l 571 233 m 926 -174 q 772 -122 832 -174 q 711 10 711 -71 q 772 144 711 92 q 926 196 832 196 q 1081 144 1021 196 q 1140 10 1140 92 q 1081 -122 1140 -71 q 926 -174 1021 -174 m 799 8 q 834 -65 799 -36 q 926 -93 869 -93 q 1018 -65 983 -93 q 1053 7 1053 -37 q 1018 85 1053 54 q 926 115 983 115 q 834 85 869 115 q 799 8 799 56 z "},"겸":{"ha":1250,"x_min":101,"x_max":1076,"o":"m 646 785 q 455 526 578 628 q 146 369 332 425 l 101 456 q 318 551 217 490 q 491 699 419 613 q 583 896 563 786 l 164 896 l 164 990 l 688 990 l 685 896 l 679 875 l 974 875 l 974 989 l 883 989 l 883 1072 l 1071 1072 l 1071 367 l 974 367 l 974 514 l 644 514 l 644 604 l 974 604 l 974 785 l 646 785 m 1076 -154 l 293 -154 l 293 306 l 1076 306 l 1076 -154 m 390 215 l 390 -64 l 979 -64 l 979 215 l 390 215 z "},"겹":{"ha":1250,"x_min":101,"x_max":1071,"o":"m 101 456 q 318 551 217 490 q 491 699 419 613 q 583 896 563 786 l 164 896 l 164 990 l 688 990 l 685 896 l 679 875 l 974 875 l 974 989 l 883 989 l 883 1072 l 1071 1072 l 1071 408 l 974 408 l 974 542 l 644 542 l 644 632 l 974 632 l 974 785 l 647 785 q 456 519 579 621 q 146 369 333 418 l 101 456 m 1063 -154 l 293 -154 l 293 326 l 390 326 l 390 190 l 965 190 l 965 333 l 1063 333 l 1063 -154 m 390 100 l 390 -64 l 965 -64 l 965 100 l 390 100 z "},"겻":{"ha":1250,"x_min":114,"x_max":1168,"o":"m 114 411 q 472 635 347 493 q 557 749 524 692 q 604 879 590 807 l 167 879 l 167 969 l 706 969 l 704 879 q 698 849 701 864 q 690 819 694 835 l 971 819 l 971 975 l 881 975 l 881 1065 l 1068 1065 l 1068 239 l 971 239 l 971 507 l 663 507 l 663 597 l 971 597 l 971 729 l 656 729 q 608 647 635 686 q 546 569 581 608 q 146 319 400 410 l 114 411 m 683 124 l 256 -164 l 204 -89 l 636 201 l 636 340 l 733 340 l 733 200 l 1168 -93 l 1117 -168 l 683 124 z "},"겼":{"ha":1250,"x_min":97,"x_max":1194,"o":"m 518 546 q 169 332 393 418 l 133 424 q 315 510 236 463 q 449 614 393 558 q 603 883 556 722 l 174 883 l 174 974 l 701 974 l 701 883 l 693 850 l 975 850 l 975 969 l 878 969 l 878 1060 l 1065 1060 l 1065 342 l 975 342 l 975 538 l 653 538 l 653 628 l 975 628 l 975 760 l 661 760 q 599 645 635 699 q 518 546 563 592 m 164 -178 l 97 -119 l 356 115 l 356 299 l 450 299 l 450 114 l 644 -51 l 842 118 l 842 299 l 939 299 l 939 110 l 1194 -122 l 1128 -181 l 885 40 l 644 -167 l 643 -167 l 403 40 l 164 -178 z "},"경":{"ha":1250,"x_min":88,"x_max":1076,"o":"m 88 414 q 255 485 174 440 q 404 590 336 529 q 519 724 472 650 q 583 882 567 799 l 164 882 l 164 976 l 688 976 l 685 882 q 678 856 682 868 q 671 831 675 843 l 974 831 l 974 989 l 883 989 l 883 1072 l 1071 1072 l 1071 328 l 974 328 l 974 489 l 639 489 l 639 579 l 974 579 l 974 740 l 636 740 q 439 485 568 590 q 132 328 310 381 l 88 414 m 690 -167 q 405 -106 506 -167 q 304 65 304 -46 q 405 237 304 176 q 690 297 506 297 q 976 237 876 297 q 1076 65 1076 176 q 976 -106 1076 -46 q 690 -167 876 -167 m 399 65 q 474 -42 399 -4 q 690 -79 550 -79 q 906 -42 831 -79 q 982 65 982 -4 q 906 172 982 135 q 690 210 831 210 q 474 172 550 210 q 399 65 399 135 z "},"겿":{"ha":1250,"x_min":108,"x_max":1136,"o":"m 108 432 q 467 656 342 514 q 551 770 518 713 q 599 900 585 828 l 161 900 l 161 990 l 700 990 l 699 900 q 692 870 696 885 q 685 840 689 856 l 965 840 l 965 963 l 875 963 l 875 1053 l 1063 1053 l 1063 353 l 965 353 l 965 528 l 657 528 l 657 618 l 965 618 l 965 750 l 650 750 q 602 668 629 707 q 540 590 575 629 q 140 340 394 431 l 108 432 m 640 182 l 283 182 l 283 269 l 640 269 l 640 397 l 735 397 l 735 269 l 1104 269 l 1104 182 l 735 182 l 735 89 l 1136 -118 l 1089 -192 l 686 17 l 283 -192 l 236 -118 l 640 90 l 640 182 z "},"곁":{"ha":1250,"x_min":108,"x_max":1083,"o":"m 108 432 q 467 656 342 514 q 551 770 518 713 q 599 900 585 828 l 161 900 l 161 990 l 700 990 l 699 900 q 692 870 696 885 q 685 840 689 856 l 965 840 l 965 963 l 875 963 l 875 1053 l 1063 1053 l 1063 401 l 965 401 l 965 528 l 657 528 l 657 618 l 965 618 l 965 750 l 650 750 q 602 668 629 707 q 540 590 575 629 q 140 340 394 431 l 108 432 m 1083 -154 l 304 -154 l 304 332 l 1083 332 l 1083 242 l 401 242 l 401 140 l 1083 140 l 1083 50 l 401 50 l 401 -64 l 1083 -64 l 1083 -154 z "},"계":{"ha":1250,"x_min":92,"x_max":1103,"o":"m 92 186 q 390 476 286 299 q 490 825 485 635 l 129 825 l 129 915 l 589 915 q 589 819 592 867 q 579 728 586 772 l 767 728 l 767 990 l 676 990 l 676 1081 l 864 1081 l 864 -157 l 767 -157 l 767 333 l 535 333 l 535 424 l 767 424 l 767 638 l 561 638 q 474 426 532 526 q 327 242 414 325 q 138 103 240 160 l 92 186 m 1103 -157 l 1006 -157 l 1006 1081 l 1103 1081 l 1103 -157 z "},"곈":{"ha":1250,"x_min":78,"x_max":1139,"o":"m 872 153 l 775 153 l 775 446 l 533 446 l 533 533 l 775 533 l 775 715 l 560 715 q 503 603 539 656 q 424 501 468 550 q 274 379 358 432 q 104 300 190 326 l 78 392 q 224 460 151 414 q 356 567 297 506 q 417 643 386 599 q 469 743 447 688 q 493 864 490 799 l 129 864 l 129 954 l 590 954 l 588 864 q 586 833 588 849 q 582 803 585 818 l 775 803 l 775 968 l 681 968 l 681 1058 l 872 1058 l 872 153 m 1113 153 l 1015 153 l 1015 1058 l 1113 1058 l 1113 153 m 1139 -139 l 314 -139 l 314 264 l 411 264 l 411 -49 l 1139 -49 l 1139 -139 z "},"곌":{"ha":1250,"x_min":115,"x_max":1140,"o":"m 115 494 q 386 654 276 540 q 467 771 435 710 q 508 899 499 832 l 140 899 l 140 989 l 601 989 l 599 899 q 596 879 597 889 q 592 860 594 869 l 818 860 l 818 975 l 721 975 l 721 1058 l 913 1058 l 913 418 l 818 418 l 818 568 l 542 568 l 542 656 l 818 656 l 818 772 l 565 772 q 454 596 528 675 q 317 487 394 532 q 150 415 239 442 l 115 494 m 1093 418 l 999 418 l 999 1058 l 1093 1058 l 1093 418 m 997 263 l 317 263 l 317 350 l 1093 350 l 1093 61 l 411 61 l 411 -75 l 1140 -75 l 1140 -162 l 317 -162 l 317 149 l 997 149 l 997 263 z "},"곕":{"ha":1250,"x_min":97,"x_max":1103,"o":"m 97 439 q 204 486 151 454 q 305 557 257 518 q 388 632 353 596 q 467 758 436 688 q 507 899 499 829 l 140 899 l 140 989 l 601 989 l 599 899 q 594 873 597 886 q 589 846 592 860 l 774 846 l 774 971 l 681 971 l 681 1058 l 868 1058 l 868 389 l 774 389 l 774 525 l 535 525 l 535 613 l 774 613 l 774 758 l 564 758 q 519 660 546 707 q 456 574 492 613 q 363 489 415 532 q 251 412 310 446 q 132 360 192 378 l 97 439 m 1103 389 l 1006 389 l 1006 1058 l 1103 1058 l 1103 389 m 328 -162 l 328 325 l 425 325 l 425 178 l 1006 178 l 1006 325 l 1103 325 l 1103 -162 l 328 -162 m 425 92 l 425 -76 l 1006 -76 l 1006 92 l 425 92 z "},"곗":{"ha":1250,"x_min":94,"x_max":1160,"o":"m 851 315 l 754 315 l 754 506 l 551 506 l 551 592 l 754 592 l 754 750 l 557 750 q 443 546 521 639 q 303 423 383 475 q 128 339 222 371 l 94 419 q 374 603 267 479 q 453 728 422 663 q 492 864 483 794 l 124 864 l 124 954 l 585 954 l 581 864 l 578 836 l 754 836 l 754 968 l 664 968 l 664 1058 l 851 1058 l 851 315 m 1093 315 l 996 315 l 996 1058 l 1093 1058 l 1093 315 m 247 -164 l 196 -89 l 628 164 l 628 285 l 725 285 l 725 161 l 1160 -93 l 1108 -168 l 674 86 l 247 -164 z "},"곘":{"ha":1250,"x_min":117,"x_max":1208,"o":"m 856 371 l 758 371 l 758 515 l 544 515 l 544 601 l 758 601 l 758 750 l 567 750 q 519 659 547 703 q 456 576 492 615 q 318 467 396 513 q 151 396 240 422 l 117 475 q 388 635 278 521 q 468 751 436 690 q 510 879 500 813 l 142 879 l 142 969 l 603 969 l 600 879 q 597 858 599 869 q 593 836 596 847 l 758 836 l 758 968 l 668 968 l 668 1058 l 856 1058 l 856 371 m 1093 356 l 996 356 l 996 1058 l 1093 1058 l 1093 356 m 194 -165 l 128 -107 l 413 193 l 413 326 l 507 326 l 507 179 l 667 -17 l 838 190 l 838 325 l 932 325 l 932 181 l 1208 -110 l 1142 -168 l 882 107 l 667 -149 l 453 108 l 194 -165 z "},"고":{"ha":1250,"x_min":86,"x_max":1163,"o":"m 1163 -8 l 86 -8 l 86 82 l 515 82 l 515 522 l 613 522 l 613 82 l 919 82 l 919 867 l 228 867 l 228 957 l 1017 957 l 1017 82 l 1163 82 l 1163 -8 z "},"곡":{"ha":1250,"x_min":75,"x_max":1174,"o":"m 1174 372 l 75 372 l 75 463 l 533 463 l 533 731 l 626 731 l 626 463 l 933 463 l 933 901 l 214 901 l 214 992 l 1031 992 l 1031 463 l 1174 463 l 1174 372 m 935 150 l 192 150 l 192 240 l 1033 240 l 1033 150 l 1032 150 l 1032 -172 l 935 -172 l 935 150 z "},"곤":{"ha":1250,"x_min":76,"x_max":1174,"o":"m 1174 372 l 76 372 l 76 463 l 531 463 l 531 713 l 624 713 l 624 463 l 926 463 l 926 915 l 217 915 l 217 1006 l 1024 1006 l 1024 463 l 1174 463 l 1174 372 m 1060 -133 l 219 -133 l 219 242 l 317 242 l 317 -43 l 1060 -43 l 1060 -133 z "},"곧":{"ha":1250,"x_min":76,"x_max":1174,"o":"m 1174 400 l 76 400 l 76 490 l 531 490 l 531 735 l 628 735 l 628 490 l 922 490 l 922 901 l 244 901 l 244 992 l 1019 992 l 1019 490 l 1174 490 l 1174 400 m 1032 -172 l 219 -172 l 219 268 l 1032 268 l 1032 178 l 317 178 l 317 -82 l 1032 -82 l 1032 -172 z "},"골":{"ha":1250,"x_min":76,"x_max":1174,"o":"m 1174 460 l 76 460 l 76 550 l 531 550 l 531 774 l 628 774 l 628 550 l 922 550 l 922 901 l 217 901 l 217 992 l 1019 992 l 1019 550 l 1174 550 l 1174 460 m 1074 -172 l 206 -172 l 206 143 l 933 143 l 933 264 l 206 264 l 206 354 l 1032 354 l 1032 264 l 1031 264 l 1031 143 l 1032 143 l 1032 53 l 303 53 l 303 -82 l 1074 -82 l 1074 -172 z "},"곪":{"ha":1250,"x_min":76,"x_max":1174,"o":"m 1174 446 l 76 446 l 76 536 l 531 536 l 531 760 l 628 760 l 628 536 l 922 536 l 922 915 l 217 915 l 217 1006 l 1019 1006 l 1019 536 l 1174 536 l 1174 446 m 200 -167 l 200 158 l 514 158 l 514 258 l 199 258 l 199 342 l 604 342 l 604 75 l 297 75 l 297 -83 l 656 -83 l 656 342 l 1050 342 l 1050 -167 l 200 -167 m 746 258 l 746 -83 l 960 -83 l 960 258 l 746 258 z "},"곬":{"ha":1250,"x_min":76,"x_max":1174,"o":"m 1174 446 l 76 446 l 76 536 l 531 536 l 531 760 l 628 760 l 628 536 l 922 536 l 922 915 l 217 915 l 217 1006 l 1019 1006 l 1019 536 l 1174 536 l 1174 446 m 193 -167 l 193 158 l 479 158 l 479 258 l 192 258 l 192 342 l 569 342 l 569 75 l 290 75 l 290 -83 l 561 -83 l 776 181 l 776 342 l 871 342 l 871 196 l 1122 -110 l 1057 -167 l 831 107 l 604 -167 l 193 -167 z "},"곯":{"ha":1250,"x_min":76,"x_max":1174,"o":"m 1174 446 l 76 446 l 76 536 l 531 536 l 531 760 l 628 760 l 628 536 l 922 536 l 922 915 l 217 915 l 217 1006 l 1019 1006 l 1019 536 l 1174 536 l 1174 446 m 1118 189 l 610 189 l 610 272 l 803 272 l 803 397 l 892 397 l 892 272 l 1118 272 l 1118 189 m 210 -139 l 210 135 l 464 135 l 464 239 l 208 239 l 208 326 l 558 326 l 558 135 l 560 135 l 560 47 l 304 47 l 304 -49 l 646 -49 q 644 -34 644 -42 q 643 -19 643 -26 q 674 70 643 31 q 757 133 704 110 q 874 157 810 157 q 991 135 939 158 q 1074 71 1043 111 q 1104 -19 1104 31 q 1074 -108 1104 -68 q 991 -170 1043 -147 q 874 -193 939 -193 q 781 -178 824 -193 q 706 -139 738 -164 l 210 -139 m 726 -19 q 769 -88 726 -60 q 874 -117 813 -117 q 978 -88 935 -117 q 1021 -19 1021 -60 q 978 51 1021 22 q 874 81 935 81 q 769 51 813 81 q 726 -19 726 22 z "},"곰":{"ha":1250,"x_min":76,"x_max":1174,"o":"m 1174 415 l 76 415 l 76 506 l 531 506 l 531 729 l 628 729 l 628 506 l 922 506 l 922 915 l 217 915 l 217 1006 l 1019 1006 l 1019 506 l 1174 506 l 1174 415 m 1047 -157 l 203 -157 l 203 268 l 1047 268 l 1047 -157 m 300 178 l 300 -67 l 950 -67 l 950 178 l 300 178 z "},"곱":{"ha":1250,"x_min":76,"x_max":1174,"o":"m 1174 415 l 76 415 l 76 506 l 531 506 l 531 729 l 628 729 l 628 506 l 922 506 l 922 915 l 217 915 l 217 1006 l 1019 1006 l 1019 506 l 1174 506 l 1174 415 m 1047 -157 l 203 -157 l 203 331 l 300 331 l 300 181 l 950 181 l 950 331 l 1047 331 l 1047 -157 m 300 90 l 300 -67 l 950 -67 l 950 90 l 300 90 z "},"곳":{"ha":1250,"x_min":76,"x_max":1174,"o":"m 1174 388 l 76 388 l 76 478 l 531 478 l 531 729 l 628 729 l 628 478 l 922 478 l 922 915 l 217 915 l 217 1006 l 1019 1006 l 1019 478 l 1174 478 l 1174 388 m 618 72 l 192 -178 l 140 -103 l 572 150 l 572 285 l 669 285 l 669 147 l 1104 -107 l 1053 -182 l 618 72 z "},"공":{"ha":1250,"x_min":63,"x_max":1174,"o":"m 939 910 l 196 910 l 196 1000 l 1036 1000 l 1036 478 l 1174 478 l 1174 388 l 63 388 l 63 478 l 529 478 l 529 721 l 626 721 l 626 478 l 939 478 l 939 910 m 196 47 q 303 217 196 161 q 618 274 410 274 q 934 217 826 274 q 1042 47 1042 161 q 934 -126 1042 -68 q 618 -183 826 -183 q 303 -126 410 -183 q 196 47 196 -68 m 293 47 q 376 -58 293 -24 q 618 -93 458 -93 q 861 -58 778 -93 q 944 47 944 -24 q 861 150 944 117 q 618 183 778 183 q 376 150 458 183 q 293 47 293 117 z "},"곶":{"ha":1250,"x_min":76,"x_max":1174,"o":"m 1174 415 l 76 415 l 76 506 l 531 506 l 531 729 l 628 729 l 628 506 l 922 506 l 922 915 l 217 915 l 217 1006 l 1019 1006 l 1019 506 l 1174 506 l 1174 415 m 581 196 l 207 196 l 207 283 l 1042 283 l 1042 196 l 675 196 l 675 135 l 1110 -107 l 1058 -182 l 624 58 l 197 -178 l 146 -103 l 581 139 l 581 196 z "},"곹":{"ha":1250,"x_min":76,"x_max":1174,"o":"m 1174 443 l 76 443 l 76 533 l 531 533 l 531 729 l 628 729 l 628 533 l 922 533 l 922 915 l 217 915 l 217 1006 l 1019 1006 l 1019 533 l 1174 533 l 1174 443 m 1065 -147 l 228 -147 l 228 324 l 1035 324 l 1035 240 l 318 240 l 318 126 l 1007 126 l 1007 43 l 318 43 l 318 -64 l 1065 -64 l 1065 -147 z "},"과":{"ha":1250,"x_min":47,"x_max":1214,"o":"m 1008 -172 l 911 -172 l 911 106 l 47 106 l 47 196 l 326 196 l 326 565 l 424 565 l 424 196 l 911 196 l 911 969 l 821 969 l 821 1053 l 1008 1053 l 1008 557 l 1214 557 l 1214 467 l 1008 467 l 1008 -172 m 651 843 l 115 843 l 115 929 l 744 929 l 744 379 l 651 379 l 651 843 z "},"곽":{"ha":1250,"x_min":79,"x_max":1192,"o":"m 988 286 l 897 286 l 897 367 l 79 367 l 79 454 l 357 454 l 357 717 l 450 717 l 450 454 l 897 454 l 899 978 l 801 978 l 801 1061 l 989 1061 l 988 661 l 1192 661 l 1192 574 l 988 574 l 988 286 m 638 889 l 126 889 l 126 972 l 735 972 l 735 574 l 638 574 l 638 889 m 897 140 l 226 140 l 226 231 l 994 231 l 994 -172 l 897 -172 l 897 140 z "},"관":{"ha":1250,"x_min":71,"x_max":1232,"o":"m 924 338 l 71 338 l 71 428 l 325 428 l 325 689 l 422 689 l 422 428 l 924 428 l 924 990 l 833 990 l 833 1081 l 1021 1081 l 1021 664 l 1232 664 l 1232 574 l 1021 574 l 1021 154 l 924 154 l 924 338 m 622 889 l 126 889 l 126 972 l 719 972 l 719 528 l 622 528 l 622 889 m 250 -143 l 250 222 l 347 222 l 347 -53 l 1085 -53 l 1085 -143 l 250 -143 z "},"괄":{"ha":1250,"x_min":58,"x_max":1201,"o":"m 1004 392 l 907 392 l 907 440 l 58 440 l 58 528 l 325 528 l 325 754 l 422 754 l 422 528 l 907 528 l 908 971 l 818 971 l 818 1061 l 1006 1061 l 1006 782 l 1201 782 l 1201 692 l 1004 692 l 1004 392 m 638 906 l 154 906 l 154 996 l 735 996 l 735 618 l 638 618 l 638 906 m 904 256 l 238 256 l 238 346 l 1001 346 l 1001 63 l 333 63 l 333 -82 l 1067 -82 l 1067 -172 l 239 -172 l 239 153 l 904 153 l 904 256 z "},"괆":{"ha":1250,"x_min":79,"x_max":1196,"o":"m 915 442 l 79 442 l 79 529 l 361 529 l 361 751 l 454 751 l 454 529 l 915 529 l 915 997 l 825 997 l 825 1081 l 1013 1081 l 1013 806 l 1196 806 l 1196 715 l 1013 715 l 1013 381 l 915 381 l 915 442 m 672 913 l 149 913 l 149 996 l 769 996 l 769 618 l 672 618 l 672 913 m 185 -167 l 185 131 l 471 131 l 471 231 l 183 231 l 183 314 l 561 314 l 561 47 l 275 47 l 275 -83 l 651 -83 l 651 314 l 1007 314 l 1007 -167 l 185 -167 m 742 231 l 742 -83 l 917 -83 l 917 231 l 742 231 z "},"괌":{"ha":1250,"x_min":81,"x_max":1204,"o":"m 1010 318 l 919 318 l 919 393 l 81 393 l 81 483 l 322 483 l 322 710 l 419 710 l 419 483 l 919 483 l 921 971 l 824 971 l 824 1061 l 1011 1061 l 1011 731 l 1204 731 l 1204 640 l 1010 640 l 1010 318 m 638 893 l 140 893 l 140 983 l 735 983 l 735 557 l 638 557 l 638 893 m 250 168 l 249 168 l 249 258 l 1014 258 l 1014 -172 l 250 -172 l 250 168 m 347 168 l 347 -79 l 917 -79 l 917 168 l 347 168 z "},"괍":{"ha":1250,"x_min":85,"x_max":1207,"o":"m 917 417 l 85 417 l 85 507 l 326 507 l 326 710 l 424 710 l 424 507 l 917 507 l 918 971 l 828 971 l 828 1061 l 1015 1061 l 1015 746 l 1207 746 l 1207 656 l 1014 656 l 1014 361 l 917 361 l 917 417 m 642 893 l 144 893 l 144 983 l 739 983 l 739 585 l 642 585 l 642 893 m 236 -172 l 236 85 l 235 85 l 235 175 l 236 175 l 236 310 l 333 310 l 333 175 l 917 175 l 917 310 l 1014 310 l 1014 -172 l 236 -172 m 333 85 l 333 -82 l 917 -82 l 917 85 l 333 85 z "},"괏":{"ha":1250,"x_min":65,"x_max":1200,"o":"m 917 357 l 65 357 l 65 447 l 324 447 l 324 700 l 421 700 l 421 447 l 624 447 l 624 893 l 140 893 l 140 983 l 721 983 l 721 447 l 917 447 l 918 971 l 828 971 l 828 1061 l 1015 1061 l 1015 683 l 1200 683 l 1200 593 l 1014 593 l 1014 207 l 917 207 l 917 357 m 231 -164 l 179 -89 l 592 144 l 592 271 l 689 271 l 689 142 l 1129 -93 l 1078 -168 l 639 67 l 231 -164 z "},"괐":{"ha":1250,"x_min":65,"x_max":1200,"o":"m 917 390 l 65 390 l 65 481 l 324 481 l 324 728 l 421 728 l 421 481 l 917 481 l 918 971 l 828 971 l 828 1061 l 1015 1061 l 1015 733 l 1200 733 l 1200 643 l 1014 643 l 1014 311 l 917 311 l 917 390 m 624 893 l 136 893 l 136 983 l 721 983 l 721 585 l 624 585 l 624 893 m 800 124 l 800 268 l 894 268 l 894 115 l 1157 -110 l 1090 -168 l 843 44 l 629 -149 l 417 46 l 171 -165 l 104 -107 l 375 125 l 375 269 l 469 269 l 469 115 l 629 -31 l 800 124 z "},"광":{"ha":1250,"x_min":76,"x_max":1200,"o":"m 921 383 l 76 383 l 76 474 l 336 474 l 336 713 l 433 713 l 433 474 l 921 474 l 922 971 l 832 971 l 832 1061 l 1019 1061 l 1019 729 l 1200 729 l 1200 639 l 1018 639 l 1018 286 l 921 286 l 921 383 m 636 910 l 142 910 l 142 997 l 731 997 l 731 561 l 636 561 l 636 910 m 229 50 q 632 264 229 264 q 1033 50 1033 265 q 632 -165 1033 -165 q 229 50 229 -165 m 326 50 q 632 -75 326 -75 q 936 50 936 -75 q 632 174 936 174 q 326 50 326 174 z "},"괒":{"ha":1250,"x_min":63,"x_max":1207,"o":"m 911 392 l 63 392 l 63 479 l 329 479 l 329 713 l 426 713 l 426 479 l 911 479 l 913 971 l 822 971 l 822 1061 l 1010 1061 l 1010 731 l 1207 731 l 1207 640 l 1008 640 l 1008 311 l 911 311 l 911 392 m 642 892 l 158 892 l 158 982 l 739 982 l 739 590 l 642 590 l 642 892 m 599 149 l 238 149 l 238 239 l 1056 239 l 1056 149 l 696 149 l 696 74 l 1101 -107 l 1050 -182 l 643 0 l 244 -178 l 193 -103 l 599 78 l 599 149 z "},"괘":{"ha":1250,"x_min":53,"x_max":1106,"o":"m 785 106 l 53 106 l 53 196 l 261 196 l 261 565 l 358 565 l 358 196 l 785 196 l 785 974 l 694 974 l 694 1064 l 882 1064 l 882 613 l 1008 613 l 1008 1064 l 1106 1064 l 1106 -146 l 1008 -146 l 1008 522 l 882 522 l 882 -146 l 785 -146 l 785 106 m 540 839 l 121 839 l 121 929 l 638 929 l 638 379 l 540 379 l 540 839 z "},"괜":{"ha":1250,"x_min":99,"x_max":1157,"o":"m 792 338 l 99 338 l 99 428 l 286 428 l 286 689 l 383 689 l 383 428 l 792 428 l 792 949 l 701 949 l 701 1039 l 889 1039 l 889 682 l 1008 682 l 1008 1039 l 1106 1039 l 1106 153 l 1008 153 l 1008 592 l 889 592 l 889 153 l 792 153 l 792 338 m 542 875 l 154 875 l 154 958 l 639 958 l 639 528 l 542 528 l 542 875 m 292 -143 l 292 222 l 389 222 l 389 -53 l 1157 -53 l 1157 -143 l 292 -143 z "},"괠":{"ha":1250,"x_min":51,"x_max":1144,"o":"m 792 429 l 51 429 l 51 517 l 271 517 l 271 749 l 365 749 l 365 517 l 792 517 l 792 949 l 701 949 l 701 1039 l 889 1039 l 889 682 l 1008 682 l 1008 1039 l 1106 1039 l 1106 367 l 1008 367 l 1008 592 l 889 592 l 889 367 l 792 367 l 792 429 m 535 894 l 114 894 l 114 982 l 629 982 l 629 597 l 535 597 l 535 894 m 285 -172 l 285 125 l 1008 125 l 1008 219 l 279 219 l 279 307 l 1103 307 l 1103 38 l 379 38 l 379 -85 l 1144 -85 l 1144 -172 l 285 -172 z "},"괢":{"ha":1250,"x_min":79,"x_max":1106,"o":"m 776 440 l 79 440 l 79 524 l 271 524 l 271 753 l 361 753 l 361 524 l 776 524 l 776 949 l 686 949 l 686 1039 l 874 1039 l 874 761 l 1008 761 l 1008 1039 l 1106 1039 l 1106 376 l 1008 376 l 1008 679 l 874 679 l 874 376 l 776 376 l 776 440 m 513 899 l 126 899 l 126 982 l 603 982 l 603 618 l 513 618 l 513 899 m 210 -172 l 210 139 l 511 139 l 511 233 l 204 233 l 204 317 l 601 317 l 601 51 l 300 51 l 300 -89 l 692 -89 l 692 317 l 1090 317 l 1090 -172 l 210 -172 m 782 233 l 782 -89 l 1000 -89 l 1000 233 l 782 233 z "},"괩":{"ha":1250,"x_min":93,"x_max":1106,"o":"m 792 417 l 93 417 l 93 504 l 271 504 l 271 749 l 365 749 l 365 504 l 792 504 l 792 949 l 701 949 l 701 1039 l 889 1039 l 889 682 l 1008 682 l 1008 1039 l 1106 1039 l 1106 349 l 1008 349 l 1008 592 l 889 592 l 889 349 l 792 349 l 792 417 m 535 894 l 154 894 l 154 982 l 629 982 l 629 604 l 535 604 l 535 894 m 303 -144 l 303 297 l 397 297 l 397 153 l 1006 153 l 1006 297 l 1100 297 l 1100 -144 l 303 -144 m 397 65 l 397 -57 l 1006 -57 l 1006 65 l 397 65 z "},"괬":{"ha":1250,"x_min":51,"x_max":1194,"o":"m 792 379 l 51 379 l 51 467 l 271 467 l 271 721 l 365 721 l 365 467 l 792 467 l 792 949 l 701 949 l 701 1039 l 889 1039 l 889 682 l 1008 682 l 1008 1039 l 1106 1039 l 1106 317 l 1008 317 l 1008 592 l 889 592 l 889 317 l 792 317 l 792 379 m 535 881 l 154 881 l 154 968 l 629 968 l 629 576 l 535 576 l 535 881 m 164 -178 l 97 -119 l 356 89 l 356 243 l 450 243 l 450 89 l 644 -57 l 842 92 l 842 243 l 939 243 l 939 83 l 1194 -122 l 1128 -181 l 885 17 l 644 -167 l 643 -167 l 403 17 l 164 -178 z "},"괭":{"ha":1250,"x_min":93,"x_max":1106,"o":"m 792 372 l 93 372 l 93 460 l 271 460 l 271 725 l 365 725 l 365 460 l 792 460 l 792 949 l 701 949 l 701 1039 l 889 1039 l 889 682 l 1008 682 l 1008 1039 l 1106 1039 l 1106 297 l 1008 297 l 1008 592 l 889 592 l 889 297 l 792 297 l 792 372 m 535 881 l 154 881 l 154 968 l 629 968 l 629 569 l 535 569 l 535 881 m 699 -183 q 283 33 283 -183 q 699 250 283 250 q 1099 33 1099 251 q 699 -183 1099 -183 m 381 33 q 699 -93 381 -93 q 1001 33 1001 -93 q 699 160 1001 160 q 381 33 381 160 z "},"괴":{"ha":1250,"x_min":81,"x_max":1068,"o":"m 1068 -172 l 971 -172 l 971 106 l 81 106 l 81 196 l 360 196 l 360 565 l 457 565 l 457 196 l 971 196 l 971 988 l 881 988 l 881 1078 l 1068 1078 l 1068 -172 m 654 839 l 149 839 l 149 929 l 751 929 l 751 379 l 654 379 l 654 839 z "},"괵":{"ha":1250,"x_min":107,"x_max":1044,"o":"m 1038 286 l 947 286 l 947 367 l 107 367 l 107 454 l 357 454 l 357 717 l 450 717 l 450 454 l 947 454 l 949 978 l 851 978 l 851 1061 l 1039 1061 l 1038 286 m 658 889 l 154 889 l 154 972 l 756 972 l 756 574 l 658 574 l 658 889 m 947 140 l 268 140 l 268 231 l 1044 231 l 1044 -172 l 947 -172 l 947 140 z "},"괸":{"ha":1250,"x_min":99,"x_max":1136,"o":"m 975 338 l 99 338 l 99 428 l 381 428 l 381 689 l 478 689 l 478 428 l 975 428 l 975 963 l 885 963 l 885 1053 l 1072 1053 l 1072 154 l 975 154 l 975 338 m 672 879 l 154 879 l 154 963 l 769 963 l 769 528 l 672 528 l 672 879 m 292 -143 l 292 222 l 389 222 l 389 -53 l 1136 -53 l 1136 -143 l 292 -143 z "},"괼":{"ha":1250,"x_min":107,"x_max":1104,"o":"m 1069 376 l 979 376 l 979 429 l 107 429 l 107 517 l 361 517 l 361 729 l 454 729 l 454 517 l 979 517 l 981 971 l 883 971 l 883 1061 l 1071 1061 l 1069 376 m 663 913 l 182 913 l 182 996 l 760 996 l 760 618 l 663 618 l 663 913 m 976 243 l 267 243 l 267 331 l 1071 331 l 1071 44 l 363 44 l 363 -82 l 1104 -82 l 1104 -172 l 268 -172 l 268 132 l 976 132 l 976 243 z "},"굄":{"ha":1250,"x_min":107,"x_max":1065,"o":"m 1064 308 l 974 308 l 974 386 l 107 386 l 107 474 l 361 474 l 361 729 l 454 729 l 454 474 l 974 474 l 975 963 l 878 963 l 878 1053 l 1065 1053 l 1064 308 m 665 899 l 154 899 l 154 982 l 763 982 l 763 557 l 665 557 l 665 899 m 281 160 l 279 160 l 279 247 l 1065 247 l 1065 -172 l 281 -172 l 281 160 m 375 160 l 375 -82 l 971 -82 l 971 160 l 375 160 z "},"굅":{"ha":1250,"x_min":107,"x_max":1065,"o":"m 1064 343 l 974 343 l 974 408 l 107 408 l 107 496 l 361 496 l 361 729 l 454 729 l 454 496 l 974 496 l 975 963 l 878 963 l 878 1053 l 1065 1053 l 1064 343 m 665 899 l 154 899 l 154 982 l 763 982 l 763 586 l 665 586 l 665 899 m 281 74 l 279 74 l 279 161 l 281 161 l 281 292 l 375 292 l 375 161 l 971 161 l 971 285 l 1065 285 l 1065 -172 l 281 -172 l 281 74 m 375 74 l 375 -82 l 971 -82 l 971 74 l 375 74 z "},"굇":{"ha":1250,"x_min":107,"x_max":1143,"o":"m 974 372 l 107 372 l 107 460 l 361 460 l 361 715 l 454 715 l 454 460 l 974 460 l 975 963 l 878 963 l 878 1053 l 1065 1053 l 1064 197 l 974 197 l 974 372 m 665 899 l 154 899 l 154 982 l 763 982 l 763 557 l 665 557 l 665 899 m 671 71 l 258 -164 l 207 -89 l 625 149 l 625 275 l 722 275 l 722 146 l 1143 -93 l 1092 -168 l 671 71 z "},"굉":{"ha":1250,"x_min":107,"x_max":1076,"o":"m 1064 308 l 974 308 l 974 386 l 107 386 l 107 474 l 361 474 l 361 729 l 454 729 l 454 474 l 974 474 l 975 963 l 878 963 l 878 1053 l 1065 1053 l 1064 308 m 665 899 l 154 899 l 154 982 l 763 982 l 763 557 l 665 557 l 665 899 m 272 53 q 675 260 272 260 q 1076 53 1076 261 q 675 -156 1076 -156 q 272 53 272 -156 m 369 53 q 675 -65 369 -65 q 979 53 979 -65 q 675 169 979 169 q 369 53 369 169 z "},"교":{"ha":1250,"x_min":61,"x_max":1201,"o":"m 1201 -10 l 61 -10 l 61 81 l 367 81 l 367 499 l 464 497 l 464 81 l 664 81 l 664 499 l 761 499 l 761 81 l 932 81 l 932 850 l 179 850 l 179 940 l 1029 940 l 1029 81 l 1201 81 l 1201 -10 z "},"굔":{"ha":1250,"x_min":76,"x_max":1174,"o":"m 1174 363 l 76 363 l 76 453 l 374 453 l 374 713 l 467 713 l 467 453 l 658 453 l 658 713 l 751 713 l 751 453 l 940 453 l 940 901 l 203 901 l 203 992 l 1038 992 l 1038 453 l 1174 453 l 1174 363 m 1088 -156 l 219 -156 l 219 242 l 317 242 l 317 -65 l 1088 -65 l 1088 -156 z "},"굘":{"ha":1250,"x_min":76,"x_max":1174,"o":"m 1174 460 l 76 460 l 76 550 l 372 550 l 372 765 l 465 765 l 465 550 l 658 550 l 658 765 l 751 765 l 751 550 l 936 550 l 936 915 l 203 915 l 203 1006 l 1033 1006 l 1033 550 l 1174 550 l 1174 460 m 1088 -158 l 219 -158 l 219 157 l 933 157 l 933 278 l 219 278 l 219 354 l 1032 354 l 1032 278 l 1031 278 l 1031 157 l 1032 157 l 1032 67 l 317 67 l 317 -68 l 1088 -68 l 1088 -158 z "},"굠":{"ha":1250,"x_min":76,"x_max":1174,"o":"m 1174 403 l 76 403 l 76 493 l 372 493 l 372 708 l 465 708 l 465 493 l 658 493 l 658 708 l 751 708 l 751 493 l 936 493 l 936 915 l 203 915 l 203 1006 l 1033 1006 l 1033 493 l 1174 493 l 1174 403 m 1032 -158 l 219 -158 l 219 271 l 1032 271 l 1032 -158 m 317 181 l 317 -68 l 935 -68 l 935 181 l 317 181 z "},"굡":{"ha":1250,"x_min":76,"x_max":1174,"o":"m 1174 419 l 76 419 l 76 510 l 372 510 l 372 739 l 465 739 l 465 510 l 658 510 l 658 739 l 751 739 l 751 510 l 936 510 l 936 915 l 203 915 l 203 1006 l 1033 1006 l 1033 510 l 1174 510 l 1174 419 m 1047 -157 l 203 -157 l 203 331 l 300 331 l 300 181 l 950 181 l 950 331 l 1047 331 l 1047 -157 m 300 90 l 300 -67 l 950 -67 l 950 90 l 300 90 z "},"굣":{"ha":1250,"x_min":76,"x_max":1174,"o":"m 1174 378 l 76 378 l 76 468 l 372 468 l 372 739 l 465 739 l 465 468 l 658 468 l 658 739 l 751 739 l 751 468 l 950 468 l 950 915 l 203 915 l 203 1006 l 1047 1006 l 1047 468 l 1174 468 l 1174 378 m 618 58 l 192 -178 l 140 -103 l 572 136 l 572 282 l 669 282 l 669 135 l 1104 -107 l 1053 -182 l 618 58 z "},"굥":{"ha":1250,"x_min":76,"x_max":1174,"o":"m 1174 392 l 76 392 l 76 482 l 372 482 l 372 739 l 465 739 l 465 482 l 658 482 l 658 739 l 751 739 l 751 482 l 936 482 l 936 915 l 203 915 l 203 1006 l 1033 1006 l 1033 482 l 1174 482 l 1174 392 m 626 -169 q 225 61 225 -169 q 626 288 225 288 q 1028 61 1028 288 q 626 -169 1028 -169 m 322 61 q 626 -79 322 -79 q 931 61 931 -79 q 626 197 931 197 q 322 61 322 197 z "},"구":{"ha":1250,"x_min":60,"x_max":1186,"o":"m 674 -164 l 576 -164 l 576 372 l 60 372 l 60 463 l 919 463 l 919 917 l 228 917 l 228 1007 l 1017 1007 l 1017 463 l 1186 463 l 1186 372 l 674 372 l 674 -164 z "},"국":{"ha":1250,"x_min":76,"x_max":1174,"o":"m 1035 -151 l 938 -151 l 938 149 l 199 149 l 199 239 l 589 239 l 589 442 l 76 442 l 76 532 l 908 532 l 908 904 l 229 904 l 229 994 l 1006 994 l 1006 532 l 1174 532 l 1174 442 l 686 442 l 686 239 l 1035 239 l 1035 -151 z "},"군":{"ha":1250,"x_min":103,"x_max":1146,"o":"m 678 135 l 581 135 l 581 433 l 103 433 l 103 524 l 908 524 l 908 915 l 256 915 l 256 1006 l 1006 1006 l 1006 524 l 1146 524 l 1146 433 l 678 433 l 678 135 m 1075 -133 l 215 -133 l 215 279 l 313 279 l 313 -43 l 1075 -43 l 1075 -133 z "},"굳":{"ha":1250,"x_min":76,"x_max":1174,"o":"m 576 460 l 76 460 l 76 550 l 894 550 l 894 901 l 244 901 l 244 992 l 992 992 l 992 550 l 1174 550 l 1174 460 l 669 460 l 669 276 l 1039 276 l 1039 186 l 315 186 l 315 -82 l 1039 -82 l 1039 -172 l 218 -172 l 218 276 l 576 276 l 576 460 z "},"굴":{"ha":1250,"x_min":76,"x_max":1174,"o":"m 576 517 l 76 517 l 76 607 l 936 607 l 936 917 l 244 917 l 244 1007 l 1033 1007 l 1033 607 l 1174 607 l 1174 517 l 674 517 l 674 354 l 1029 354 l 1029 53 l 317 53 l 317 -82 l 1071 -82 l 1071 -172 l 219 -172 l 219 143 l 932 143 l 932 264 l 219 264 l 219 354 l 576 354 l 576 517 z "},"굵":{"ha":1250,"x_min":76,"x_max":1174,"o":"m 576 507 l 76 507 l 76 597 l 894 597 l 894 908 l 244 908 l 244 999 l 992 999 l 992 597 l 1174 597 l 1174 507 l 669 507 l 669 307 l 1036 307 l 1036 -151 l 942 -151 l 942 224 l 610 224 l 610 35 l 299 35 l 299 -67 l 671 -67 l 671 -151 l 204 -151 l 204 119 l 515 119 l 515 224 l 203 224 l 203 307 l 576 307 l 576 507 z "},"굶":{"ha":1250,"x_min":76,"x_max":1174,"o":"m 576 500 l 76 500 l 76 590 l 894 590 l 894 901 l 244 901 l 244 992 l 992 992 l 992 590 l 1174 590 l 1174 500 l 669 500 l 669 343 l 1007 343 l 1007 -167 l 213 -167 l 213 158 l 486 158 l 486 254 l 210 254 l 211 342 l 576 342 l 576 71 l 307 71 l 307 -79 l 651 -79 l 651 343 l 576 343 l 576 500 m 742 258 l 742 -83 l 917 -83 l 917 258 l 742 258 z "},"굻":{"ha":1250,"x_min":76,"x_max":1174,"o":"m 576 506 l 76 506 l 76 596 l 922 596 l 922 915 l 244 915 l 244 1006 l 1019 1006 l 1019 596 l 1174 596 l 1174 506 l 669 506 l 669 292 l 582 292 l 582 42 l 306 42 l 306 -65 l 692 -65 q 682 -8 682 -42 q 740 117 682 71 q 897 164 799 164 q 1053 117 996 164 q 1111 -8 1111 71 q 1053 -132 1111 -86 q 897 -178 996 -178 q 774 -153 824 -178 l 211 -153 l 211 129 l 488 129 l 488 239 l 210 239 l 211 326 l 576 326 l 576 506 m 1139 208 l 669 208 l 669 292 l 856 292 l 856 394 l 950 394 l 950 292 l 1139 292 l 1139 208 m 769 -10 q 803 -74 769 -50 q 897 -97 838 -97 q 990 -74 956 -97 q 1024 -11 1024 -50 q 990 58 1024 33 q 897 83 956 83 q 803 58 838 83 q 769 -10 769 33 z "},"굼":{"ha":1250,"x_min":76,"x_max":1174,"o":"m 576 469 l 76 469 l 76 560 l 922 560 l 922 915 l 217 915 l 217 1006 l 1019 1006 l 1019 560 l 1174 560 l 1174 469 l 669 469 l 669 268 l 1047 268 l 1047 -157 l 203 -157 l 203 268 l 576 268 l 576 469 m 300 178 l 300 -67 l 950 -67 l 950 178 l 300 178 z "},"굽":{"ha":1250,"x_min":76,"x_max":1174,"o":"m 576 460 l 76 460 l 76 550 l 922 550 l 922 903 l 217 903 l 217 993 l 1019 993 l 1019 550 l 1174 550 l 1174 460 l 669 460 l 669 181 l 950 181 l 950 331 l 1047 331 l 1047 -157 l 203 -157 l 203 331 l 300 331 l 300 181 l 576 181 l 576 460 m 300 90 l 300 -67 l 950 -67 l 950 90 l 300 90 z "},"굿":{"ha":1250,"x_min":76,"x_max":1174,"o":"m 576 463 l 76 463 l 76 553 l 922 553 l 922 903 l 217 903 l 217 993 l 1019 993 l 1019 553 l 1174 553 l 1174 463 l 674 463 l 674 157 l 1104 -107 l 1053 -182 l 619 85 l 192 -178 l 140 -103 l 576 165 l 576 463 z "},"궁":{"ha":1250,"x_min":60,"x_max":1172,"o":"m 910 910 l 232 910 l 232 1000 l 1007 1000 l 1007 554 l 1172 554 l 1172 460 l 669 460 l 669 286 q 935 222 843 281 q 1028 61 1028 164 q 924 -109 1028 -49 q 626 -169 819 -169 q 329 -109 433 -169 q 225 61 225 -49 q 315 220 225 163 q 572 286 404 278 l 572 460 l 60 460 l 60 554 l 910 554 l 910 910 m 322 61 q 401 -43 322 -7 q 626 -79 481 -79 q 851 -43 772 -79 q 931 61 931 -7 q 851 162 931 126 q 626 197 772 197 q 401 162 481 197 q 322 61 322 126 z "},"궂":{"ha":1250,"x_min":76,"x_max":1174,"o":"m 576 486 l 76 486 l 76 576 l 894 576 l 894 908 l 244 908 l 244 999 l 992 999 l 992 576 l 1174 576 l 1174 486 l 671 486 l 671 350 l 576 350 l 576 486 m 192 -178 l 140 -103 l 572 163 l 572 224 l 214 224 l 214 311 l 1049 311 l 1049 224 l 669 224 l 669 160 l 1104 -107 l 1053 -182 l 619 85 l 192 -178 z "},"궃":{"ha":1250,"x_min":76,"x_max":1174,"o":"m 575 518 l 76 518 l 76 608 l 894 608 l 894 911 l 244 911 l 244 1001 l 992 1001 l 992 608 l 1174 608 l 1174 518 l 669 518 l 669 417 l 575 417 l 575 518 m 192 -178 l 140 -103 l 572 163 l 572 214 l 214 214 l 214 301 l 572 301 l 572 383 l 669 383 l 669 301 l 1049 301 l 1049 214 l 669 214 l 669 160 l 1104 -107 l 1053 -182 l 619 85 l 192 -178 z "},"궈":{"ha":1250,"x_min":75,"x_max":1061,"o":"m 1061 -153 l 964 -153 l 964 703 l 743 703 l 743 474 l 886 474 l 886 383 l 535 383 l 535 -153 l 438 -153 l 438 383 l 75 383 l 75 474 l 646 474 l 646 888 l 172 888 l 172 978 l 743 978 l 743 793 l 964 793 l 964 994 l 874 994 l 874 1078 l 1061 1078 l 1061 -153 z "},"궉":{"ha":1250,"x_min":121,"x_max":1075,"o":"m 1075 -172 l 978 -172 l 978 150 l 242 150 l 242 240 l 426 240 l 426 479 l 121 479 l 121 567 l 647 567 l 647 922 l 185 922 l 185 1010 l 742 1010 l 742 819 l 978 819 l 978 975 l 888 975 l 888 1065 l 1075 1065 l 1075 288 l 978 288 l 978 729 l 742 729 l 742 567 l 899 567 l 899 479 l 521 479 l 521 240 l 1075 240 l 1075 -172 z "},"권":{"ha":1250,"x_min":74,"x_max":1115,"o":"m 1068 133 l 971 133 l 971 736 l 744 736 l 744 531 l 879 531 l 879 443 l 531 443 l 531 172 l 436 172 l 436 443 l 74 443 l 74 531 l 650 531 l 650 908 l 175 908 l 175 996 l 744 996 l 744 826 l 971 826 l 971 975 l 881 975 l 881 1065 l 1068 1065 l 1068 133 m 1115 -143 l 247 -143 l 247 236 l 344 236 l 344 -53 l 1115 -53 l 1115 -143 z "},"궐":{"ha":1250,"x_min":114,"x_max":1129,"o":"m 1068 396 l 971 396 l 971 743 l 735 743 l 735 581 l 892 581 l 892 493 l 514 493 l 514 342 l 1071 342 l 1071 60 l 353 60 l 353 -82 l 1129 -82 l 1129 -172 l 256 -172 l 256 150 l 974 150 l 974 251 l 257 251 l 257 342 l 419 342 l 419 493 l 114 493 l 114 581 l 640 581 l 640 922 l 178 922 l 178 1010 l 735 1010 l 735 833 l 971 833 l 971 975 l 881 975 l 881 1065 l 1068 1065 l 1068 396 z "},"궜":{"ha":1250,"x_min":114,"x_max":1194,"o":"m 1068 310 l 971 310 l 971 729 l 735 729 l 735 539 l 892 539 l 892 451 l 476 451 l 476 88 l 647 -56 l 842 92 l 842 243 l 939 243 l 939 83 l 1194 -122 l 1128 -181 l 885 17 l 644 -167 l 643 -167 l 429 14 l 192 -178 l 125 -119 l 386 92 l 386 451 l 114 451 l 114 539 l 640 539 l 640 922 l 178 922 l 178 1010 l 735 1010 l 735 819 l 971 819 l 971 975 l 881 975 l 881 1065 l 1068 1065 l 1068 310 z "},"궝":{"ha":1250,"x_min":114,"x_max":1075,"o":"m 1067 286 l 969 286 l 971 732 l 735 732 l 735 553 l 892 553 l 892 465 l 514 465 l 514 244 q 589 253 549 250 q 674 256 629 256 q 1075 42 1075 257 q 674 -174 1075 -174 q 271 42 271 -174 q 419 222 271 172 l 419 465 l 114 465 l 114 553 l 640 553 l 640 922 l 178 922 l 178 1010 l 735 1010 l 735 822 l 971 822 l 971 971 l 881 971 l 881 1061 l 1068 1061 l 1067 286 m 368 42 q 674 -83 368 -83 q 978 42 978 -83 q 674 165 978 165 q 368 42 368 165 z "},"궤":{"ha":1250,"x_min":56,"x_max":1104,"o":"m 892 -131 l 797 -131 l 797 606 l 607 606 l 607 419 l 700 419 l 700 332 l 424 332 l 424 -131 l 329 -131 l 329 332 l 56 332 l 56 419 l 510 419 l 510 831 l 110 831 l 110 921 l 607 921 l 607 693 l 797 693 l 797 958 l 707 958 l 707 1049 l 892 1049 l 892 -131 m 1104 -131 l 1010 -131 l 1010 1049 l 1104 1049 l 1104 -131 z "},"궷":{"ha":1250,"x_min":69,"x_max":1129,"o":"m 874 239 l 776 239 l 776 700 l 588 700 l 588 543 l 713 543 l 713 453 l 432 453 l 432 207 l 335 207 l 335 453 l 69 453 l 69 543 l 490 543 l 490 876 l 128 876 l 128 967 l 588 967 l 588 790 l 776 790 l 776 975 l 686 975 l 686 1065 l 874 1065 l 874 239 m 1093 239 l 996 239 l 996 1065 l 1093 1065 l 1093 239 m 244 -164 l 193 -89 l 611 157 l 611 267 l 708 267 l 708 156 l 1129 -93 l 1078 -168 l 657 79 l 244 -164 z "},"궸":{"ha":1250,"x_min":60,"x_max":1186,"o":"m 874 340 l 776 340 l 776 761 l 603 761 l 603 650 l 700 650 l 700 560 l 419 560 l 419 342 l 322 342 l 322 560 l 60 560 l 60 650 l 513 650 l 513 928 l 122 928 l 122 1018 l 603 1018 l 603 851 l 776 851 l 776 975 l 679 975 l 679 1065 l 874 1065 l 874 340 m 1086 336 l 989 336 l 989 1065 l 1086 1065 l 1086 336 m 200 -165 l 133 -107 l 403 150 l 403 275 l 500 275 l 500 140 l 658 -17 l 828 149 l 828 274 l 925 274 l 925 140 l 1186 -110 l 1119 -168 l 872 69 l 658 -149 l 446 71 l 200 -165 z "},"귀":{"ha":1250,"x_min":75,"x_max":1061,"o":"m 1061 -151 l 964 -151 l 964 339 l 535 339 l 535 -151 l 438 -151 l 438 339 l 75 339 l 75 429 l 674 429 l 674 860 l 186 860 l 186 950 l 771 950 l 771 429 l 964 429 l 964 963 l 874 963 l 874 1053 l 1061 1053 l 1061 -151 z "},"귁":{"ha":1250,"x_min":86,"x_max":1068,"o":"m 1068 339 l 971 339 l 971 500 l 494 500 l 494 274 l 1068 274 l 1068 -172 l 971 -172 l 971 183 l 251 183 l 251 274 l 397 274 l 397 500 l 86 500 l 86 590 l 640 590 l 640 894 l 188 894 l 188 985 l 738 985 l 738 590 l 971 590 l 971 975 l 881 975 l 881 1065 l 1068 1065 l 1068 339 z "},"귄":{"ha":1250,"x_min":114,"x_max":1115,"o":"m 1068 133 l 971 133 l 971 464 l 567 464 l 567 186 l 469 186 l 469 464 l 114 464 l 114 554 l 649 554 l 649 888 l 174 888 l 174 978 l 746 978 l 746 554 l 971 554 l 971 963 l 881 963 l 881 1053 l 1068 1053 l 1068 133 m 1115 -143 l 253 -143 l 253 236 l 350 236 l 350 -60 l 1115 -60 l 1115 -143 z "},"귈":{"ha":1250,"x_min":114,"x_max":1129,"o":"m 1068 396 l 971 396 l 971 563 l 514 563 l 514 342 l 1071 342 l 1071 60 l 353 60 l 353 -82 l 1129 -82 l 1129 -172 l 256 -172 l 256 150 l 974 150 l 974 251 l 257 251 l 257 342 l 419 342 l 419 563 l 114 563 l 114 650 l 640 650 l 640 922 l 178 922 l 178 1010 l 735 1010 l 735 650 l 971 650 l 971 975 l 881 975 l 881 1065 l 1068 1065 l 1068 396 z "},"귐":{"ha":1250,"x_min":114,"x_max":1071,"o":"m 1068 354 l 971 354 l 971 499 l 514 499 l 514 264 l 1071 264 l 1071 -165 l 257 -165 l 257 264 l 419 264 l 419 499 l 114 499 l 114 586 l 640 586 l 640 900 l 178 900 l 178 988 l 735 988 l 735 586 l 971 586 l 971 975 l 881 975 l 881 1065 l 1068 1065 l 1068 354 m 354 174 l 354 -75 l 974 -75 l 974 174 l 354 174 z "},"귑":{"ha":1250,"x_min":114,"x_max":1071,"o":"m 1068 354 l 971 354 l 971 517 l 514 517 l 514 300 l 419 300 l 419 517 l 114 517 l 114 604 l 640 604 l 640 908 l 178 908 l 178 996 l 735 996 l 735 604 l 971 604 l 971 961 l 881 961 l 881 1051 l 1068 1051 l 1068 354 m 1071 -165 l 257 -165 l 257 293 l 354 293 l 354 157 l 974 157 l 974 300 l 1071 300 l 1071 -165 m 354 67 l 354 -75 l 974 -75 l 974 67 l 354 67 z "},"귓":{"ha":1250,"x_min":86,"x_max":1143,"o":"m 397 472 l 86 472 l 86 563 l 640 563 l 640 894 l 188 894 l 188 985 l 738 985 l 738 563 l 971 563 l 971 975 l 881 975 l 881 1065 l 1068 1065 l 1068 204 l 971 204 l 971 472 l 494 472 l 494 214 l 397 214 l 397 472 m 679 74 l 281 -151 l 229 -76 l 633 151 l 633 257 l 731 257 l 731 150 l 1143 -75 l 1086 -156 l 679 74 z "},"귕":{"ha":1250,"x_min":56,"x_max":1082,"o":"m 971 957 l 881 957 l 881 1047 l 1068 1047 l 1067 286 l 969 286 l 971 957 m 636 894 l 175 894 l 175 985 l 733 985 l 733 553 l 868 553 l 868 463 l 506 463 l 506 243 q 681 260 583 260 q 974 201 867 261 q 1082 39 1082 142 q 974 -123 1082 -62 q 681 -183 867 -183 q 387 -123 496 -183 q 278 39 278 -62 q 312 140 278 96 q 408 211 346 183 l 408 463 l 56 463 l 56 553 l 636 553 l 636 894 m 375 39 q 458 -57 375 -21 q 681 -93 540 -93 q 903 -57 821 -93 q 985 39 985 -21 q 903 135 985 100 q 681 169 821 169 q 458 135 540 169 q 375 39 375 100 z "},"규":{"ha":1250,"x_min":92,"x_max":1158,"o":"m 465 -164 l 368 -164 l 368 378 l 92 378 l 92 468 l 896 468 l 896 910 l 211 910 l 211 1000 l 993 1000 l 993 468 l 1158 468 l 1158 378 l 875 378 l 875 -164 l 778 -164 l 778 378 l 465 378 l 465 -164 z "},"균":{"ha":1250,"x_min":104,"x_max":1174,"o":"m 447 457 l 104 457 l 104 547 l 922 547 l 922 918 l 215 918 l 215 1008 l 1019 1008 l 1019 547 l 1174 547 l 1174 457 l 878 457 l 878 153 l 781 153 l 781 457 l 544 457 l 544 153 l 447 153 l 447 457 m 1101 -139 l 214 -139 l 214 242 l 311 242 l 311 -49 l 1101 -49 l 1101 -139 z "},"귤":{"ha":1250,"x_min":104,"x_max":1174,"o":"m 922 257 l 226 257 l 226 347 l 408 347 l 408 511 l 104 511 l 104 601 l 908 601 l 908 918 l 215 918 l 215 1008 l 1006 1008 l 1006 601 l 1174 601 l 1174 511 l 875 511 l 875 347 l 1021 347 l 1021 257 l 1019 257 l 1019 143 l 1021 143 l 1021 53 l 324 53 l 324 -61 l 1085 -61 l 1085 -151 l 226 -151 l 226 143 l 922 143 l 922 257 m 506 511 l 506 347 l 778 347 l 778 511 l 506 511 z "},"귬":{"ha":1250,"x_min":104,"x_max":1174,"o":"m 213 -151 l 213 271 l 408 271 l 408 483 l 104 483 l 104 574 l 908 574 l 908 918 l 215 918 l 215 1008 l 1006 1008 l 1006 574 l 1174 574 l 1174 483 l 878 483 l 878 271 l 1035 271 l 1035 181 l 1033 181 l 1033 -151 l 213 -151 m 506 483 l 506 271 l 781 271 l 781 483 l 506 483 m 310 181 l 310 -61 l 936 -61 l 936 181 l 310 181 z "},"귭":{"ha":1250,"x_min":104,"x_max":1174,"o":"m 408 483 l 104 483 l 104 574 l 908 574 l 908 918 l 215 918 l 215 1008 l 1006 1008 l 1006 574 l 1174 574 l 1174 483 l 850 483 l 850 272 l 753 272 l 753 483 l 506 483 l 506 272 l 408 272 l 408 483 m 213 -151 l 213 324 l 310 324 l 310 165 l 936 165 l 936 324 l 1033 324 l 1033 165 l 1035 165 l 1035 75 l 1033 75 l 1033 -151 l 213 -151 m 310 75 l 310 -61 l 936 -61 l 936 75 l 310 75 z "},"그":{"ha":1250,"x_min":86,"x_max":1163,"o":"m 1163 -8 l 86 -8 l 86 82 l 919 82 l 919 867 l 228 867 l 228 957 l 1017 957 l 1017 82 l 1163 82 l 1163 -8 z "},"극":{"ha":1250,"x_min":76,"x_max":1174,"o":"m 1174 442 l 76 442 l 76 532 l 908 532 l 908 904 l 229 904 l 229 994 l 1006 994 l 1006 532 l 1174 532 l 1174 442 m 1035 -151 l 938 -151 l 938 174 l 199 174 l 199 264 l 1035 264 l 1035 -151 z "},"근":{"ha":1250,"x_min":104,"x_max":1174,"o":"m 908 915 l 246 915 l 246 1006 l 1006 1006 l 1006 533 l 1174 533 l 1174 443 l 104 443 l 104 533 l 908 533 l 908 915 m 1101 -139 l 214 -139 l 214 242 l 311 242 l 311 -49 l 1101 -49 l 1101 -139 z "},"귿":{"ha":1250,"x_min":76,"x_max":1174,"o":"m 1174 460 l 76 460 l 76 550 l 922 550 l 922 901 l 231 901 l 231 992 l 1019 992 l 1019 550 l 1174 550 l 1174 460 m 1039 -172 l 218 -172 l 218 276 l 1039 276 l 1039 186 l 315 186 l 315 -82 l 1039 -82 l 1039 -172 z "},"글":{"ha":1250,"x_min":92,"x_max":1158,"o":"m 922 915 l 244 915 l 244 1006 l 1019 1006 l 1019 597 l 1158 597 l 1158 507 l 92 507 l 92 597 l 922 597 l 922 915 m 1058 -150 l 219 -150 l 219 157 l 933 157 l 933 286 l 219 286 l 219 376 l 1031 376 l 1031 67 l 317 67 l 317 -60 l 1058 -60 l 1058 -150 z "},"긁":{"ha":1250,"x_min":92,"x_max":1158,"o":"m 1158 507 l 92 507 l 92 597 l 922 597 l 922 915 l 244 915 l 244 1006 l 1019 1006 l 1019 597 l 1158 597 l 1158 507 m 221 -151 l 221 174 l 515 174 l 515 278 l 219 278 l 219 361 l 1033 361 l 1033 -151 l 939 -151 l 939 278 l 610 278 l 610 89 l 315 89 l 315 -67 l 671 -67 l 671 -151 l 221 -151 z "},"긂":{"ha":1250,"x_min":92,"x_max":1158,"o":"m 922 915 l 244 915 l 244 1006 l 1019 1006 l 1019 597 l 1158 597 l 1158 507 l 92 507 l 92 597 l 922 597 l 922 915 m 515 300 l 219 300 l 219 383 l 610 383 l 610 97 l 315 97 l 315 -67 l 679 -67 l 679 383 l 1049 383 l 1049 -151 l 221 -151 l 221 182 l 515 182 l 515 300 m 769 300 l 769 -68 l 958 -68 l 958 300 l 769 300 z "},"긇":{"ha":1250,"x_min":76,"x_max":1174,"o":"m 1174 474 l 76 474 l 76 564 l 936 564 l 936 929 l 217 929 l 217 1019 l 1033 1019 l 1033 564 l 1174 564 l 1174 474 m 1139 208 l 669 208 l 669 292 l 856 292 l 856 394 l 950 394 l 950 292 l 1139 292 l 1139 208 m 515 267 l 210 267 l 211 354 l 610 354 l 610 42 l 306 42 l 306 -65 l 692 -65 q 682 -8 682 -42 q 740 117 682 71 q 897 164 799 164 q 1053 117 996 164 q 1111 -8 1111 71 q 1053 -132 1111 -86 q 897 -178 996 -178 q 774 -153 824 -178 l 211 -153 l 211 129 l 515 129 l 515 267 m 769 -10 q 803 -74 769 -50 q 897 -97 838 -97 q 990 -74 956 -97 q 1024 -11 1024 -50 q 990 58 1024 33 q 897 83 956 83 q 803 58 838 83 q 769 -10 769 33 z "},"금":{"ha":1250,"x_min":76,"x_max":1174,"o":"m 1174 460 l 76 460 l 76 550 l 922 550 l 922 901 l 231 901 l 231 992 l 1019 992 l 1019 550 l 1174 550 l 1174 460 m 203 -157 l 203 268 l 1047 268 l 1047 -157 l 203 -157 m 300 178 l 300 -67 l 950 -67 l 950 178 l 300 178 z "},"급":{"ha":1250,"x_min":76,"x_max":1174,"o":"m 1174 460 l 76 460 l 76 550 l 922 550 l 922 901 l 231 901 l 231 992 l 1019 992 l 1019 550 l 1174 550 l 1174 460 m 1047 -157 l 203 -157 l 203 331 l 300 331 l 300 181 l 950 181 l 950 331 l 1047 331 l 1047 -157 m 300 90 l 300 -67 l 950 -67 l 950 90 l 300 90 z "},"긋":{"ha":1250,"x_min":78,"x_max":1172,"o":"m 1172 432 l 78 432 l 78 522 l 936 522 l 936 901 l 217 901 l 217 992 l 1033 992 l 1033 522 l 1172 522 l 1172 432 m 618 74 l 164 -178 l 113 -103 l 572 151 l 572 294 l 669 294 l 669 149 l 1132 -107 l 1081 -182 l 618 74 z "},"긍":{"ha":1250,"x_min":76,"x_max":1174,"o":"m 1174 432 l 76 432 l 76 522 l 922 522 l 922 901 l 231 901 l 231 992 l 1019 992 l 1019 522 l 1174 522 l 1174 432 m 626 -169 q 314 -109 424 -169 q 204 61 204 -49 q 314 229 204 171 q 626 288 424 288 q 939 229 829 288 q 1049 61 1049 171 q 939 -109 1049 -49 q 626 -169 829 -169 m 301 61 q 386 -43 301 -7 q 626 -79 471 -79 q 867 -43 783 -79 q 951 61 951 -7 q 867 162 951 126 q 626 197 783 197 q 386 162 471 197 q 301 61 301 126 z "},"긏":{"ha":1250,"x_min":78,"x_max":1172,"o":"m 1172 432 l 78 432 l 78 522 l 936 522 l 936 901 l 217 901 l 217 992 l 1033 992 l 1033 522 l 1172 522 l 1172 432 m 572 158 l 214 158 l 214 246 l 572 246 l 572 369 l 669 369 l 669 246 l 1049 246 l 1049 158 l 669 158 l 669 108 l 1104 -107 l 1053 -182 l 618 33 l 192 -178 l 140 -103 l 572 111 l 572 158 z "},"긑":{"ha":1250,"x_min":76,"x_max":1174,"o":"m 1174 460 l 76 460 l 76 550 l 908 550 l 908 904 l 229 904 l 229 994 l 1006 994 l 1006 550 l 1174 550 l 1174 460 m 219 -151 l 219 340 l 1046 340 l 1046 250 l 317 250 l 317 133 l 1024 133 l 1024 43 l 317 43 l 317 -61 l 1053 -61 l 1053 -151 l 219 -151 z "},"긓":{"ha":1250,"x_min":76,"x_max":1174,"o":"m 1174 432 l 76 432 l 76 522 l 922 522 l 922 901 l 231 901 l 231 992 l 1019 992 l 1019 522 l 1174 522 l 1174 432 m 1058 219 l 190 219 l 190 307 l 575 307 l 575 399 l 672 399 l 672 307 l 1058 307 l 1058 219 m 617 -176 q 263 -3 263 -176 q 617 171 263 171 q 971 -3 971 171 q 617 -176 971 -176 m 353 -3 q 617 -93 353 -93 q 881 -3 881 -93 q 617 88 881 88 q 353 -3 353 88 z "},"긔":{"ha":1250,"x_min":75,"x_max":1061,"o":"m 1061 -172 l 964 -172 l 964 186 l 75 186 l 75 276 l 674 276 l 674 825 l 186 825 l 186 915 l 771 915 l 771 276 l 964 276 l 964 994 l 874 994 l 874 1078 l 1061 1078 l 1061 -172 z "},"긘":{"ha":1250,"x_min":114,"x_max":1115,"o":"m 1068 136 l 971 136 l 971 411 l 114 411 l 114 501 l 649 501 l 649 876 l 174 876 l 174 967 l 746 967 l 746 501 l 971 501 l 971 965 l 881 965 l 881 1056 l 1068 1056 l 1068 136 m 1115 -140 l 253 -140 l 253 239 l 350 239 l 350 -57 l 1115 -57 l 1115 -140 z "},"긩":{"ha":1250,"x_min":56,"x_max":1078,"o":"m 636 883 l 175 883 l 175 974 l 733 974 l 733 514 l 969 514 l 971 957 l 881 957 l 881 1047 l 1068 1047 l 1067 306 l 969 306 l 969 424 l 56 424 l 56 514 l 636 514 l 636 883 m 251 49 q 359 213 251 156 q 665 269 467 269 q 971 213 864 271 q 1078 49 1078 156 q 971 -116 1078 -58 q 665 -174 864 -174 q 359 -116 467 -174 q 251 49 251 -58 m 349 49 q 431 -49 349 -15 q 665 -83 514 -83 q 899 -49 818 -83 q 981 49 981 -15 q 899 145 981 111 q 665 179 818 179 q 431 145 514 179 q 349 49 349 111 z "},"기":{"ha":1250,"x_min":103,"x_max":1047,"o":"m 1047 -172 l 950 -172 l 950 947 l 860 947 l 860 1038 l 1047 1038 l 1047 -172 m 103 169 q 353 335 243 233 q 532 565 464 438 q 611 833 600 693 l 161 833 l 161 924 l 711 924 q 675 655 715 782 q 558 419 635 528 q 375 226 481 311 q 144 82 269 140 l 103 169 z "},"긱":{"ha":1250,"x_min":99,"x_max":1075,"o":"m 978 965 l 888 965 l 888 1056 l 1075 1056 l 1075 336 l 978 336 l 978 965 m 99 443 q 274 499 186 465 q 437 583 363 532 q 558 709 511 633 q 611 890 606 785 l 144 890 l 144 981 l 713 981 q 662 734 711 840 q 531 553 613 628 q 346 429 449 478 q 135 354 243 381 l 99 443 m 1074 -172 l 976 -172 l 976 176 l 261 176 l 261 267 l 1074 267 l 1074 -172 z "}}}
